<?xml version="1.0" standalone="no"?>
<!DOCTYPE svg PUBLIC "-//W3C//DTD SVG 1.1//EN" "http://www.w3.org/Graphics/SVG/1.1/DTD/svg11.dtd" >
<svg xmlns="http://www.w3.org/2000/svg" xmlns:xlink="http://www.w3.org/1999/xlink" version="1.1">
<metadata>
Created by FontForge 20200427 at Fri Dec 14 21:58:57 2018
 By www
Copyright (c) 2014 by Colophon Foundry. All rights reserved.
</metadata>
<defs>
<font id="BurgessPro-Regular" horiz-adv-x="0" >
  <font-face 
    font-family="Burgess Pro"
    font-weight="400"
    font-stretch="normal"
    units-per-em="1000"
    panose-1="2 2 5 3 7 4 2 4 4 3"
    ascent="750"
    descent="-250"
    x-height="480"
    cap-height="700"
    bbox="-498 -329 1495 952"
    underline-thickness="50"
    underline-position="-100"
    unicode-range="U+000D-1D364"
  />
<missing-glyph horiz-adv-x="214" 
 />
    <glyph glyph-name="f_f" unicode="ff" horiz-adv-x="565" 
d="M23 22h10q33 0 46.5 16.5t13.5 57.5v360h-76v24h76v26q0 55 26.5 102.5t73 76.5t105.5 29q38 0 72 -11t59 -30q30 41 91 41q43 0 71.5 -23.5t28.5 -61.5q0 -24 -15 -39.5t-37 -15.5q-21 0 -35 14t-14 32q0 8 2.5 19.5t2.5 18.5q0 11 -7.5 18.5t-21.5 7.5q-20 0 -32.5 -13
t-12.5 -38q0 -15 4 -26t12 -27q11 -24 17.5 -45t7.5 -55h84v-24h-84v-360q0 -41 13.5 -57.5t46.5 -16.5h10v-22h-234v22h10q33 0 46.5 16.5t13.5 57.5v360h-210v-360q0 -41 13.5 -57.5t46.5 -16.5h10v-22h-234v22zM397 480v65q0 40 6 68q-12 38 -42 57.5t-68 19.5
q-45 0 -75.5 -35t-30.5 -93v-82h210z" />
    <glyph glyph-name="f_f_i" unicode="ffi" horiz-adv-x="882" 
d="M23 22h10q33 0 46.5 16.5t13.5 57.5v360h-76v24h76v19q0 93 52 154t151 61q43 0 83 -14.5t71 -37.5q29 35 71 53.5t94 18.5q54 0 93 -16.5t59 -42t20 -54.5q0 -30 -16.5 -48t-46.5 -18q-26 0 -41 16t-15 37q0 11 4 25q0 3 1.5 9.5t1.5 12.5q0 25 -17.5 40t-49.5 15
q-65 0 -91 -57t-26 -173h140l164 14v-398q0 -41 13.5 -57.5t46.5 -16.5h10v-22h-234v22h10q33 0 46.5 16.5t13.5 57.5v289q0 41 -16 56t-44 15h-150v-360q0 -41 13.5 -57.5t46.5 -16.5h10v-22h-234v22h10q33 0 46.5 16.5t13.5 57.5v360h-210v-360q0 -41 13.5 -57.5
t46.5 -16.5h10v-22h-234v22zM397 480v19q0 53 15 95q-16 45 -48 70.5t-72 25.5q-58 0 -81.5 -37.5t-23.5 -115.5v-57h210z" />
    <glyph glyph-name="f_f_l" unicode="ffl" horiz-adv-x="882" 
d="M23 22h10q33 0 46.5 16.5t13.5 57.5v360h-76v24h76v19q0 93 52 154t151 61q42 0 81.5 -14t70.5 -37q27 34 66.5 52.5t89.5 18.5q29 0 51.5 -7t48.5 -21l91 8v-618q0 -41 13.5 -57.5t46.5 -16.5h10v-22h-234v22h10q33 0 46.5 16.5t13.5 57.5v500q0 55 -25.5 84.5
t-74.5 29.5q-110 0 -110 -173v-57h72v-24h-72v-360q0 -41 13.5 -57.5t46.5 -16.5h10v-22h-234v22h10q33 0 46.5 16.5t13.5 57.5v360h-210v-360q0 -41 13.5 -57.5t46.5 -16.5h10v-22h-234v22zM397 480v19q0 53 15 96q-16 45 -48.5 70t-71.5 25q-58 0 -81.5 -37.5
t-23.5 -115.5v-57h210z" />
    <glyph glyph-name="f_i" unicode="fi" horiz-adv-x="578" 
d="M23 22h10q33 0 46.5 16.5t13.5 57.5v360h-76v24h76v19q0 68 26.5 121.5t76 83.5t115.5 30q54 0 93 -16.5t59 -42t20 -54.5q0 -30 -16.5 -48t-46.5 -18q-26 0 -41 16t-15 37q0 11 4 25q0 3 1.5 9.5t1.5 12.5q0 25 -17.5 40t-49.5 15q-65 0 -91 -57t-26 -173h140l164 14
v-398q0 -41 13.5 -57.5t46.5 -16.5h10v-22h-234v22h10q33 0 46.5 16.5t13.5 57.5v289q0 41 -16 56t-44 15h-150v-360q0 -41 13.5 -57.5t46.5 -16.5h10v-22h-234v22z" />
    <glyph glyph-name="f_l" unicode="fl" horiz-adv-x="578" 
d="M23 22h10q33 0 46.5 16.5t13.5 57.5v360h-76v24h76v19q0 66 24 119.5t71 84.5t112 31q29 0 51.5 -7t48.5 -21l91 8v-618q0 -41 13.5 -57.5t46.5 -16.5h10v-22h-234v22h10q33 0 46.5 16.5t13.5 57.5v500q0 55 -25.5 84.5t-74.5 29.5q-110 0 -110 -173v-57h72v-24h-72v-360
q0 -41 13.5 -57.5t46.5 -16.5h10v-22h-234v22z" />
    <glyph glyph-name=".notdef" horiz-adv-x="214" 
 />
    <glyph glyph-name=".null" 
 />
    <glyph glyph-name="nonmarkingreturn" unicode="&#xd;" 
 />
    <glyph glyph-name="space" unicode=" " horiz-adv-x="214" 
 />
    <glyph glyph-name="exclam" unicode="!" horiz-adv-x="180" 
d="M67 390q-10 74 -26 158q-15 72 -15 99q0 31 18 49t46 18t46 -18t18 -49q0 -27 -15 -99q-16 -84 -26 -158t-10 -164h-26q0 90 -10 164zM45.5 12.5q-18.5 18.5 -18.5 44.5t18.5 44.5t44.5 18.5t44.5 -18.5t18.5 -44.5t-18.5 -44.5t-44.5 -18.5t-44.5 18.5z" />
    <glyph glyph-name="quotedbl" unicode="&#x22;" horiz-adv-x="318" 
d="M57 491l-23 140q-2 12 -2 21q0 24 12.5 39t34.5 15q23 0 35 -15t12 -39q0 -9 -2 -21l-23 -140q-4 -25 -22 -25t-22 25zM217 491l-23 140q-2 12 -2 21q0 24 12.5 39t34.5 15q23 0 35 -15t12 -39q0 -9 -2 -21l-23 -140q-4 -25 -22 -25t-22 25z" />
    <glyph glyph-name="numbersign" unicode="#" horiz-adv-x="652" 
d="M223 480l57 220h47l-57 -220h178l57 220h47l-57 -220h147v-40h-157l-46 -180h163v-40h-174l-56 -220h-47l56 220h-178l-56 -220h-47l56 220h-146v40h157l46 180h-163v40h173zM392 260l46 180h-178l-46 -180h178z" />
    <glyph glyph-name="dollar" unicode="$" horiz-adv-x="539" 
d="M477.5 88.5q-31.5 -48.5 -81 -74.5t-102.5 -28v-86h-34v88q-35 3 -64 16.5t-66 37.5q-13 8 -25 8q-11 0 -18.5 -12.5t-7.5 -37.5h-24v239h24q8 -54 34.5 -101t65 -78t81.5 -38v284l-34 15q-164 68 -164 209q0 54 27 94.5t72.5 63.5t98.5 26v86h34v-87q30 -3 56.5 -12.5
t56.5 -26.5q13 -8 22 -8q7 0 12.5 6.5t5.5 18.5v9h24v-199h-24q-10 77 -51 123.5t-102 54.5v-257q5 -2 45 -20q89 -37 129.5 -84t40.5 -116q0 -65 -31.5 -113.5zM183 500q27 -32 77 -60v240q-47 -4 -75.5 -33t-28.5 -74q0 -41 27 -73zM379.5 58q31.5 34 31.5 88
q0 49 -30 82.5t-87 62.5v-271q54 4 85.5 38z" />
    <glyph glyph-name="percent" unicode="%" horiz-adv-x="802" 
d="M100.5 356q-38.5 21 -59.5 58t-21 82q0 61 26 110.5t74.5 78.5t112.5 29q71 0 118 -42.5t47 -111.5q0 -62 -28.5 -113.5t-77 -81.5t-104.5 -30q-49 0 -87.5 21zM184 17l408 683l28 -17l-408 -683zM255.5 386q28.5 27 45 73.5t16.5 104.5q0 64 -24 95t-63 31
q-38 0 -67.5 -29t-45.5 -75.5t-16 -97.5q0 -59 23.5 -94t66.5 -35q36 0 64.5 27zM484.5 7q-38.5 21 -59.5 58t-21 82q0 61 26 110.5t74.5 78.5t112.5 29q71 0 118 -42.5t47 -111.5q0 -62 -28.5 -113.5t-77 -81.5t-104.5 -30q-49 0 -87.5 21zM639.5 37q28.5 27 45 73.5
t16.5 104.5q0 64 -24 95t-63 31q-38 0 -67.5 -29t-45.5 -75.5t-16 -97.5q0 -59 23.5 -94t66.5 -35q36 0 64.5 27z" />
    <glyph glyph-name="ampersand" unicode="&#x26;" horiz-adv-x="705" 
d="M133 10q-51 24 -80.5 68.5t-29.5 103.5q0 73 41.5 128t128.5 97l-6 9q-27 41 -39.5 72.5t-12.5 67.5q0 44 21.5 80t61.5 57t94 21q51 0 89 -16.5t58.5 -44t20.5 -61.5q0 -110 -173 -177l176 -252q37 73 56 148q3 12 3 21q0 35 -43 35h-12v24h156v-24q-25 0 -38 -6.5
t-20 -19t-16 -38.5q-37 -112 -65 -170q20 -27 42.5 -44t50.5 -17q30 0 48.5 13.5t34.5 44.5l16 -7q-16 -68 -53 -102.5t-90 -34.5q-30 0 -60 14.5t-61 53.5q-80 -68 -187 -68q-61 0 -112 24zM372 497.5q27 30.5 27 76.5q0 44 -22.5 75t-64.5 31q-36 0 -62 -27t-26 -70
q0 -48 35 -98l31 -45q55 27 82 57.5zM354 50q35 14 56 37l-198 292q-47 -26 -71 -72t-24 -100q0 -45 19 -84t56 -63t87 -24q40 0 75 14z" />
    <glyph glyph-name="quotesingle" unicode="'" horiz-adv-x="158" 
d="M57 491l-23 140q-2 12 -2 21q0 24 12.5 39t34.5 15q23 0 35 -15t12 -39q0 -9 -2 -21l-23 -140q-4 -25 -22 -25t-22 25z" />
    <glyph glyph-name="parenleft" unicode="(" horiz-adv-x="298" 
d="M98.5 81q-68.5 114 -68.5 269t68.5 269t168.5 175l11 -14q-73 -65 -117.5 -177.5t-44.5 -252.5t44.5 -252.5t117.5 -177.5l-11 -14q-100 61 -168.5 175z" />
    <glyph glyph-name="parenright" unicode=")" horiz-adv-x="298" 
d="M20 -80q73 65 117.5 177.5t44.5 252.5t-44.5 252.5t-117.5 177.5l11 14q100 -61 168.5 -175t68.5 -269t-68.5 -269t-168.5 -175z" />
    <glyph glyph-name="asterisk" unicode="*" horiz-adv-x="334" 
d="M69.5 424q-11.5 11 -11.5 28q0 14 9 26q8 11 17.5 17.5t27.5 15.5q12 7 25 15t22 19q-12 3 -24 3q-11 0 -35 -4q-5 -1 -12.5 -2t-18.5 -1q-21 0 -37 11t-16 33q0 16 11 27t28 11q9 0 18 -3q15 -6 42 -31q29 -27 47 -35q-1 14 -7 28.5t-12 27.5q-8 18 -12 28.5t-4 23.5
q0 18 11 30t29 12t29 -12t11 -30q0 -13 -4 -23.5t-12 -28.5q-6 -13 -12 -27.5t-7 -28.5q17 8 45 34q3 3 17 15.5t29 16.5q8 3 16 3q17 0 28 -11t11 -27q0 -22 -16 -33t-37 -11q-11 0 -18.5 1t-12.5 2q-24 4 -35 4q-12 0 -24 -3q9 -11 22 -19t25 -15q18 -9 27.5 -15.5
t17.5 -17.5q9 -12 9 -26q0 -17 -11.5 -28t-28.5 -11q-22 0 -34 18q-9 13 -12.5 30.5t-4.5 20.5q-3 20 -6.5 32.5t-11.5 25.5q-8 -13 -11.5 -25.5t-6.5 -32.5q-1 -3 -4.5 -20.5t-12.5 -30.5q-12 -18 -34 -18q-17 0 -28.5 11z" />
    <glyph glyph-name="plus" unicode="+" horiz-adv-x="432" 
d="M233 352h184v-34h-184v-184h-34v184h-184v34h184v184h34v-184z" />
    <glyph glyph-name="comma" unicode="," horiz-adv-x="192" 
d="M26 -143q41 29 68 65.5t31 78.5q-14 -7 -34 -7q-27 0 -45.5 17.5t-18.5 43.5t17.5 45.5t46.5 19.5q37 0 56 -25t19 -63q0 -60 -32 -106.5t-95 -83.5z" />
    <glyph glyph-name="hyphen" unicode="-" horiz-adv-x="377" 
d="M359 312v-34h-341v34h341z" />
    <glyph glyph-name="period" unicode="." horiz-adv-x="178" 
d="M44.5 101.5q18.5 18.5 44.5 18.5t44.5 -18.5t18.5 -44.5t-18.5 -44.5t-44.5 -18.5t-44.5 18.5t-18.5 44.5t18.5 44.5z" />
    <glyph glyph-name="slash" unicode="/" horiz-adv-x="481" 
d="M474 700l-420 -700h-47l420 700h47z" />
    <glyph glyph-name="zero" unicode="0" horiz-adv-x="598" 
d="M435.5 669q61.5 -45 97 -128t35.5 -191t-35.5 -191t-97 -128t-136.5 -45t-136.5 45t-97 128t-35.5 191t35.5 191t97 128t136.5 45t136.5 -45zM414 589.5q-40 84.5 -115 84.5t-115 -84.5t-40 -239.5t40 -239.5t115 -84.5t115 84.5t40 239.5t-40 239.5z" />
    <glyph glyph-name="one" unicode="1" horiz-adv-x="309" 
d="M85 617q-19 20 -59 20h-10v22l176 51h13v-600q0 -88 78 -88h10v-22h-277v22h10q78 0 78 88v439q0 48 -19 68z" />
    <glyph glyph-name="two" unicode="2" horiz-adv-x="457" 
d="M17 14q172 158 245.5 271.5t73.5 207.5q0 62 -38.5 97.5t-95.5 35.5q-54 0 -95 -32t-63 -82l-15 5q20 83 77.5 140t139.5 57q87 0 135.5 -48.5t48.5 -134.5q0 -73 -33 -141.5t-101 -143.5t-182 -174h160q62 0 93.5 24t46.5 85h22l-17 -181h-402v14z" />
    <glyph glyph-name="three" unicode="3" horiz-adv-x="463" 
d="M105.5 -0.5q-40.5 13.5 -62 36t-21.5 48.5q0 21 15 35.5t36 14.5q23 0 39.5 -14.5t29.5 -47.5q23 -54 80 -54q33 0 61.5 18.5t46 54.5t17.5 85q0 87 -57.5 123.5t-136.5 36.5v14q148 59 148 180q0 53 -31 83t-82 30q-47 0 -86 -28t-55 -81l-16 5q6 50 33.5 90t69.5 62.5
t89 22.5q76 0 121 -39t45 -103q0 -52 -30 -95t-69 -69q67 -22 107.5 -68.5t40.5 -116.5q0 -66 -32.5 -120.5t-87 -85.5t-116.5 -31q-56 0 -96.5 13.5z" />
    <glyph glyph-name="four" unicode="4" horiz-adv-x="502" 
d="M202 22h10q78 0 78 88v82h-281v30l352 492h30v-490h87v-32h-87v-82q0 -88 78 -88h10v-22h-277v22zM290 224v327l-236 -327h236z" />
    <glyph glyph-name="five" unicode="5" horiz-adv-x="462" 
d="M76.5 12.5q-56.5 26.5 -56.5 74.5q0 23 14.5 37.5t35.5 14.5q48 0 62 -62q7 -28 26.5 -43.5t51.5 -15.5q39 0 73 21.5t54.5 61t20.5 91.5q0 65 -27.5 109.5t-73.5 66.5t-100 22q-31 0 -60.5 -7t-51.5 -18l-7 5l40 330h331l-12 -92h-299l-15 -133q54 19 117 19
q69 0 124 -30t86.5 -85.5t31.5 -129.5q0 -75 -33.5 -135.5t-89 -94t-116.5 -33.5q-70 0 -126.5 26.5z" />
    <glyph glyph-name="six" unicode="6" horiz-adv-x="510" 
d="M134.5 21.5q-56.5 35.5 -87.5 102.5t-31 159q0 115 55.5 214.5t152 158t213.5 58.5h8v-22q-137 -11 -214 -102.5t-99 -226.5q34 40 79 58.5t91 18.5q53 0 98 -26.5t71.5 -75t26.5 -109.5q0 -73 -31.5 -128t-84.5 -85t-116 -30q-75 0 -131.5 35.5zM336.5 37.5
q28.5 21.5 45 61.5t16.5 95q0 59 -18 104.5t-50.5 71.5t-74.5 26q-32 0 -65.5 -16.5t-63.5 -52.5q-5 -27 -5 -74q0 -62 17.5 -116.5t52 -87.5t83.5 -33q34 0 62.5 21.5z" />
    <glyph glyph-name="seven" unicode="7" horiz-adv-x="489" 
d="M192 14.5q-14 14.5 -14 42.5q0 98 32.5 209.5t79.5 205.5t89 144h-204q-60 0 -89.5 -22.5t-41.5 -84.5h-20v191h447v-14q-86 -92 -126.5 -183.5t-51.5 -189.5t-11 -256q0 -27 -15.5 -42t-37.5 -15q-23 0 -37 14.5z" />
    <glyph glyph-name="eight" unicode="8" horiz-adv-x="482" 
d="M129.5 8.5q-51.5 22.5 -81.5 63.5t-30 94q0 58 32.5 103t98.5 85q-109 79 -109 179q0 49 25.5 90.5t70 66t98.5 24.5q79 0 130.5 -38.5t51.5 -105.5q0 -89 -120 -168q93 -48 130.5 -97t37.5 -122q0 -61 -32 -105.5t-82.5 -68t-105.5 -23.5q-63 0 -114.5 22.5zM345 572
q0 45 -31 77.5t-81 32.5t-81 -27.5t-31 -73.5q0 -45 37.5 -86.5t107.5 -77.5q79 65 79 155zM333 53.5q33 35.5 33 90.5q0 34 -18.5 62.5t-57.5 58t-110 71.5q-68 -63 -68 -161q0 -64 35 -110.5t98 -46.5q55 0 88 35.5z" />
    <glyph glyph-name="nine" unicode="9" horiz-adv-x="510" 
d="M65 8q138 8 213.5 100t100.5 229q-31 -39 -77.5 -58t-93.5 -19q-53 0 -98 26.5t-71.5 75t-26.5 109.5q0 73 31.5 128t84.5 85t116 30q75 0 131.5 -35.5t87.5 -102.5t31 -159q0 -115 -55.5 -214.5t-152 -158t-213.5 -58.5h-8v22zM320.5 320.5q33.5 16.5 63.5 52.5
q5 28 5 74q0 62 -17.5 116.5t-52 87.5t-83.5 33q-34 0 -62.5 -21.5t-45 -61.5t-16.5 -95q0 -59 18 -104.5t50.5 -71.5t74.5 -26q32 0 65.5 16.5z" />
    <glyph glyph-name="colon" unicode=":" horiz-adv-x="178" 
d="M44.5 372.5q-18.5 18.5 -18.5 44.5t18.5 44.5t44.5 18.5t44.5 -18.5t18.5 -44.5t-18.5 -44.5t-44.5 -18.5t-44.5 18.5zM44.5 12.5q-18.5 18.5 -18.5 44.5t18.5 44.5t44.5 18.5t44.5 -18.5t18.5 -44.5t-18.5 -44.5t-44.5 -18.5t-44.5 18.5z" />
    <glyph glyph-name="semicolon" unicode=";" horiz-adv-x="192" 
d="M45.5 372.5q-18.5 18.5 -18.5 44.5t18.5 44.5t44.5 18.5t44.5 -18.5t18.5 -44.5t-18.5 -44.5t-44.5 -18.5t-44.5 18.5zM26 -143q41 29 68 65.5t31 78.5q-14 -7 -34 -7q-27 0 -45.5 17.5t-18.5 43.5t17.5 45.5t46.5 19.5q37 0 56 -25t19 -63q0 -60 -32 -106.5t-95 -83.5z
" />
    <glyph glyph-name="less" unicode="&#x3c;" horiz-adv-x="330" 
d="M295 548v-50l-240 -189l240 -189v-50l-277 213v52z" />
    <glyph glyph-name="equal" unicode="=" horiz-adv-x="432" 
d="M417 452v-34h-402v34h402zM417 262v-34h-402v34h402z" />
    <glyph glyph-name="greater" unicode="&#x3e;" horiz-adv-x="330" 
d="M35 70v50l240 189l-240 189v50l277 -213v-52z" />
    <glyph glyph-name="question" unicode="?" horiz-adv-x="456" 
d="M194 311q75 33 104.5 80.5t29.5 131.5q0 52 -18.5 89.5t-47.5 56t-61 18.5q-38 0 -63 -20.5t-25 -53.5q0 -9 6 -25q6 -20 6 -30q0 -23 -15.5 -37.5t-38.5 -14.5q-24 0 -40.5 16t-16.5 46q0 31 23 65.5t68.5 57.5t110.5 23q67 0 116.5 -24.5t76.5 -69t27 -102.5
q0 -175 -212 -227v-79h-30v99zM164.5 12.5q-18.5 18.5 -18.5 44.5t18.5 44.5t44.5 18.5t44.5 -18.5t18.5 -44.5t-18.5 -44.5t-44.5 -18.5t-44.5 18.5z" />
    <glyph glyph-name="at" unicode="@" horiz-adv-x="748" 
d="M187 28.5q-75 42.5 -119 122.5t-44 189q0 111 51 196t136 131.5t186 46.5q103 0 177 -41t112 -111.5t38 -156.5q0 -72 -21 -129.5t-59 -90.5t-86 -33q-34 0 -60.5 20t-37.5 48q-60 -68 -134 -68q-38 0 -73 19.5t-57 61t-22 102.5q0 60 27 112t72.5 82.5t98.5 30.5
q37 0 65.5 -13.5t46.5 -39.5l7 41h75l-45 -290q-3 -16 -3 -31q0 -21 14.5 -35t40.5 -14q30 0 57 28t43.5 77t16.5 110q0 83 -36 147t-102.5 99.5t-154.5 35.5q-82 0 -155 -42t-118 -119t-45 -175q0 -90 37.5 -162t104.5 -113.5t153 -41.5q61 0 116 22.5t98 68.5l9 -9
q-45 -60 -107 -89t-136 -29q-92 0 -167 42.5zM441 237l31 198l1 17q0 35 -23.5 58.5t-58.5 23.5q-74 0 -106.5 -63.5t-32.5 -149.5q0 -54 27.5 -89.5t73.5 -35.5q54 0 88 41z" />
    <glyph glyph-name="A" unicode="A" horiz-adv-x="780" 
d="M8 22h10q38 0 75 35t61 95l225 562h10l241 -568q25 -59 57 -91.5t75 -32.5h10v-22h-315v22h10q26 0 44.5 15t18.5 37q0 13 -4.5 25.5t-13.5 33.5l-36 80h-260l-34 -85q-9 -23 -9 -42q0 -28 17.5 -46t46.5 -18h10v-22h-239v22zM462 247l-119 285l-113 -285h232z" />
    <glyph glyph-name="B" unicode="B" horiz-adv-x="586" 
d="M18 22h10q78 0 78 88v480q0 88 -78 88h-10v22h265q122 0 191.5 -40.5t69.5 -119.5q0 -56 -40 -97.5t-114 -60.5q80 -16 128.5 -64.5t48.5 -119.5q0 -91 -66 -144.5t-195 -53.5h-288v22zM236 396q109 0 154.5 35.5t45.5 105.5q0 61 -38.5 95t-103.5 34q-47 0 -63.5 -13.5
t-16.5 -56.5v-200h22zM415 75q44 41 44 114q0 56 -21 93.5t-75 58.5t-149 21v-256q0 -32 10.5 -47.5t27.5 -20t46 -4.5q73 0 117 41z" />
    <glyph glyph-name="C" unicode="C" horiz-adv-x="639" 
d="M197 28.5q-74 42.5 -120.5 125t-46.5 196.5t50 196.5t128.5 125t161.5 42.5q44 0 77.5 -11t76.5 -34q18 -9 29 -9q13 0 19.5 9.5t6.5 23.5v7h23v-228h-23q-17 97 -72.5 152.5t-134.5 55.5q-110 0 -163 -88.5t-53 -241.5t56 -234.5t164 -81.5q162 0 232 212l19 -7
q-28 -122 -100.5 -187.5t-174.5 -65.5q-81 0 -155 42.5z" />
    <glyph glyph-name="D" unicode="D" horiz-adv-x="700" 
d="M16 22h10q78 0 78 88v480q0 88 -78 88h-10v22h290q99 0 181.5 -37.5t132.5 -116t50 -196.5t-50 -196.5t-132.5 -116t-181.5 -37.5h-290v22zM308 34q116 0 176 85.5t60 230.5t-60 230.5t-176 85.5h-36q-32 0 -46 -14t-14 -56v-492q0 -42 14 -56t46 -14h36z" />
    <glyph glyph-name="E" unicode="E" horiz-adv-x="572" 
d="M16 22h10q78 0 78 88v480q0 88 -78 88h-10v22h517v-177h-22q-5 76 -38.5 109.5t-111.5 33.5h-89q-32 0 -46 -14t-14 -56v-227h117q51 0 78.5 32.5t27.5 87.5h22v-274h-22q0 55 -27.5 87.5t-78.5 32.5h-117v-231q0 -42 14 -56t46 -14h72q84 0 128.5 34.5t61.5 118.5h22
l-14 -187h-526v22z" />
    <glyph glyph-name="F" unicode="F" horiz-adv-x="565" 
d="M16 22h10q78 0 78 88v480q0 88 -78 88h-10v22h527v-177h-22q-9 72 -43 107.5t-107 35.5h-99q-32 0 -46 -14t-14 -56v-239h127q51 0 78.5 32.5t27.5 87.5h22v-274h-22q0 55 -27.5 87.5t-78.5 32.5h-127v-213q0 -88 78 -88h10v-22h-284v22z" />
    <glyph glyph-name="G" unicode="G" horiz-adv-x="695" 
d="M195.5 27q-74.5 41 -120 123t-45.5 200q0 116 53 198.5t133.5 124t161.5 41.5q85 0 166 -43q20 -10 33 -10q26 0 26 32v7h23v-225h-23q-23 91 -81 148t-139 57q-117 0 -172 -83.5t-55 -246.5t50 -246.5t156 -83.5q48 0 93.5 19t72.5 49v103q0 64 -20 88.5t-71 24.5h-10
v22h259v-22h-10q-25 0 -36.5 -10t-14.5 -32t-3 -71v-191h-20q-4 20 -15 32t-25 12q-8 0 -14.5 -2.5t-13.5 -6.5q-37 -24 -83 -36.5t-94 -12.5q-87 0 -161.5 41z" />
    <glyph glyph-name="H" unicode="H" horiz-adv-x="727" 
d="M16 22h10q78 0 78 88v480q0 88 -78 88h-10v22h284v-22h-10q-78 0 -78 -88v-200h303v200q0 88 -78 88h-10v22h284v-22h-10q-78 0 -78 -88v-480q0 -88 78 -88h10v-22h-284v22h10q78 0 78 88v246h-303v-246q0 -88 78 -88h10v-22h-284v22z" />
    <glyph glyph-name="I" unicode="I" horiz-adv-x="316" 
d="M16 22h10q78 0 78 88v480q0 88 -78 88h-10v22h284v-22h-10q-78 0 -78 -88v-480q0 -88 78 -88h10v-22h-284v22z" />
    <glyph glyph-name="J" unicode="J" horiz-adv-x="445" 
d="M57 14q-43 28 -43 80q0 26 15.5 44t41.5 18q25 0 42 -15.5t17 -38.5q0 -17 -13 -37q-1 -2 -4.5 -7.5t-3.5 -11.5q0 -15 14 -24.5t37 -9.5q73 0 73 90v488q0 88 -78 88h-10v22h284v-22h-10q-78 0 -78 -88v-440q0 -53 -25 -90t-66 -55.5t-89 -18.5q-61 0 -104 28z" />
    <glyph glyph-name="K" unicode="K" horiz-adv-x="659" 
d="M212 590v-480q0 -88 78 -88h10v-22h-284v22h10q78 0 78 88v480q0 88 -78 88h-10v22h284v-22h-10q-78 0 -78 -88zM646 22v-22h-155q-17 9 -38 35l-241 322l208 239q19 22 26 32.5t7 21.5q0 28 -36 28h-13v22h215v-22h-10q-43 0 -77 -22.5t-82 -77.5l-135 -157l250 -333
q37 -47 81 -66z" />
    <glyph glyph-name="L" unicode="L" horiz-adv-x="573" 
d="M16 22h10q78 0 78 88v480q0 88 -78 88h-10v22h284v-22h-10q-78 0 -78 -88v-486q0 -42 14 -56t46 -14h81q58 0 93 17t56 54t38 104h23l-14 -209h-533v22z" />
    <glyph glyph-name="M" unicode="M" horiz-adv-x="853" 
d="M16 22h10q78 0 78 88v480q0 88 -78 88h-10v22h212l192 -524l219 524h198v-22h-10q-78 0 -78 -88v-480q0 -88 78 -88h10v-22h-284v22h10q78 0 78 88v501l-254 -611h-16l-233 611v-501q0 -88 78 -88h10v-22h-210v22z" />
    <glyph glyph-name="N" unicode="N" horiz-adv-x="711" 
d="M16 22h10q78 0 78 88v480q0 88 -78 88h-10v22h142l415 -499v389q0 88 -78 88h-10v22h210v-22h-10q-78 0 -78 -88v-596h-10l-459 553v-437q0 -88 78 -88h10v-22h-210v22z" />
    <glyph glyph-name="O" unicode="O" horiz-adv-x="747" 
d="M210.5 28.5q-79.5 42.5 -130 125.5t-50.5 196t50.5 196t130 125.5t162.5 42.5t162.5 -42.5t130 -125.5t50.5 -196t-50.5 -196t-130 -125.5t-162.5 -42.5t-162.5 42.5zM534 105q56 85 56 245t-56 245t-161 85t-161 -85t-56 -245t56 -245t161 -85t161 85z" />
    <glyph glyph-name="P" unicode="P" horiz-adv-x="592" 
d="M16 22h10q78 0 78 88v480q0 88 -78 88h-10v22h271q130 0 212.5 -53t82.5 -153q0 -107 -86 -162.5t-221 -55.5h-63v-166q0 -88 78 -88h10v-22h-284v22zM267 310q101 0 154 48t53 136q0 87 -49 129.5t-149 42.5q-35 0 -49.5 -14t-14.5 -56v-286h55z" />
    <glyph glyph-name="Q" unicode="Q" horiz-adv-x="761" 
d="M416.5 -118q-65.5 40 -101.5 110q-75 13 -140 58.5t-105 122t-40 177.5q0 113 50.5 196t130 125.5t162.5 42.5t162.5 -42.5t130 -125.5t50.5 -196q0 -97 -37.5 -172t-99.5 -121.5t-134 -62.5q19 -49 57 -75.5t105 -26.5q61 0 116 35l8 -15q-33 -31 -76.5 -50.5
t-94.5 -19.5q-78 0 -143.5 40zM534 105q56 85 56 245t-56 245t-161 85t-161 -85t-56 -245t56 -245t161 -85t161 85z" />
    <glyph glyph-name="R" unicode="R" horiz-adv-x="630" 
d="M16 22h10q78 0 78 88v480q0 88 -78 88h-10v22h281q126 0 199.5 -48.5t73.5 -138.5q0 -66 -44.5 -114t-120.5 -68l127 -242q16 -31 34 -46t48 -21v-22h-143q-11 3 -20.5 11.5t-15.5 19.5l-148 286h-75v-207q0 -88 78 -88h10v-22h-284v22zM252 351q109 0 159.5 43.5
t50.5 120.5q0 67 -37 109t-107 42h-36q-38 0 -54 -16.5t-16 -59.5v-239h40z" />
    <glyph glyph-name="S" unicode="S" horiz-adv-x="539" 
d="M208.5 -0.5q-34.5 13.5 -78.5 42.5q-13 8 -25 8q-11 0 -18.5 -12.5t-7.5 -37.5h-24v239h24q9 -59 39 -109t73.5 -80t91.5 -30q58 0 93 34t35 92q0 43 -23.5 74t-61.5 53t-100 48q-164 68 -164 209q0 55 29 97t77 64.5t103 22.5q38 0 69 -10t67 -30q13 -8 22 -8
q7 0 12.5 6.5t5.5 18.5v9h24v-199h-24q-11 83 -58.5 131t-116.5 48q-52 0 -84 -29.5t-32 -77.5q0 -54 47 -94t136 -77t129.5 -84t40.5 -116q0 -66 -32.5 -115t-83.5 -75t-104 -26q-46 0 -80.5 13.5z" />
    <glyph glyph-name="T" unicode="T" horiz-adv-x="588" 
d="M152 22h10q78 0 78 88v518q0 38 -36 38h-25q-65 0 -100.5 -36.5t-43.5 -108.5h-19v179h556v-179h-19q-8 72 -43.5 108.5t-100.5 36.5h-25q-36 0 -36 -38v-518q0 -88 78 -88h10v-22h-284v22z" />
    <glyph glyph-name="U" unicode="U" horiz-adv-x="711" 
d="M180 54q-76 68 -76 205v331q0 88 -78 88h-10v22h284v-22h-10q-78 0 -78 -88v-367q0 -187 184 -187q87 0 132 50.5t45 143.5v360q0 88 -78 88h-10v22h210v-22h-10q-78 0 -78 -88v-362q0 -111 -61 -176.5t-170 -65.5q-120 0 -196 68z" />
    <glyph glyph-name="V" unicode="V" horiz-adv-x="768" 
d="M138 562q-24 57 -50 86.5t-68 29.5h-10v22h302v-22h-13q-61 0 -61 -52q0 -16 16 -53l170 -405l161 404q9 23 9 45q0 29 -17 45t-47 16h-10v22h238v-22h-10q-44 0 -77 -33.5t-58 -96.5l-225 -562h-10z" />
    <glyph glyph-name="W" unicode="W" horiz-adv-x="1104" 
d="M145 552q-25 65 -55.5 95.5t-69.5 30.5h-10v22h304v-22h-10q-33 0 -48.5 -15.5t-15.5 -39.5q0 -16 6 -33l169 -434l127 333l-30 79q-22 59 -40.5 84.5t-45.5 25.5h-7v22h266v-22h-24q-27 0 -40 -12t-13 -33q0 -14 6 -31l168 -439l148 412q9 27 9 45q0 28 -17.5 43
t-47.5 15h-10v22h230v-22h-10q-39 0 -69.5 -25.5t-48.5 -75.5l-210 -591h-22l-174 456l-175 -456h-16z" />
    <glyph glyph-name="X" unicode="X" horiz-adv-x="754" 
d="M9 22h10q39 0 77.5 29t81.5 88l141 196l-165 244q-38 55 -60 77t-49 22h-10v22h299v-22h-15q-27 0 -40.5 -14t-13.5 -36t15 -45l107 -157l111 153q16 22 16 45t-17 38.5t-45 15.5h-10v22h238v-22h-10q-35 0 -68 -28.5t-74 -85.5l-121 -167l180 -264q35 -51 73 -81t75 -30
h10v-22h-350v22h10q33 0 51.5 15.5t18.5 40.5q0 15 -4 26.5t-14 26.5l-118 175l-126 -175q-21 -29 -21 -54q0 -24 18 -39.5t48 -15.5h10v-22h-259v22z" />
    <glyph glyph-name="Y" unicode="Y" horiz-adv-x="708" 
d="M220 22h10q78 0 78 88v168l-176 298q-34 57 -56 79.5t-57 22.5h-10v22h318v-22h-26q-29 0 -44.5 -14t-15.5 -37t13 -44l144 -244l133 247q14 25 14 47q0 21 -13.5 33t-38.5 12h-18v22h223v-22h-10q-34 0 -67.5 -28t-59.5 -77l-145 -271v-192q0 -88 78 -88h10v-22h-284v22
z" />
    <glyph glyph-name="Z" unicode="Z" horiz-adv-x="588" 
d="M35 22l380 644h-190q-64 0 -104 -34.5t-55 -110.5h-17v179h497v-22l-380 -644h139q74 0 117 16t67 52t38 103h22v-205h-514v22z" />
    <glyph glyph-name="bracketleft" unicode="[" horiz-adv-x="276" 
d="M60 700h176v-30h-34q-21 0 -31 -5.5t-13.5 -19.5t-3.5 -45v-582q0 -31 3.5 -45t13.5 -19.5t31 -5.5h34v-30h-176v782z" />
    <glyph glyph-name="backslash" unicode="\" horiz-adv-x="481" 
d="M427 0l-420 700h47l420 -700h-47z" />
    <glyph glyph-name="bracketright" unicode="]" horiz-adv-x="276" 
d="M40 -52h34q21 0 31 5.5t13.5 19.5t3.5 45v582q0 31 -3.5 45t-13.5 19.5t-31 5.5h-34v30h176v-782h-176v30z" />
    <glyph glyph-name="asciicircum" unicode="^" horiz-adv-x="462" 
d="M432 472h-50l-151 192l-151 -192h-50l175 228h52z" />
    <glyph glyph-name="underscore" unicode="_" horiz-adv-x="521" 
d="M506 0v-34h-491v34h491z" />
    <glyph glyph-name="grave" unicode="`" horiz-adv-x="136" 
d="M110 550l-96 104q-14 15 -14 32q0 14 9.5 23t23.5 9q24 0 37 -27l66 -141h-26z" />
    <glyph glyph-name="a" unicode="a" horiz-adv-x="497" 
d="M456.5 14.5q-24.5 -28.5 -63.5 -28.5q-32 0 -54.5 20t-29.5 59l-18 -18q-37 -37 -67.5 -49t-66.5 -12q-54 0 -91.5 34.5t-37.5 92.5q0 55 39 94t112 59l129 34v68q0 46 -23 71t-63 25q-36 0 -59.5 -17.5t-23.5 -42.5q0 -6 4 -19t4 -21q0 -22 -13 -36t-35 -14
q-20 0 -33 13.5t-13 34.5q0 20 8 36q21 42 69 69t105 27q167 0 167 -144v-249q0 -19 8.5 -30t22.5 -11q31 0 39 40l13 -4q-4 -53 -28.5 -81.5zM236 249q-114 -43 -114 -122q0 -35 21 -59.5t60 -24.5q50 0 84 32l21 20v181z" />
    <glyph glyph-name="b" unicode="b" horiz-adv-x="542" 
d="M71 663q-16 15 -44 15h-10v22l164 14v-279q59 59 140 59q55 0 99.5 -27t70 -78.5t25.5 -123.5q0 -80 -31 -143.5t-85 -99.5t-120 -36q-42 0 -78.5 15.5t-63.5 41.5l-29 -43h-22v607q0 41 -16 56zM214.5 31q24.5 -13 54.5 -13q44 0 77.5 28.5t51.5 80.5t18 119
q0 92 -32.5 146.5t-92.5 54.5q-33 0 -62 -13t-48 -36v-337q9 -17 33.5 -30z" />
    <glyph glyph-name="c" unicode="c" horiz-adv-x="463" 
d="M416 338.5q-17 -16.5 -39 -16.5q-25 0 -38.5 16t-13.5 41q0 7 2.5 21t2.5 20q0 14 -9 25q-16 22 -58 22q-31 0 -62 -24t-51 -68.5t-20 -102.5q0 -95 43.5 -156.5t119.5 -61.5q50 0 81.5 27t52.5 79l16 -6q-14 -72 -62.5 -120t-122.5 -48q-65 0 -118 30.5t-83.5 86.5
t-30.5 129q0 78 35 137.5t91 92t117 32.5q50 0 87.5 -16t57 -42.5t19.5 -55.5q0 -25 -17 -41.5z" />
    <glyph glyph-name="d" unicode="d" horiz-adv-x="542" 
d="M468.5 38.5q13.5 -16.5 46.5 -16.5h10v-22h-164v57q-21 -33 -55 -52t-78 -19q-58 0 -104 29.5t-72 83.5t-26 123q0 78 28.5 140t79.5 97t117 35t110 -35v148q0 41 -16 56t-44 15h-10v22l164 14v-618q0 -41 13.5 -57.5zM196 437q-31 -25 -50.5 -72t-19.5 -111
q0 -98 38 -154.5t100 -56.5q31 0 57.5 13t39.5 33v259q0 47 -27.5 80.5t-72.5 33.5q-34 0 -65 -25z" />
    <glyph glyph-name="e" unicode="e" horiz-adv-x="477" 
d="M379.5 80.5q35.5 32.5 53.5 90.5l15 -4q-12 -82 -65 -131.5t-129 -49.5q-67 0 -119 31t-80.5 87t-28.5 128q0 75 31 135t83 93.5t112 33.5q55 0 101.5 -26t74 -74t27.5 -111h-317v-16q0 -63 19 -113t54.5 -78t82.5 -28q50 0 85.5 32.5zM176 425q-29 -39 -36 -112h221
q0 64 -30 107.5t-81 43.5q-45 0 -74 -39z" />
    <glyph glyph-name="f" unicode="f" horiz-adv-x="261" 
d="M93 480v65q0 169 124 169q43 0 71 -23.5t28 -61.5q0 -24 -15 -39.5t-37 -15.5q-21 0 -35 14t-14 32q0 8 2.5 19.5t2.5 18.5q0 11 -7.5 18.5t-21.5 7.5q-20 0 -32.5 -13t-12.5 -38q0 -15 4 -26t12 -27q11 -24 17.5 -45t7.5 -55h84v-27h-84v-357q0 -41 13.5 -57.5
t46.5 -16.5h10v-22h-234v22h10q33 0 46.5 16.5t13.5 57.5v357h-76v27h76z" />
    <glyph glyph-name="g" unicode="g" horiz-adv-x="505" 
d="M351 466h129v-36h-86q41 -48 41 -109q0 -53 -28.5 -94t-75 -63t-99.5 -22t-100 28q-9 -7 -15 -17t-6 -20q0 -25 37.5 -37t123.5 -13q93 -1 146.5 -38t53.5 -103q0 -53 -35.5 -93t-90 -61.5t-110.5 -21.5q-59 0 -108 17.5t-78.5 50.5t-29.5 77q0 61 75 108
q-27 16 -39 34.5t-12 41.5q0 51 64 92q-28 23 -44 54.5t-16 67.5q0 58 27 100t71.5 63.5t97.5 21.5q52 0 107 -28zM165 425.5q-29 -34.5 -29 -92.5q0 -59 26 -108t80 -49q50 0 77.5 34.5t27.5 94.5q0 62 -29 108.5t-80 46.5q-44 0 -73 -34.5zM98 -35q-6 -21 -6 -45
q0 -29 17.5 -57t52.5 -46.5t84 -18.5q48 0 84 16t55.5 41t19.5 51q0 41 -35.5 61t-120.5 20q-72 0 -129 22q-16 -23 -22 -44z" />
    <glyph glyph-name="h" unicode="h" horiz-adv-x="588" 
d="M337 0v22h10q33 0 46.5 16.5t13.5 57.5v231q0 49 -26 74.5t-68 25.5q-32 0 -68 -21t-64 -58v-252q0 -41 13.5 -57.5t46.5 -16.5h10v-22h-234v22h10q33 0 46.5 16.5t13.5 57.5v508q0 41 -13.5 57.5t-46.5 16.5h-10v22l164 14v-330q35 49 83 79.5t103 30.5q64 0 99 -35
t35 -101v-262q0 -41 13.5 -57.5t46.5 -16.5h10v-22h-234z" />
    <glyph glyph-name="i" unicode="i" horiz-adv-x="268" 
d="M194.5 38.5q13.5 -16.5 46.5 -16.5h10v-22h-234v22h10q33 0 46.5 16.5t13.5 57.5v291q0 41 -16 56t-44 15h-10v22l164 14v-398q0 -41 13.5 -57.5zM78 669q19 19 46 19t46 -19t19 -46t-19 -46t-46 -19t-46 19t-19 46t19 46z" />
    <glyph glyph-name="j" unicode="j" horiz-adv-x="264" 
d="M120 669q19 19 46 19t46 -19t19 -46t-19 -46t-46 -19t-46 19t-19 46t19 46zM181.5 -149q-31.5 -33 -83.5 -33q-50 0 -77.5 25t-27.5 55q0 23 13 36.5t34 13.5t34 -12t13 -31q0 -5 -2.5 -16.5t-2.5 -16.5q0 -12 9.5 -21t24.5 -9q17 0 27.5 13t10.5 30q0 16 -3.5 30.5
t-11.5 35.5q-10 31 -15 53.5t-5 52.5v330q0 41 -16 56t-44 15h-10v22l164 14v-535q0 -75 -31.5 -108z" />
    <glyph glyph-name="k" unicode="k" horiz-adv-x="553" 
d="M17 22h10q33 0 46.5 16.5t13.5 57.5v511q0 41 -16 56t-44 15h-10v22l164 14v-618q0 -41 13.5 -57.5t46.5 -16.5h10v-22h-234v22zM329 22q11 0 16.5 6t5.5 15t-6 18l-164 211l146 129q19 18 19 33q0 11 -9.5 17.5t-25.5 6.5h-10v22h189v-22h-8q-30 0 -55.5 -16t-55.5 -42
l-95 -83l182 -236q22 -29 38.5 -42t42.5 -17v-22h-210v22z" />
    <glyph glyph-name="l" unicode="l" horiz-adv-x="268" 
d="M17 22h10q33 0 46.5 16.5t13.5 57.5v511q0 41 -16 56t-44 15h-10v22l164 14v-618q0 -41 13.5 -57.5t46.5 -16.5h10v-22h-234v22z" />
    <glyph glyph-name="m" unicode="m" horiz-adv-x="865" 
d="M261.5 467q40.5 27 90.5 27q59 0 91 -29t37 -84q37 57 78.5 85t93.5 28q62 0 95.5 -36t33.5 -100v-262q0 -42 12.5 -58t44.5 -16h10v-22h-228v22h10q32 0 44.5 16t12.5 58v231q0 50 -22.5 75t-62.5 25q-29 0 -64.5 -23t-56.5 -57v-251q0 -42 12.5 -58t44.5 -16h10v-22
h-228v22h10q32 0 44.5 16t12.5 58v231q0 50 -22.5 75t-62.5 25q-29 0 -64.5 -23t-56.5 -57v-251q0 -41 13.5 -57.5t46.5 -16.5h10v-22h-234v22h10q33 0 46.5 16.5t13.5 57.5v288q0 41 -13.5 57.5t-46.5 16.5h-10v22l164 14v-111q40 57 80.5 84z" />
    <glyph glyph-name="n" unicode="n" horiz-adv-x="581" 
d="M17 22h10q33 0 46.5 16.5t13.5 57.5v288q0 41 -13.5 57.5t-46.5 16.5h-10v22l164 14v-118q32 54 78 86t99 32q66 0 101 -37t35 -99v-262q0 -41 13.5 -57.5t46.5 -16.5h10v-22h-234v22h10q33 0 46.5 16.5t13.5 57.5v231q0 100 -94 100q-36 0 -70 -24t-55 -63v-244
q0 -41 13.5 -57.5t46.5 -16.5h10v-22h-234v22z" />
    <glyph glyph-name="o" unicode="o" horiz-adv-x="535" 
d="M57.5 367q31.5 61 86 94t121.5 33q70 0 125.5 -30.5t87 -85.5t31.5 -126q0 -76 -33 -137t-88 -95t-119 -34q-74 0 -129 32t-84.5 87t-29.5 122q0 79 31.5 140zM168.5 83.5q38.5 -67.5 104.5 -67.5q59 0 95.5 53.5t36.5 149.5q0 122 -38.5 183.5t-104.5 61.5
q-37 0 -67 -24.5t-47.5 -70.5t-17.5 -110q0 -108 38.5 -175.5z" />
    <glyph glyph-name="p" unicode="p" horiz-adv-x="556" 
d="M68 443q-16 15 -44 15h-10v22l164 14v-92q26 39 66.5 65.5t95.5 26.5t98 -29.5t67.5 -85t24.5 -130.5q0 -78 -32 -138t-85.5 -92.5t-115.5 -32.5q-75 0 -119 41v-151q0 -41 13.5 -57.5t46.5 -16.5h10v-22h-234v22h10q33 0 46.5 16.5t13.5 57.5v511q0 41 -16 56z
M223.5 413.5q-28.5 -18.5 -45.5 -47.5v-249q0 -47 29 -73t74 -26q69 0 109 60t40 160q0 94 -38 144t-101 50q-39 0 -67.5 -18.5z" />
    <glyph glyph-name="q" unicode="q" horiz-adv-x="544" 
d="M470 494v-618q0 -41 13.5 -57.5t46.5 -16.5h10v-22h-234v22h10q33 0 46.5 16.5t13.5 57.5v191q-24 -36 -61 -58.5t-83 -22.5q-53 0 -100.5 28.5t-76.5 84.5t-29 134q0 77 31.5 136.5t85.5 92t121 32.5q77 0 128 -47l56 47h22zM167.5 409.5q-43.5 -52.5 -43.5 -163.5
q0 -59 18.5 -104.5t50.5 -70.5t73 -25q35 0 60.5 13t49.5 40v249q0 52 -29.5 83t-72.5 31q-63 0 -106.5 -52.5z" />
    <glyph glyph-name="r" unicode="r" horiz-adv-x="392" 
d="M73.5 441.5q-13.5 16.5 -46.5 16.5h-10v22l164 14v-68q16 29 48.5 48.5t66.5 19.5q37 0 59 -19t22 -53q0 -28 -18 -44.5t-43 -16.5q-28 0 -46 27l-9.5 19t-14 19t-20.5 6q-17 0 -31 -19.5t-14 -66.5v-250q0 -41 13.5 -57.5t46.5 -16.5h10v-22h-234v22h10q33 0 46.5 16.5
t13.5 57.5v288q0 41 -13.5 57.5z" />
    <glyph glyph-name="s" unicode="s" horiz-adv-x="404" 
d="M275.5 144.5q-15.5 19.5 -40.5 32.5t-67 28q-67 24 -99 63.5t-32 87.5q0 40 22 71.5t59.5 49t80.5 17.5q31 0 52 -7t47 -23q10 -6 18 -6q7 0 11.5 6t4.5 16h24v-154h-19q-8 63 -44 99.5t-91 36.5q-40 0 -62 -20.5t-22 -50.5q0 -36 30 -60t93 -49q69 -27 102 -60t33 -85
q0 -66 -46.5 -108.5t-119.5 -42.5q-37 0 -63.5 9t-53.5 27q-8 5 -15 5q-10 0 -16 -7.5t-6 -19.5h-26v172h24q12 -71 53 -112.5t91 -41.5q43 0 68 21t25 57q0 29 -15.5 48.5z" />
    <glyph glyph-name="t" unicode="t" horiz-adv-x="327" 
d="M286 480v-27h-92v-338q0 -62 45 -62q37 0 56 35l10 -6q-14 -47 -39.5 -71.5t-68.5 -24.5q-47 0 -75.5 38t-28.5 98q0 41 3 92q4 84 4 140v99h-68v27q121 0 138 144h24v-144h92z" />
    <glyph glyph-name="u" unicode="u" horiz-adv-x="579" 
d="M505.5 38.5q13.5 -16.5 46.5 -16.5h10v-22l-164 -14v113q-32 -52 -75 -82.5t-92 -30.5q-66 0 -105 40.5t-39 119.5v238q0 41 -13.5 57.5t-46.5 16.5h-10v22l164 14v-341q0 -50 23.5 -75.5t65.5 -25.5q35 0 66.5 19.5t61.5 63.5v249q0 41 -13.5 57.5t-46.5 16.5h-10v22
l164 14v-398q0 -41 13.5 -57.5z" />
    <glyph glyph-name="v" unicode="v" horiz-adv-x="578" 
d="M64 438q-18 20 -41 20h-10v22h263v-22h-20q-25 0 -38.5 -11.5t-13.5 -31.5q0 -16 11 -38l110 -228l97 231q12 31 12 45q0 33 -44 33h-10v22h183v-22h-10q-62 0 -97 -85l-156 -373h-14l-183 375q-21 43 -39 63z" />
    <glyph glyph-name="w" unicode="w" horiz-adv-x="806" 
d="M782 458q-28 0 -47 -22.5t-41 -73.5l-157 -362h-14l-119 301l-130 -301h-14l-164 375q-18 42 -36 62.5t-39 20.5h-10v22h214v-22h-10q-14 0 -21 -7.5t-7 -19.5q0 -11 6 -25l111 -255l83 193l-28 71q-8 21 -18.5 32t-29.5 11h-5v22h227v-22h-10q-25 0 -38.5 -11.5
t-13.5 -33.5q0 -17 7 -35l89 -228l100 230q9 20 9 35q0 20 -13 31.5t-35 11.5h-10v22h174v-22h-10z" />
    <glyph glyph-name="x" unicode="x" horiz-adv-x="601" 
d="M302 0v22h10q20 0 31.5 10.5t11.5 28.5t-15 39l-72 95l-73 -90q-14 -18 -14 -37t12.5 -32.5t31.5 -13.5h10v-22h-214v22h10q38 0 64 20t61 63l93 114l-137 180q-27 35 -42.5 47t-37.5 12v22h241v-22h-13q-15 0 -24 -9t-9 -23q0 -15 11 -29l78 -102l85 105q13 17 13 30
t-9.5 20.5t-26.5 7.5h-10v22h180v-22h-10q-29 0 -56 -19.5t-58 -58.5l-89 -110l129 -165q35 -44 58 -63.5t49 -19.5h10v-22h-279z" />
    <glyph glyph-name="y" unicode="y" horiz-adv-x="578" 
d="M447 416q0 42 -55 42h-10v22h179v-22h-10q-29 0 -47 -19.5t-34 -58.5l-183 -461q-27 -69 -57.5 -99t-79.5 -30q-32 0 -50 17t-18 41q0 21 14 36.5t38 15.5q14 0 23 -4.5t21 -12.5q8 -6 14 -9t14 -3q20 0 33 18.5t27 53.5l25 62l-184 370q-21 43 -40 63t-43 20h-10v22h274
v-22h-13q-27 0 -42 -13.5t-15 -35.5q0 -17 11 -39l114 -228l98 247q6 17 6 27z" />
    <glyph glyph-name="z" unicode="z" horiz-adv-x="457" 
d="M98.5 429q-33.5 -27 -42.5 -91h-14v142h372v-24l-255 -432h98q62 0 98.5 24t50.5 92h16v-140h-390v24l266 432h-100q-66 0 -99.5 -27z" />
    <glyph glyph-name="braceleft" unicode="{" horiz-adv-x="260" 
d="M92 666.5q32 33.5 101 33.5h43v-30h-14q-31 0 -45.5 -11t-18.5 -30t-4 -54v-152q0 -99 -68 -114q68 -15 68 -114v-152q0 -35 4 -54t18.5 -30t45.5 -11h14v-30h-43q-69 0 -101 33.5t-32 118.5v168q0 34 -10.5 45t-39.5 11v30q29 0 39.5 11t10.5 45v168q0 85 32 118.5z" />
    <glyph glyph-name="bar" unicode="|" horiz-adv-x="140" 
d="M50 0v700h40v-700h-40z" />
    <glyph glyph-name="braceright" unicode="}" horiz-adv-x="261" 
d="M211.5 335q10.5 -11 39.5 -11v-30q-29 0 -39.5 -11t-10.5 -45v-168q0 -85 -32 -118.5t-101 -33.5h-43v30h14q31 0 45.5 11t18.5 30t4 54v152q0 99 68 114q-68 15 -68 114v152q0 35 -4 54t-18.5 30t-45.5 11h-14v30h43q69 0 101 -33.5t32 -118.5v-168q0 -34 10.5 -45z" />
    <glyph glyph-name="asciitilde" unicode="~" horiz-adv-x="385" 
d="M48 364.5q27 31.5 77 31.5q24 0 42 -6.5t46 -20.5q21 -11 37 -17t34 -6q24 0 40 14t21 36h20q-1 -50 -27.5 -80t-77.5 -30q-24 0 -42 6.5t-46 20.5q-21 11 -37 17t-34 6q-24 0 -40 -14t-21 -36h-20q1 47 28 78.5z" />
    <glyph glyph-name="uni00A0" unicode="&#xa0;" horiz-adv-x="214" 
 />
    <glyph glyph-name="exclamdown" unicode="&#xa1;" horiz-adv-x="180" 
d="M134.5 467.5q18.5 -18.5 18.5 -44.5t-18.5 -44.5t-44.5 -18.5t-44.5 18.5t-18.5 44.5t18.5 44.5t44.5 18.5t44.5 -18.5zM103 254q0 -90 10 -164t26 -158q15 -72 15 -99q0 -31 -18 -49t-46 -18t-46 18t-18 49q0 27 15 99q16 84 26 158t10 164h26z" />
    <glyph glyph-name="cent" unicode="&#xa2;" horiz-adv-x="463" 
d="M248 -14q-63 3 -113.5 34t-79.5 86t-29 126q0 73 31 130.5t81.5 91t109.5 40.5v100h34v-100q46 -1 80 -17.5t52.5 -42.5t18.5 -54q0 -25 -17 -41.5t-39 -16.5q-25 0 -38.5 16t-13.5 41q0 7 2.5 21t2.5 20q0 14 -9 25q-12 16 -39 21v-411l12 -1q48 0 80 27.5t53 78.5
l16 -6q-14 -69 -55.5 -113.5t-105.5 -53.5v-87h-34v86zM248 466q-29 -6 -56.5 -31.5t-44.5 -67.5t-17 -95q0 -78 30 -135t88 -76v405z" />
    <glyph glyph-name="sterling" unicode="&#xa3;" horiz-adv-x="496" 
d="M63.5 7.5q-24.5 21.5 -24.5 60.5q0 34 23.5 56t61.5 22q32 0 59 -16q0 63 -15.5 112.5t-52.5 135.5h-81v34h68q-20 52 -20 109q0 60 31.5 104t81 66.5t100.5 22.5q46 0 85 -15.5t62 -41.5t23 -57t-19 -49t-43 -18t-38 16.5t-14 41.5q0 11 4 29q1 5 2 11.5t1 13.5t-4 15
q-16 24 -60 24q-43 0 -73.5 -37t-30.5 -98q0 -36 6.5 -68t20.5 -69h121v-34h-112q14 -42 23 -93.5t9 -92.5q0 -47 -14 -94q54 -28 99 -28q100 0 124 122l16 -2q-9 -101 -41.5 -152.5t-99.5 -51.5q-36 0 -63.5 15t-59.5 44q-17 -27 -42 -43t-55 -16q-34 0 -58.5 21.5zM179 89
q-12 12 -28 19.5t-30 7.5q-21 0 -33 -13t-12 -32t12.5 -30.5t31.5 -11.5q44 0 59 60z" />
    <glyph glyph-name="currency" unicode="&#xa4;" horiz-adv-x="548" 
d="M274 58q-75 0 -133 44l-84 -84l-41 41l84 84q-44 58 -44 133t44 133l-84 84l41 41l84 -84q58 44 133 44t133 -44l84 84l41 -41l-84 -84q44 -58 44 -133t-44 -133l84 -84l-41 -41l-84 84q-58 -44 -133 -44zM413.5 358.5q-20.5 37.5 -57 59.5t-82.5 22t-82.5 -22t-57 -59.5
t-20.5 -82.5t20.5 -82.5t57 -59.5t82.5 -22t82.5 22t57 59.5t20.5 82.5t-20.5 82.5z" />
    <glyph glyph-name="yen" unicode="&#xa5;" horiz-adv-x="696" 
d="M214 22h10q78 0 78 88v93h-124v34h124v41l-31 55h-93v34h73l-119 209q-33 57 -55.5 79.5t-57.5 22.5h-10v22h318v-22h-26q-29 0 -44.5 -14t-15.5 -37q0 -21 13 -44l138 -244l127 247q14 27 14 47q0 21 -13.5 33t-38.5 12h-18v22h223v-22h-10q-34 0 -68 -28.5t-59 -76.5
l-106 -206h85v-34h-102l-16 -31v-65h118v-34h-118v-93q0 -88 78 -88h10v-22h-284v22z" />
    <glyph glyph-name="brokenbar" unicode="&#xa6;" horiz-adv-x="140" 
d="M50 700h40v-295h-40v295zM90 0h-40v295h40v-295z" />
    <glyph glyph-name="section" unicode="&#xa7;" horiz-adv-x="504" 
d="M161 -125q-36 17 -55 42.5t-19 49.5t14 37.5t33 13.5q18 0 31 -11.5t13 -31.5q0 -13 -3 -25t-3 -16q0 -23 29 -35q27 -11 61 -11q36 0 60 22.5t24 57.5q0 47 -41 82.5t-118 74.5q-73 37 -109.5 75t-36.5 87q0 36 18 62.5t46.5 41t57.5 16.5q-38 24 -62 62.5t-24 83.5
q0 46 22.5 82.5t63.5 57.5t96 21q46 0 82 -16.5t56 -42.5t20 -51q0 -24 -13 -37t-33 -13q-16 0 -29 12.5t-13 33.5q0 11 2.5 24t2.5 18q0 18 -27 31q-22 11 -54 11q-42 0 -68.5 -23t-26.5 -59q0 -46 42.5 -83.5t116.5 -73.5q71 -35 108.5 -73t37.5 -87q0 -51 -34 -84.5
t-87 -38.5q39 -26 62 -62t23 -82q0 -44 -24 -81t-65.5 -58t-90.5 -21q-50 0 -86 17zM373.5 199q19.5 17 19.5 43q0 44 -58 76l-97 54q-25 15 -60 15q-31 0 -50.5 -17.5t-19.5 -42.5q0 -47 61 -79l78 -42q45 -24 78 -24q29 0 48.5 17z" />
    <glyph glyph-name="dieresis" unicode="&#xa8;" horiz-adv-x="282" 
d="M15 642q15 15 37 15q21 0 36.5 -15t15.5 -37t-15.5 -37t-36.5 -15q-22 0 -37 15t-15 37t15 37zM193.5 642q15.5 15 36.5 15q22 0 37 -15t15 -37t-15 -37t-37 -15q-21 0 -36.5 15t-15.5 37t15.5 37z" />
    <glyph glyph-name="copyright" unicode="&#xa9;" horiz-adv-x="774" 
d="M206.5 33.5q-81.5 47.5 -129 130.5t-47.5 186t47.5 186t129 130.5t180.5 47.5t180.5 -47.5t129 -130.5t47.5 -186t-47.5 -186t-129 -130.5t-180.5 -47.5t-180.5 47.5zM545.5 63q72.5 43 115.5 118.5t43 168.5t-43 168.5t-115.5 118.5t-158.5 43t-158.5 -43t-115.5 -118.5
t-43 -168.5t43 -168.5t115.5 -118.5t158.5 -43t158.5 43zM291.5 146q-48.5 26 -79.5 78t-31 126q0 73 33 125.5t84.5 78.5t105.5 26q29 0 51.5 -7t48.5 -21q12 -6 19 -6q17 0 17 20v5h15v-153h-15q-10 66 -46 103t-89 37q-72 0 -107.5 -55.5t-35.5 -152.5q0 -98 38 -148
t109 -50q108 0 146 137l14 -5q-15 -73 -62.5 -118.5t-113.5 -45.5q-53 0 -101.5 26z" />
    <glyph glyph-name="ordfeminine" unicode="&#xaa;" horiz-adv-x="352" 
d="M322.5 370q-18.5 -20 -45.5 -20q-22 0 -39 14t-22 41l-13 -13q-25 -25 -46 -33.5t-46 -8.5q-38 0 -64.5 24.5t-26.5 64.5q0 39 27 66t78 41l90 24v50q0 31 -15.5 48t-42.5 17q-25 0 -41 -12t-16 -29q0 -5 3 -14t3 -15q0 -15 -9.5 -25.5t-25.5 -10.5q-14 0 -23.5 9.5
t-9.5 24.5t5 25q15 30 49 49t75 19q119 0 119 -103v-172q0 -13 6 -20.5t16 -7.5q21 0 26 27l10 -3q-3 -37 -21.5 -57zM166 534q-38 -15 -56.5 -36.5t-18.5 -47.5q0 -24 14 -41t41 -17q31 0 55 22l14 13v126z" />
    <glyph glyph-name="guillemotleft" unicode="&#xab;" horiz-adv-x="345" 
d="M10 298v24l160 155l16 -15l-103 -152l103 -152l-16 -15zM157 298v24l160 155l16 -15l-103 -152l103 -152l-16 -15z" />
    <glyph glyph-name="logicalnot" unicode="&#xac;" horiz-adv-x="427" 
d="M407 366v-188h-34v154h-358v34h392z" />
    <glyph glyph-name="uni00AD" unicode="&#xad;" horiz-adv-x="377" 
d="M359 312v-34h-341v34h341z" />
    <glyph glyph-name="registered" unicode="&#xae;" horiz-adv-x="774" 
d="M206.5 33.5q-81.5 47.5 -129 130.5t-47.5 186t47.5 186t129 130.5t180.5 47.5t180.5 -47.5t129 -130.5t47.5 -186t-47.5 -186t-129 -130.5t-180.5 -47.5t-180.5 47.5zM545.5 63q72.5 43 115.5 118.5t43 168.5t-43 168.5t-115.5 118.5t-158.5 43t-158.5 -43t-115.5 -118.5
t-43 -168.5t43 -168.5t115.5 -118.5t158.5 -43t158.5 43zM205 140h6q50 0 50 56v308q0 56 -50 56h-6v14h179q79 0 125 -30.5t46 -89.5q0 -42 -27.5 -73.5t-73.5 -42.5l63 -155q13 -30 52 -43v-14h-91q-16 5 -23 20l-77 183h-48v-133q0 -56 50 -56h6v-14h-181v14zM356 351
q67 0 98.5 28.5t31.5 76.5q0 41 -23.5 68.5t-61.5 27.5h-26q-25 0 -35 -10.5t-10 -37.5v-153h26z" />
    <glyph glyph-name="macron" unicode="&#xaf;" horiz-adv-x="250" 
d="M250 632v-34h-250v34h250z" />
    <glyph glyph-name="degree" unicode="&#xb0;" horiz-adv-x="302" 
d="M65 678q35 36 86 36t86 -36t35 -87t-35 -87t-86 -36t-86 36t-35 87t35 87zM94.5 532.5q21.5 -23.5 56.5 -23.5t56.5 23.5t21.5 58.5t-21.5 58.5t-56.5 23.5t-56.5 -23.5t-21.5 -58.5t21.5 -58.5z" />
    <glyph glyph-name="plusminus" unicode="&#xb1;" horiz-adv-x="432" 
d="M233 352h184v-34h-184v-184h-34v184h-184v34h184v184h34v-184zM417 34v-34h-402v34h402z" />
    <glyph glyph-name="uni00B2" unicode="&#xb2;" horiz-adv-x="307" 
d="M223.5 575q16.5 12 23.5 43h12l-9 -97h-209v7q82 76 118.5 136.5t36.5 104.5q0 35 -15.5 52.5t-44.5 17.5q-26 0 -48 -15.5t-32 -40.5l-8 3q11 43 39 71t71 28q42 0 68.5 -24t26.5 -68q0 -52 -35.5 -103t-117.5 -127h76q31 0 47.5 12z" />
    <glyph glyph-name="uni00B3" unicode="&#xb3;" horiz-adv-x="304" 
d="M74.5 528.5q-24.5 13.5 -24.5 34.5q0 12 8 21t21 9q24 0 37 -32q12 -26 36 -26q25 0 42.5 21t17.5 56q0 40 -27.5 62.5t-67.5 22.5v9q34 10 53.5 32t19.5 50t-16 44.5t-44 16.5q-24 0 -43.5 -15.5t-26.5 -42.5l-8 2q5 40 32.5 66t66.5 26t62.5 -20t23.5 -52
q0 -26 -15 -48t-34 -35q30 -11 52 -35.5t22 -59.5q0 -54 -35.5 -87t-84.5 -33q-43 0 -67.5 13.5z" />
    <glyph glyph-name="acute" unicode="&#xb4;" horiz-adv-x="136" 
d="M103 718q14 0 23.5 -9t9.5 -23q0 -17 -14 -32l-96 -104h-26l66 141q13 27 37 27z" />
    <glyph glyph-name="uni00B5" unicode="&#xb5;" horiz-adv-x="579" 
d="M66.5 -182q-14.5 14 -14.5 36q0 16 3 27.5t11 32.5q10 24 15.5 47.5t5.5 60.5v362q0 41 -13.5 57.5t-46.5 16.5h-10v22l164 14v-341q0 -50 23.5 -75.5t65.5 -25.5q35 0 66.5 19.5t61.5 63.5v249q0 41 -13.5 57.5t-46.5 16.5h-10v22l164 14v-398q0 -41 13.5 -57.5
t46.5 -16.5h10v-22l-164 -14v113q-32 -52 -75 -82.5t-92 -30.5q-83 0 -120 60v-24q0 -37 5.5 -60.5t15.5 -47.5q8 -21 11 -32.5t3 -27.5q0 -22 -14.5 -36t-32.5 -14t-32.5 14z" />
    <glyph glyph-name="paragraph" unicode="&#xb6;" horiz-adv-x="525" 
d="M187 -88h10q78 0 78 88v364h-68q-51 0 -91.5 22.5t-63 61t-22.5 84.5t22.5 84.5t63 61t91.5 22.5h302v-22h-10q-78 0 -78 -88v-590q0 -88 78 -88h10v-22h-122v755q0 12 -4.5 16.5t-14.5 4.5h-40q-10 0 -14.5 -4.5t-4.5 -16.5v-755h-122v22z" />
    <glyph glyph-name="periodcentered" unicode="&#xb7;" horiz-adv-x="178" 
d="M44.5 394.5q18.5 18.5 44.5 18.5t44.5 -18.5t18.5 -44.5t-18.5 -44.5t-44.5 -18.5t-44.5 18.5t-18.5 44.5t18.5 44.5z" />
    <glyph glyph-name="cedilla" unicode="&#xb8;" horiz-adv-x="168" 
d="M30 -193.5q-20 14.5 -30 34.5l9 9q23 -31 54 -31q23 0 37.5 15t14.5 43q0 23 -15 38t-36 15q-17 0 -27.5 -6t-19.5 -15l-7 4l49 105h30l-36 -64q21 8 41 8q29 0 51.5 -21t22.5 -60q0 -42 -26 -65.5t-64 -23.5q-28 0 -48 14.5z" />
    <glyph glyph-name="uni00B9" unicode="&#xb9;" horiz-adv-x="240" 
d="M85.5 834q-9.5 10 -29.5 10h-4v11l89 26h5v-304q0 -44 39 -44h5v-12h-140v12h5q40 0 40 44v222q0 25 -9.5 35z" />
    <glyph glyph-name="ordmasculine" unicode="&#xba;" horiz-adv-x="377" 
d="M40 616.5q22 42.5 60.5 66t85.5 23.5q50 0 89 -21.5t61.5 -60t22.5 -88.5q0 -53 -23.5 -95.5t-62.5 -66.5t-84 -24q-52 0 -91 22.5t-59.5 61.5t-20.5 85q0 55 22 97.5zM121 419.5q26 -47.5 71 -47.5q41 0 65 37t24 104q0 86 -25.5 128.5t-70.5 42.5q-40 0 -65 -37.5
t-25 -104.5q0 -75 26 -122.5z" />
    <glyph glyph-name="guillemotright" unicode="&#xbb;" horiz-adv-x="345" 
d="M12 158l103 152l-103 152l16 15l160 -155v-24l-160 -155zM159 158l103 152l-103 152l16 15l160 -155v-24l-160 -155z" />
    <glyph glyph-name="onequarter" unicode="&#xbc;" horiz-adv-x="652" 
d="M85.5 663q-9.5 10 -29.5 10h-4v11l89 26h5v-304q0 -44 39 -44h5v-12h-140v12h5q40 0 40 44v222q0 25 -9.5 35zM541 679l-407 -679l-34 21l407 679zM470 12h5q40 0 40 44v38h-142v19l181 251h15v-250h44v-20h-44v-38q0 -44 40 -44h5v-12h-144v12zM515 114v162l-117 -162
h117z" />
    <glyph glyph-name="onehalf" unicode="&#xbd;" horiz-adv-x="698" 
d="M85.5 663q-9.5 10 -29.5 10h-4v11l89 26h5v-304q0 -44 39 -44h5v-12h-140v12h5q40 0 40 44v222q0 25 -9.5 35zM541 679l-407 -679l-34 21l407 679zM614.5 54q16.5 12 23.5 43h12l-9 -97h-209v7q82 76 118.5 136.5t36.5 104.5q0 35 -15.5 52.5t-44.5 17.5q-26 0 -48 -15.5
t-32 -40.5l-8 3q11 43 39 71t71 28q42 0 68.5 -24t26.5 -68q0 -52 -35.5 -103t-117.5 -127h76q31 0 47.5 12z" />
    <glyph glyph-name="threequarters" unicode="&#xbe;" horiz-adv-x="698" 
d="M74.5 357.5q-24.5 13.5 -24.5 34.5q0 12 8 21t21 9q24 0 37 -32q12 -26 36 -26q25 0 42.5 21t17.5 56q0 40 -27.5 62.5t-67.5 22.5v9q34 10 53.5 32t19.5 50t-16 44.5t-44 16.5q-24 0 -43.5 -15.5t-26.5 -42.5l-8 2q5 40 32.5 66t66.5 26t62.5 -20t23.5 -52
q0 -26 -15 -48t-34 -35q30 -11 52 -35.5t22 -59.5q0 -54 -35.5 -87t-84.5 -33q-43 0 -67.5 13.5zM587 679l-407 -679l-34 21l407 679zM516 12h5q40 0 40 44v38h-142v19l181 251h15v-250h44v-20h-44v-38q0 -44 40 -44h5v-12h-144v12zM561 114v162l-117 -162h117z" />
    <glyph glyph-name="questiondown" unicode="&#xbf;" horiz-adv-x="456" 
d="M291.5 467.5q18.5 -18.5 18.5 -44.5t-18.5 -44.5t-44.5 -18.5t-44.5 18.5t-18.5 44.5t18.5 44.5t44.5 18.5t44.5 -18.5zM262 169q-75 -33 -104.5 -80.5t-29.5 -131.5q0 -52 18.5 -89.5t47.5 -56t61 -18.5q38 0 63 20.5t25 53.5q0 9 -6 25q-6 20 -6 30q0 23 15.5 37.5
t38.5 14.5q24 0 40.5 -16t16.5 -46q0 -31 -23 -65.5t-68.5 -57.5t-110.5 -23q-67 0 -116.5 24.5t-76.5 69t-27 102.5q0 175 212 227v79h30v-99z" />
    <glyph glyph-name="Agrave" unicode="&#xc0;" horiz-adv-x="780" 
d="M8 22h10q38 0 75 35t61 95l225 562h10l241 -568q25 -59 57 -91.5t75 -32.5h10v-22h-315v22h10q26 0 44.5 15t18.5 37q0 13 -4.5 25.5t-13.5 33.5l-36 80h-260l-34 -85q-9 -23 -9 -42q0 -28 17.5 -46t46.5 -18h10v-22h-239v22zM462 247l-119 285l-113 -285h232zM388 764
h-26l-96 104q-14 15 -14 32q0 14 9.5 23t23.5 9q24 0 37 -27z" />
    <glyph glyph-name="Aacute" unicode="&#xc1;" horiz-adv-x="780" 
d="M8 22h10q38 0 75 35t61 95l225 562h10l241 -568q25 -59 57 -91.5t75 -32.5h10v-22h-315v22h10q26 0 44.5 15t18.5 37q0 13 -4.5 25.5t-13.5 33.5l-36 80h-260l-34 -85q-9 -23 -9 -42q0 -28 17.5 -46t46.5 -18h10v-22h-239v22zM462 247l-119 285l-113 -285h232zM484 932
q14 0 23.5 -9t9.5 -23q0 -17 -14 -32l-96 -104h-26l66 141q13 27 37 27z" />
    <glyph glyph-name="Acircumflex" unicode="&#xc2;" horiz-adv-x="780" 
d="M8 22h10q38 0 75 35t61 95l225 562h10l241 -568q25 -59 57 -91.5t75 -32.5h10v-22h-315v22h10q26 0 44.5 15t18.5 37q0 13 -4.5 25.5t-13.5 33.5l-36 80h-260l-34 -85q-9 -23 -9 -42q0 -28 17.5 -46t46.5 -18h10v-22h-239v22zM462 247l-119 285l-113 -285h232zM520 764
l-136 76l-136 -76h-30l126 134h80l126 -134h-30z" />
    <glyph glyph-name="Atilde" unicode="&#xc3;" horiz-adv-x="780" 
d="M8 22h10q38 0 75 35t61 95l225 562h10l241 -568q25 -59 57 -91.5t75 -32.5h10v-22h-315v22h10q26 0 44.5 15t18.5 37q0 13 -4.5 25.5t-13.5 33.5l-36 80h-260l-34 -85q-9 -23 -9 -42q0 -28 17.5 -46t46.5 -18h10v-22h-239v22zM462 247l-119 285l-113 -285h232z
M256.5 842.5q25.5 30.5 68.5 30.5q19 0 35 -6.5t39 -20.5q19 -11 33 -17t29 -6q25 0 39 14t19 36h18q-1 -48 -26.5 -78.5t-68.5 -30.5q-19 0 -35 6.5t-39 20.5q-19 11 -33 17t-29 6q-25 0 -39 -14t-19 -36h-18q1 48 26.5 78.5z" />
    <glyph glyph-name="Adieresis" unicode="&#xc4;" horiz-adv-x="780" 
d="M8 22h10q38 0 75 35t61 95l225 562h10l241 -568q25 -59 57 -91.5t75 -32.5h10v-22h-315v22h10q26 0 44.5 15t18.5 37q0 13 -4.5 25.5t-13.5 33.5l-36 80h-260l-34 -85q-9 -23 -9 -42q0 -28 17.5 -46t46.5 -18h10v-22h-239v22zM462 247l-119 285l-113 -285h232zM258 862
q15 15 37 15q21 0 36.5 -15t15.5 -37t-15.5 -37t-36.5 -15q-22 0 -37 15t-15 37t15 37zM436.5 862q15.5 15 36.5 15q22 0 37 -15t15 -37t-15 -37t-37 -15q-21 0 -36.5 15t-15.5 37t15.5 37z" />
    <glyph glyph-name="Aring" unicode="&#xc5;" horiz-adv-x="780" 
d="M8 22h10q38 0 75 35t61 95l225 562h10l241 -568q25 -59 57 -91.5t75 -32.5h10v-22h-315v22h10q26 0 44.5 15t18.5 37q0 13 -4.5 25.5t-13.5 33.5l-36 80h-260l-34 -85q-9 -23 -9 -42q0 -28 17.5 -46t46.5 -18h10v-22h-239v22zM462 247l-119 285l-113 -285h232zM325 899.5
q24 23.5 59 23.5t59 -23.5t24 -57.5t-24 -57.5t-59 -23.5t-59 23.5t-24 57.5t24 57.5zM346.5 804.5q15.5 -15.5 37.5 -15.5q23 0 38 15.5t15 37.5q0 23 -15 38t-38 15q-22 0 -37.5 -15t-15.5 -38q0 -22 15.5 -37.5z" />
    <glyph glyph-name="AE" unicode="&#xc6;" horiz-adv-x="971" 
d="M8 22h6q36 0 74 36t75 94l270 430q14 24 14 43q0 24 -18 38.5t-49 14.5h-22v22h577v-177h-22q-5 76 -38.5 109.5t-111.5 33.5h-89q-32 0 -46 -14t-14 -56v-227h117q51 0 78.5 32.5t27.5 87.5h22v-274h-22q0 55 -27.5 87.5t-78.5 32.5h-117v-231q0 -42 14 -56t46 -14h72
q84 0 128.5 34.5t61.5 118.5h22l-14 -187h-526v22h10q78 0 78 88v103h-262l-40 -62q-14 -23 -18 -37.5t-4 -27.5q0 -28 17.5 -46t46.5 -18h10v-22h-248v22zM506 247v386l-242 -386h242z" />
    <glyph glyph-name="Ccedilla" unicode="&#xc7;" horiz-adv-x="639" 
d="M338 -14l-18 -32q21 8 41 8q29 0 51.5 -21t22.5 -60q0 -42 -26 -65.5t-64 -23.5q-28 0 -48 14.5t-30 34.5l9 9q23 -31 54 -31q23 0 37.5 15t14.5 43q0 23 -15 38t-36 15q-17 0 -27.5 -6t-19.5 -15l-7 4l35 76q-75 10 -139 55t-103.5 123t-39.5 183q0 114 50 196.5
t128.5 125t161.5 42.5q44 0 77.5 -11t76.5 -34q18 -9 29 -9q13 0 19.5 9.5t6.5 23.5v7h23v-228h-23q-17 97 -72.5 152.5t-134.5 55.5q-110 0 -163 -88.5t-53 -241.5t56 -234.5t164 -81.5q162 0 232 212l19 -7q-28 -122 -100.5 -187.5t-174.5 -65.5h-14z" />
    <glyph glyph-name="Egrave" unicode="&#xc8;" horiz-adv-x="572" 
d="M16 22h10q78 0 78 88v480q0 88 -78 88h-10v22h517v-177h-22q-5 76 -38.5 109.5t-111.5 33.5h-89q-32 0 -46 -14t-14 -56v-227h117q51 0 78.5 32.5t27.5 87.5h22v-274h-22q0 55 -27.5 87.5t-78.5 32.5h-117v-231q0 -42 14 -56t46 -14h72q84 0 128.5 34.5t61.5 118.5h22
l-14 -187h-526v22zM289 764h-26l-96 104q-14 15 -14 32q0 14 9.5 23t23.5 9q24 0 37 -27z" />
    <glyph glyph-name="Eacute" unicode="&#xc9;" horiz-adv-x="572" 
d="M16 22h10q78 0 78 88v480q0 88 -78 88h-10v22h517v-177h-22q-5 76 -38.5 109.5t-111.5 33.5h-89q-32 0 -46 -14t-14 -56v-227h117q51 0 78.5 32.5t27.5 87.5h22v-274h-22q0 55 -27.5 87.5t-78.5 32.5h-117v-231q0 -42 14 -56t46 -14h72q84 0 128.5 34.5t61.5 118.5h22
l-14 -187h-526v22zM385 932q14 0 23.5 -9t9.5 -23q0 -17 -14 -32l-96 -104h-26l66 141q13 27 37 27z" />
    <glyph glyph-name="Ecircumflex" unicode="&#xca;" horiz-adv-x="572" 
d="M16 22h10q78 0 78 88v480q0 88 -78 88h-10v22h517v-177h-22q-5 76 -38.5 109.5t-111.5 33.5h-89q-32 0 -46 -14t-14 -56v-227h117q51 0 78.5 32.5t27.5 87.5h22v-274h-22q0 55 -27.5 87.5t-78.5 32.5h-117v-231q0 -42 14 -56t46 -14h72q84 0 128.5 34.5t61.5 118.5h22
l-14 -187h-526v22zM421 764l-136 76l-136 -76h-30l126 134h80l126 -134h-30z" />
    <glyph glyph-name="Edieresis" unicode="&#xcb;" horiz-adv-x="572" 
d="M16 22h10q78 0 78 88v480q0 88 -78 88h-10v22h517v-177h-22q-5 76 -38.5 109.5t-111.5 33.5h-89q-32 0 -46 -14t-14 -56v-227h117q51 0 78.5 32.5t27.5 87.5h22v-274h-22q0 55 -27.5 87.5t-78.5 32.5h-117v-231q0 -42 14 -56t46 -14h72q84 0 128.5 34.5t61.5 118.5h22
l-14 -187h-526v22zM159 862q15 15 37 15q21 0 36.5 -15t15.5 -37t-15.5 -37t-36.5 -15q-22 0 -37 15t-15 37t15 37zM337.5 862q15.5 15 36.5 15q22 0 37 -15t15 -37t-15 -37t-37 -15q-21 0 -36.5 15t-15.5 37t15.5 37z" />
    <glyph glyph-name="Igrave" unicode="&#xcc;" horiz-adv-x="316" 
d="M16 22h10q78 0 78 88v480q0 88 -78 88h-10v22h284v-22h-10q-78 0 -78 -88v-480q0 -88 78 -88h10v-22h-284v22zM162 764h-26l-96 104q-14 15 -14 32q0 14 9.5 23t23.5 9q24 0 37 -27z" />
    <glyph glyph-name="Iacute" unicode="&#xcd;" horiz-adv-x="316" 
d="M16 22h10q78 0 78 88v480q0 88 -78 88h-10v22h284v-22h-10q-78 0 -78 -88v-480q0 -88 78 -88h10v-22h-284v22zM258 932q14 0 23.5 -9t9.5 -23q0 -17 -14 -32l-96 -104h-26l66 141q13 27 37 27z" />
    <glyph glyph-name="Icircumflex" unicode="&#xce;" horiz-adv-x="316" 
d="M16 22h10q78 0 78 88v480q0 88 -78 88h-10v22h284v-22h-10q-78 0 -78 -88v-480q0 -88 78 -88h10v-22h-284v22zM294 764l-136 76l-136 -76h-30l126 134h80l126 -134h-30z" />
    <glyph glyph-name="Idieresis" unicode="&#xcf;" horiz-adv-x="316" 
d="M16 22h10q78 0 78 88v480q0 88 -78 88h-10v22h284v-22h-10q-78 0 -78 -88v-480q0 -88 78 -88h10v-22h-284v22zM32 862q15 15 37 15q21 0 36.5 -15t15.5 -37t-15.5 -37t-36.5 -15q-22 0 -37 15t-15 37t15 37zM210.5 862q15.5 15 36.5 15q22 0 37 -15t15 -37t-15 -37
t-37 -15q-21 0 -36.5 15t-15.5 37t15.5 37z" />
    <glyph glyph-name="Eth" unicode="&#xd0;" horiz-adv-x="700" 
d="M487.5 662.5q82.5 -37.5 132.5 -116t50 -196.5t-50 -196.5t-132.5 -116t-181.5 -37.5h-290v22h10q78 0 78 88v225h-88v30h88v225q0 88 -78 88h-10v22h290q99 0 181.5 -37.5zM484 119.5q60 85.5 60 230.5t-60.5 230.5t-177.5 85.5h-34q-32 0 -46 -14t-14 -56v-231h101v-30
h-101v-231q0 -42 14 -56t46 -14h36q116 0 176 85.5z" />
    <glyph glyph-name="Ntilde" unicode="&#xd1;" horiz-adv-x="711" 
d="M16 22h10q78 0 78 88v480q0 88 -78 88h-10v22h142l415 -499v389q0 88 -78 88h-10v22h210v-22h-10q-78 0 -78 -88v-596h-10l-459 553v-437q0 -88 78 -88h10v-22h-210v22zM228.5 842.5q25.5 30.5 68.5 30.5q19 0 35 -6.5t39 -20.5q19 -11 33 -17t29 -6q25 0 39 14t19 36h18
q-1 -48 -26.5 -78.5t-68.5 -30.5q-19 0 -35 6.5t-39 20.5q-19 11 -33 17t-29 6q-25 0 -39 -14t-19 -36h-18q1 48 26.5 78.5z" />
    <glyph glyph-name="Ograve" unicode="&#xd2;" horiz-adv-x="747" 
d="M210.5 28.5q-79.5 42.5 -130 125.5t-50.5 196t50.5 196t130 125.5t162.5 42.5t162.5 -42.5t130 -125.5t50.5 -196t-50.5 -196t-130 -125.5t-162.5 -42.5t-162.5 42.5zM534 105q56 85 56 245t-56 245t-161 85t-161 -85t-56 -245t56 -245t161 -85t161 85zM377 764h-26
l-96 104q-14 15 -14 32q0 14 9.5 23t23.5 9q24 0 37 -27z" />
    <glyph glyph-name="Oacute" unicode="&#xd3;" horiz-adv-x="747" 
d="M210.5 28.5q-79.5 42.5 -130 125.5t-50.5 196t50.5 196t130 125.5t162.5 42.5t162.5 -42.5t130 -125.5t50.5 -196t-50.5 -196t-130 -125.5t-162.5 -42.5t-162.5 42.5zM534 105q56 85 56 245t-56 245t-161 85t-161 -85t-56 -245t56 -245t161 -85t161 85zM473 932
q14 0 23.5 -9t9.5 -23q0 -17 -14 -32l-96 -104h-26l66 141q13 27 37 27z" />
    <glyph glyph-name="Ocircumflex" unicode="&#xd4;" horiz-adv-x="747" 
d="M210.5 28.5q-79.5 42.5 -130 125.5t-50.5 196t50.5 196t130 125.5t162.5 42.5t162.5 -42.5t130 -125.5t50.5 -196t-50.5 -196t-130 -125.5t-162.5 -42.5t-162.5 42.5zM534 105q56 85 56 245t-56 245t-161 85t-161 -85t-56 -245t56 -245t161 -85t161 85zM509 764l-136 76
l-136 -76h-30l126 134h80l126 -134h-30z" />
    <glyph glyph-name="Otilde" unicode="&#xd5;" horiz-adv-x="747" 
d="M210.5 28.5q-79.5 42.5 -130 125.5t-50.5 196t50.5 196t130 125.5t162.5 42.5t162.5 -42.5t130 -125.5t50.5 -196t-50.5 -196t-130 -125.5t-162.5 -42.5t-162.5 42.5zM534 105q56 85 56 245t-56 245t-161 85t-161 -85t-56 -245t56 -245t161 -85t161 85zM245.5 842.5
q25.5 30.5 68.5 30.5q19 0 35 -6.5t39 -20.5q19 -11 33 -17t29 -6q25 0 39 14t19 36h18q-1 -48 -26.5 -78.5t-68.5 -30.5q-19 0 -35 6.5t-39 20.5q-19 11 -33 17t-29 6q-25 0 -39 -14t-19 -36h-18q1 48 26.5 78.5z" />
    <glyph glyph-name="Odieresis" unicode="&#xd6;" horiz-adv-x="747" 
d="M210.5 28.5q-79.5 42.5 -130 125.5t-50.5 196t50.5 196t130 125.5t162.5 42.5t162.5 -42.5t130 -125.5t50.5 -196t-50.5 -196t-130 -125.5t-162.5 -42.5t-162.5 42.5zM534 105q56 85 56 245t-56 245t-161 85t-161 -85t-56 -245t56 -245t161 -85t161 85zM247 862
q15 15 37 15q21 0 36.5 -15t15.5 -37t-15.5 -37t-36.5 -15q-22 0 -37 15t-15 37t15 37zM425.5 862q15.5 15 36.5 15q22 0 37 -15t15 -37t-15 -37t-37 -15q-21 0 -36.5 15t-15.5 37t15.5 37z" />
    <glyph glyph-name="multiply" unicode="&#xd7;" horiz-adv-x="388" 
d="M194 359l130 130l24 -24l-130 -130l130 -130l-24 -24l-130 130l-130 -130l-24 24l130 130l-130 130l24 24z" />
    <glyph glyph-name="Oslash" unicode="&#xd8;" horiz-adv-x="747" 
d="M681 516.5q35 -72.5 35 -166.5q0 -113 -50.5 -196t-130 -125.5t-162.5 -42.5q-46 0 -92 13.5t-88 39.5l-35 -53l-34 21l36 55q-60 49 -95 121.5t-35 166.5q0 113 50.5 196t130 125.5t162.5 42.5q46 0 92 -13.5t88 -39.5l35 53l34 -21l-36 -55q60 -49 95 -121.5zM201 124
l320 488q-54 68 -148 68q-105 0 -161 -85t-56 -245q0 -143 45 -226zM534 105q56 85 56 245q0 144 -45 226l-320 -488q54 -68 148 -68q105 0 161 85z" />
    <glyph glyph-name="Ugrave" unicode="&#xd9;" horiz-adv-x="711" 
d="M180 54q-76 68 -76 205v331q0 88 -78 88h-10v22h284v-22h-10q-78 0 -78 -88v-367q0 -187 184 -187q87 0 132 50.5t45 143.5v360q0 88 -78 88h-10v22h210v-22h-10q-78 0 -78 -88v-362q0 -111 -61 -176.5t-170 -65.5q-120 0 -196 68zM383 764h-26l-96 104q-14 15 -14 32
q0 14 9.5 23t23.5 9q24 0 37 -27z" />
    <glyph glyph-name="Uacute" unicode="&#xda;" horiz-adv-x="711" 
d="M180 54q-76 68 -76 205v331q0 88 -78 88h-10v22h284v-22h-10q-78 0 -78 -88v-367q0 -187 184 -187q87 0 132 50.5t45 143.5v360q0 88 -78 88h-10v22h210v-22h-10q-78 0 -78 -88v-362q0 -111 -61 -176.5t-170 -65.5q-120 0 -196 68zM479 932q14 0 23.5 -9t9.5 -23
q0 -17 -14 -32l-96 -104h-26l66 141q13 27 37 27z" />
    <glyph glyph-name="Ucircumflex" unicode="&#xdb;" horiz-adv-x="711" 
d="M180 54q-76 68 -76 205v331q0 88 -78 88h-10v22h284v-22h-10q-78 0 -78 -88v-367q0 -187 184 -187q87 0 132 50.5t45 143.5v360q0 88 -78 88h-10v22h210v-22h-10q-78 0 -78 -88v-362q0 -111 -61 -176.5t-170 -65.5q-120 0 -196 68zM515 764l-136 76l-136 -76h-30l126 134
h80l126 -134h-30z" />
    <glyph glyph-name="Udieresis" unicode="&#xdc;" horiz-adv-x="711" 
d="M180 54q-76 68 -76 205v331q0 88 -78 88h-10v22h284v-22h-10q-78 0 -78 -88v-367q0 -187 184 -187q87 0 132 50.5t45 143.5v360q0 88 -78 88h-10v22h210v-22h-10q-78 0 -78 -88v-362q0 -111 -61 -176.5t-170 -65.5q-120 0 -196 68zM253 862q15 15 37 15q21 0 36.5 -15
t15.5 -37t-15.5 -37t-36.5 -15q-22 0 -37 15t-15 37t15 37zM431.5 862q15.5 15 36.5 15q22 0 37 -15t15 -37t-15 -37t-37 -15q-21 0 -36.5 15t-15.5 37t15.5 37z" />
    <glyph glyph-name="Yacute" unicode="&#xdd;" horiz-adv-x="708" 
d="M220 22h10q78 0 78 88v168l-176 298q-34 57 -56 79.5t-57 22.5h-10v22h318v-22h-26q-29 0 -44.5 -14t-15.5 -37t13 -44l144 -244l133 247q14 25 14 47q0 21 -13.5 33t-38.5 12h-18v22h223v-22h-10q-34 0 -67.5 -28t-59.5 -77l-145 -271v-192q0 -88 78 -88h10v-22h-284v22
zM480 932q14 0 23.5 -9t9.5 -23q0 -17 -14 -32l-96 -104h-26l66 141q13 27 37 27z" />
    <glyph glyph-name="Thorn" unicode="&#xde;" horiz-adv-x="600" 
d="M16 22h10q78 0 78 88v480q0 88 -78 88h-10v22h284v-22h-10q-78 0 -78 -88v-39h97q124 0 202.5 -51t78.5 -148q0 -64 -39.5 -108.5t-105 -66.5t-142.5 -22h-91v-45q0 -88 78 -88h10v-22h-284v22zM292 189q93 0 141.5 45t48.5 124q0 78 -49.5 118.5t-148.5 40.5
q-37 0 -54.5 -14.5t-17.5 -55.5v-258h80z" />
    <glyph glyph-name="germandbls" unicode="&#xdf;" horiz-adv-x="521" 
d="M449 337q49 -55 49 -131q0 -70 -27.5 -118t-71.5 -72t-94 -24q-45 0 -75 12l8 21q18 -7 40 -7q46 0 80 45t34 138q0 86 -32 133t-83 63v20q45 19 70.5 54t25.5 85q0 61 -26.5 94.5t-65.5 33.5q-47 0 -71 -38.5t-24 -112.5v-533h-175v22h10q33 0 46.5 16.5t13.5 57.5v411
q0 99 53.5 153t146.5 54q55 0 97.5 -19.5t66.5 -53.5t24 -76q0 -55 -39.5 -95t-101.5 -59q72 -19 121 -74z" />
    <glyph glyph-name="agrave" unicode="&#xe0;" horiz-adv-x="497" 
d="M456.5 14.5q-24.5 -28.5 -63.5 -28.5q-32 0 -54.5 20t-29.5 59l-18 -18q-37 -37 -67.5 -49t-66.5 -12q-54 0 -91.5 34.5t-37.5 92.5q0 55 39 94t112 59l129 34v68q0 46 -23 71t-63 25q-36 0 -59.5 -17.5t-23.5 -42.5q0 -6 4 -19t4 -21q0 -22 -13 -36t-35 -14
q-20 0 -33 13.5t-13 34.5q0 20 8 36q21 42 69 69t105 27q167 0 167 -144v-249q0 -19 8.5 -30t22.5 -11q31 0 39 40l13 -4q-4 -53 -28.5 -81.5zM236 249q-114 -43 -114 -122q0 -35 21 -59.5t60 -24.5q50 0 84 32l21 20v181zM223 550l-96 104q-14 15 -14 32q0 14 9.5 23
t23.5 9q24 0 37 -27l66 -141h-26z" />
    <glyph glyph-name="aacute" unicode="&#xe1;" horiz-adv-x="497" 
d="M456.5 14.5q-24.5 -28.5 -63.5 -28.5q-32 0 -54.5 20t-29.5 59l-18 -18q-37 -37 -67.5 -49t-66.5 -12q-54 0 -91.5 34.5t-37.5 92.5q0 55 39 94t112 59l129 34v68q0 46 -23 71t-63 25q-36 0 -59.5 -17.5t-23.5 -42.5q0 -6 4 -19t4 -21q0 -22 -13 -36t-35 -14
q-20 0 -33 13.5t-13 34.5q0 20 8 36q21 42 69 69t105 27q167 0 167 -144v-249q0 -19 8.5 -30t22.5 -11q31 0 39 40l13 -4q-4 -53 -28.5 -81.5zM236 249q-114 -43 -114 -122q0 -35 21 -59.5t60 -24.5q50 0 84 32l21 20v181zM324 718q14 0 23.5 -9t9.5 -23q0 -17 -14 -32
l-96 -104h-26l66 141q13 27 37 27z" />
    <glyph glyph-name="acircumflex" unicode="&#xe2;" horiz-adv-x="497" 
d="M456.5 14.5q-24.5 -28.5 -63.5 -28.5q-32 0 -54.5 20t-29.5 59l-18 -18q-37 -37 -67.5 -49t-66.5 -12q-54 0 -91.5 34.5t-37.5 92.5q0 55 39 94t112 59l129 34v68q0 46 -23 71t-63 25q-36 0 -59.5 -17.5t-23.5 -42.5q0 -6 4 -19t4 -21q0 -22 -13 -36t-35 -14
q-20 0 -33 13.5t-13 34.5q0 20 8 36q21 42 69 69t105 27q167 0 167 -144v-249q0 -19 8.5 -30t22.5 -11q31 0 39 40l13 -4q-4 -53 -28.5 -81.5zM236 249q-114 -43 -114 -122q0 -35 21 -59.5t60 -24.5q50 0 84 32l21 20v181zM343 550l-109 95l-109 -95h-30l99 150h80l99 -150
h-30z" />
    <glyph glyph-name="atilde" unicode="&#xe3;" horiz-adv-x="497" 
d="M456.5 14.5q-24.5 -28.5 -63.5 -28.5q-32 0 -54.5 20t-29.5 59l-18 -18q-37 -37 -67.5 -49t-66.5 -12q-54 0 -91.5 34.5t-37.5 92.5q0 55 39 94t112 59l129 34v68q0 46 -23 71t-63 25q-36 0 -59.5 -17.5t-23.5 -42.5q0 -6 4 -19t4 -21q0 -22 -13 -36t-35 -14
q-20 0 -33 13.5t-13 34.5q0 20 8 36q21 42 69 69t105 27q167 0 167 -144v-249q0 -19 8.5 -30t22.5 -11q31 0 39 40l13 -4q-4 -53 -28.5 -81.5zM236 249q-114 -43 -114 -122q0 -35 21 -59.5t60 -24.5q50 0 84 32l21 20v181zM107.5 628.5q25.5 30.5 68.5 30.5q19 0 35 -6.5
t39 -20.5q19 -11 33 -17t29 -6q25 0 39 14t19 36h18q-1 -48 -26.5 -78.5t-68.5 -30.5q-19 0 -35 6.5t-39 20.5q-19 11 -33 17t-29 6q-25 0 -39 -14t-19 -36h-18q1 48 26.5 78.5z" />
    <glyph glyph-name="adieresis" unicode="&#xe4;" horiz-adv-x="497" 
d="M456.5 14.5q-24.5 -28.5 -63.5 -28.5q-32 0 -54.5 20t-29.5 59l-18 -18q-37 -37 -67.5 -49t-66.5 -12q-54 0 -91.5 34.5t-37.5 92.5q0 55 39 94t112 59l129 34v68q0 46 -23 71t-63 25q-36 0 -59.5 -17.5t-23.5 -42.5q0 -6 4 -19t4 -21q0 -22 -13 -36t-35 -14
q-20 0 -33 13.5t-13 34.5q0 20 8 36q21 42 69 69t105 27q167 0 167 -144v-249q0 -19 8.5 -30t22.5 -11q31 0 39 40l13 -4q-4 -53 -28.5 -81.5zM236 249q-114 -43 -114 -122q0 -35 21 -59.5t60 -24.5q50 0 84 32l21 20v181zM109 642q15 15 37 15q21 0 36.5 -15t15.5 -37
t-15.5 -37t-36.5 -15q-22 0 -37 15t-15 37t15 37zM287.5 642q15.5 15 36.5 15q22 0 37 -15t15 -37t-15 -37t-37 -15q-21 0 -36.5 15t-15.5 37t15.5 37z" />
    <glyph glyph-name="aring" unicode="&#xe5;" horiz-adv-x="497" 
d="M456.5 14.5q-24.5 -28.5 -63.5 -28.5q-32 0 -54.5 20t-29.5 59l-18 -18q-37 -37 -67.5 -49t-66.5 -12q-54 0 -91.5 34.5t-37.5 92.5q0 55 39 94t112 59l129 34v68q0 46 -23 71t-63 25q-36 0 -59.5 -17.5t-23.5 -42.5q0 -6 4 -19t4 -21q0 -22 -13 -36t-35 -14
q-20 0 -33 13.5t-13 34.5q0 20 8 36q21 42 69 69t105 27q167 0 167 -144v-249q0 -19 8.5 -30t22.5 -11q31 0 39 40l13 -4q-4 -53 -28.5 -81.5zM236 249q-114 -43 -114 -122q0 -35 21 -59.5t60 -24.5q50 0 84 32l21 20v181zM176 681.5q24 23.5 59 23.5t59 -23.5t24 -57.5
t-24 -57.5t-59 -23.5t-59 23.5t-24 57.5t24 57.5zM197.5 586.5q15.5 -15.5 37.5 -15.5q23 0 38 15.5t15 37.5q0 23 -15 38t-38 15q-22 0 -37.5 -15t-15.5 -38q0 -22 15.5 -37.5z" />
    <glyph glyph-name="ae" unicode="&#xe6;" horiz-adv-x="755" 
d="M72.5 20.5q-37.5 34.5 -37.5 92.5q0 55 39 94t112 59l129 34v68q0 46 -23 71t-63 25q-36 0 -59.5 -17.5t-23.5 -42.5q0 -6 4 -19t4 -21q0 -22 -13 -36t-35 -14q-20 0 -33 13.5t-13 34.5q0 20 8 36q21 42 69 69t105 27q106 0 145 -58q29 28 66 43t77 15q55 0 101.5 -26
t74 -74t27.5 -111h-317q0 -112 42 -173.5t114 -61.5q50 0 85.5 32.5t53.5 90.5l15 -4q-12 -82 -65 -131.5t-129 -49.5q-61 0 -109 25.5t-78 71.5h-8l-39 -36q-36 -33 -68.5 -47t-65.5 -14q-54 0 -91.5 34.5zM639 313q0 64 -30 107.5t-81 43.5q-27 0 -51.5 -18.5t-40.5 -53
t-19 -79.5h222zM259.5 52.5q21.5 9.5 44.5 32.5l11 10v181l-72 -27q-114 -43 -114 -122q0 -35 21 -59.5t60 -24.5q28 0 49.5 9.5z" />
    <glyph glyph-name="ccedilla" unicode="&#xe7;" horiz-adv-x="463" 
d="M385.5 39q-44.5 -47 -112.5 -52l-18 -33q21 8 41 8q29 0 51.5 -21t22.5 -60q0 -42 -26 -65.5t-64 -23.5q-28 0 -48 14.5t-30 34.5l9 9q23 -31 54 -31q23 0 37.5 15t14.5 43q0 23 -15 38t-36 15q-17 0 -27.5 -6t-19.5 -15l-7 4l34 73q-63 3 -113 34t-78.5 86t-28.5 126
q0 78 35 137.5t91 92t117 32.5q50 0 87.5 -16t57 -42.5t19.5 -55.5q0 -25 -17 -41.5t-39 -16.5q-25 0 -38.5 16t-13.5 41q0 7 2.5 21t2.5 20q0 14 -9 25q-16 22 -58 22q-31 0 -62 -24t-51 -68.5t-20 -102.5q0 -95 43.5 -156.5t119.5 -61.5q50 0 81.5 27t52.5 79l16 -6
q-13 -68 -57.5 -115z" />
    <glyph glyph-name="egrave" unicode="&#xe8;" horiz-adv-x="477" 
d="M379.5 80.5q35.5 32.5 53.5 90.5l15 -4q-12 -82 -65 -131.5t-129 -49.5q-67 0 -119 31t-80.5 87t-28.5 128q0 75 31 135t83 93.5t112 33.5q55 0 101.5 -26t74 -74t27.5 -111h-317v-16q0 -63 19 -113t54.5 -78t82.5 -28q50 0 85.5 32.5zM176 425q-29 -39 -36 -112h221
q0 64 -30 107.5t-81 43.5q-45 0 -74 -39zM241 550l-96 104q-14 15 -14 32q0 14 9.5 23t23.5 9q24 0 37 -27l66 -141h-26z" />
    <glyph glyph-name="eacute" unicode="&#xe9;" horiz-adv-x="477" 
d="M379.5 80.5q35.5 32.5 53.5 90.5l15 -4q-12 -82 -65 -131.5t-129 -49.5q-67 0 -119 31t-80.5 87t-28.5 128q0 75 31 135t83 93.5t112 33.5q55 0 101.5 -26t74 -74t27.5 -111h-317v-16q0 -63 19 -113t54.5 -78t82.5 -28q50 0 85.5 32.5zM176 425q-29 -39 -36 -112h221
q0 64 -30 107.5t-81 43.5q-45 0 -74 -39zM342 718q14 0 23.5 -9t9.5 -23q0 -17 -14 -32l-96 -104h-26l66 141q13 27 37 27z" />
    <glyph glyph-name="ecircumflex" unicode="&#xea;" horiz-adv-x="477" 
d="M379.5 80.5q35.5 32.5 53.5 90.5l15 -4q-12 -82 -65 -131.5t-129 -49.5q-67 0 -119 31t-80.5 87t-28.5 128q0 75 31 135t83 93.5t112 33.5q55 0 101.5 -26t74 -74t27.5 -111h-317v-16q0 -63 19 -113t54.5 -78t82.5 -28q50 0 85.5 32.5zM176 425q-29 -39 -36 -112h221
q0 64 -30 107.5t-81 43.5q-45 0 -74 -39zM361 550l-109 95l-109 -95h-30l99 150h80l99 -150h-30z" />
    <glyph glyph-name="edieresis" unicode="&#xeb;" horiz-adv-x="477" 
d="M379.5 80.5q35.5 32.5 53.5 90.5l15 -4q-12 -82 -65 -131.5t-129 -49.5q-67 0 -119 31t-80.5 87t-28.5 128q0 75 31 135t83 93.5t112 33.5q55 0 101.5 -26t74 -74t27.5 -111h-317v-16q0 -63 19 -113t54.5 -78t82.5 -28q50 0 85.5 32.5zM176 425q-29 -39 -36 -112h221
q0 64 -30 107.5t-81 43.5q-45 0 -74 -39zM127 642q15 15 37 15q21 0 36.5 -15t15.5 -37t-15.5 -37t-36.5 -15q-22 0 -37 15t-15 37t15 37zM305.5 642q15.5 15 36.5 15q22 0 37 -15t15 -37t-15 -37t-37 -15q-21 0 -36.5 15t-15.5 37t15.5 37z" />
    <glyph glyph-name="igrave" unicode="&#xec;" horiz-adv-x="268" 
d="M194.5 38.5q13.5 -16.5 46.5 -16.5h10v-22h-234v22h10q33 0 46.5 16.5t13.5 57.5v291q0 41 -16 56t-44 15h-10v22l164 14v-398q0 -41 13.5 -57.5zM112 550l-96 104q-14 15 -14 32q0 14 9.5 23t23.5 9q24 0 37 -27l66 -141h-26z" />
    <glyph glyph-name="iacute" unicode="&#xed;" horiz-adv-x="268" 
d="M194.5 38.5q13.5 -16.5 46.5 -16.5h10v-22h-234v22h10q33 0 46.5 16.5t13.5 57.5v291q0 41 -16 56t-44 15h-10v22l164 14v-398q0 -41 13.5 -57.5zM213 718q14 0 23.5 -9t9.5 -23q0 -17 -14 -32l-96 -104h-26l66 141q13 27 37 27z" />
    <glyph glyph-name="icircumflex" unicode="&#xee;" horiz-adv-x="268" 
d="M194.5 38.5q13.5 -16.5 46.5 -16.5h10v-22h-234v22h10q33 0 46.5 16.5t13.5 57.5v291q0 41 -16 56t-44 15h-10v22l164 14v-398q0 -41 13.5 -57.5zM232 550l-109 95l-109 -95h-30l99 150h80l99 -150h-30z" />
    <glyph glyph-name="idieresis" unicode="&#xef;" horiz-adv-x="268" 
d="M194.5 38.5q13.5 -16.5 46.5 -16.5h10v-22h-234v22h10q33 0 46.5 16.5t13.5 57.5v291q0 41 -16 56t-44 15h-10v22l164 14v-398q0 -41 13.5 -57.5zM-2 642q15 15 37 15q21 0 36.5 -15t15.5 -37t-15.5 -37t-36.5 -15q-22 0 -37 15t-15 37t15 37zM176.5 642q15.5 15 36.5 15
q22 0 37 -15t15 -37t-15 -37t-37 -15q-21 0 -36.5 15t-15.5 37t15.5 37z" />
    <glyph glyph-name="eth" unicode="&#xf0;" horiz-adv-x="539" 
d="M479.5 473.5q33.5 -87.5 33.5 -194.5q0 -92 -34.5 -158.5t-90 -100.5t-117.5 -34q-78 0 -133 32.5t-83.5 89t-28.5 128.5q0 74 28.5 132.5t79.5 92t116 33.5q91 0 151 -74q-7 48 -28 93t-53 81l-135 -52l-13 32l122 47q-69 62 -154 71v22q123 -6 212 -70l77 30l13 -32
l-59 -23q63 -58 96.5 -145.5zM367.5 65.5q37.5 49.5 37.5 153.5q0 118 -39 181.5t-102 63.5q-36 0 -66.5 -23.5t-48.5 -69t-18 -110.5q0 -111 38 -178t106 -67q55 0 92.5 49.5z" />
    <glyph glyph-name="ntilde" unicode="&#xf1;" horiz-adv-x="581" 
d="M17 22h10q33 0 46.5 16.5t13.5 57.5v288q0 41 -13.5 57.5t-46.5 16.5h-10v22l164 14v-118q32 54 78 86t99 32q66 0 101 -37t35 -99v-262q0 -41 13.5 -57.5t46.5 -16.5h10v-22h-234v22h10q33 0 46.5 16.5t13.5 57.5v231q0 100 -94 100q-36 0 -70 -24t-55 -63v-244
q0 -41 13.5 -57.5t46.5 -16.5h10v-22h-234v22zM163.5 628.5q25.5 30.5 68.5 30.5q19 0 35 -6.5t39 -20.5q19 -11 33 -17t29 -6q25 0 39 14t19 36h18q-1 -48 -26.5 -78.5t-68.5 -30.5q-19 0 -35 6.5t-39 20.5q-19 11 -33 17t-29 6q-25 0 -39 -14t-19 -36h-18q1 48 26.5 78.5z
" />
    <glyph glyph-name="ograve" unicode="&#xf2;" horiz-adv-x="535" 
d="M57.5 367q31.5 61 86 94t121.5 33q70 0 125.5 -30.5t87 -85.5t31.5 -126q0 -76 -33 -137t-88 -95t-119 -34q-74 0 -129 32t-84.5 87t-29.5 122q0 79 31.5 140zM168.5 83.5q38.5 -67.5 104.5 -67.5q59 0 95.5 53.5t36.5 149.5q0 122 -38.5 183.5t-104.5 61.5
q-37 0 -67 -24.5t-47.5 -70.5t-17.5 -110q0 -108 38.5 -175.5zM253 550l-96 104q-14 15 -14 32q0 14 9.5 23t23.5 9q24 0 37 -27l66 -141h-26z" />
    <glyph glyph-name="oacute" unicode="&#xf3;" horiz-adv-x="535" 
d="M57.5 367q31.5 61 86 94t121.5 33q70 0 125.5 -30.5t87 -85.5t31.5 -126q0 -76 -33 -137t-88 -95t-119 -34q-74 0 -129 32t-84.5 87t-29.5 122q0 79 31.5 140zM168.5 83.5q38.5 -67.5 104.5 -67.5q59 0 95.5 53.5t36.5 149.5q0 122 -38.5 183.5t-104.5 61.5
q-37 0 -67 -24.5t-47.5 -70.5t-17.5 -110q0 -108 38.5 -175.5zM354 718q14 0 23.5 -9t9.5 -23q0 -17 -14 -32l-96 -104h-26l66 141q13 27 37 27z" />
    <glyph glyph-name="ocircumflex" unicode="&#xf4;" horiz-adv-x="535" 
d="M57.5 367q31.5 61 86 94t121.5 33q70 0 125.5 -30.5t87 -85.5t31.5 -126q0 -76 -33 -137t-88 -95t-119 -34q-74 0 -129 32t-84.5 87t-29.5 122q0 79 31.5 140zM168.5 83.5q38.5 -67.5 104.5 -67.5q59 0 95.5 53.5t36.5 149.5q0 122 -38.5 183.5t-104.5 61.5
q-37 0 -67 -24.5t-47.5 -70.5t-17.5 -110q0 -108 38.5 -175.5zM373 550l-109 95l-109 -95h-30l99 150h80l99 -150h-30z" />
    <glyph glyph-name="otilde" unicode="&#xf5;" horiz-adv-x="535" 
d="M57.5 367q31.5 61 86 94t121.5 33q70 0 125.5 -30.5t87 -85.5t31.5 -126q0 -76 -33 -137t-88 -95t-119 -34q-74 0 -129 32t-84.5 87t-29.5 122q0 79 31.5 140zM168.5 83.5q38.5 -67.5 104.5 -67.5q59 0 95.5 53.5t36.5 149.5q0 122 -38.5 183.5t-104.5 61.5
q-37 0 -67 -24.5t-47.5 -70.5t-17.5 -110q0 -108 38.5 -175.5zM137.5 628.5q25.5 30.5 68.5 30.5q19 0 35 -6.5t39 -20.5q19 -11 33 -17t29 -6q25 0 39 14t19 36h18q-1 -48 -26.5 -78.5t-68.5 -30.5q-19 0 -35 6.5t-39 20.5q-19 11 -33 17t-29 6q-25 0 -39 -14t-19 -36h-18
q1 48 26.5 78.5z" />
    <glyph glyph-name="odieresis" unicode="&#xf6;" horiz-adv-x="535" 
d="M57.5 367q31.5 61 86 94t121.5 33q70 0 125.5 -30.5t87 -85.5t31.5 -126q0 -76 -33 -137t-88 -95t-119 -34q-74 0 -129 32t-84.5 87t-29.5 122q0 79 31.5 140zM168.5 83.5q38.5 -67.5 104.5 -67.5q59 0 95.5 53.5t36.5 149.5q0 122 -38.5 183.5t-104.5 61.5
q-37 0 -67 -24.5t-47.5 -70.5t-17.5 -110q0 -108 38.5 -175.5zM139 642q15 15 37 15q21 0 36.5 -15t15.5 -37t-15.5 -37t-36.5 -15q-22 0 -37 15t-15 37t15 37zM317.5 642q15.5 15 36.5 15q22 0 37 -15t15 -37t-15 -37t-37 -15q-21 0 -36.5 15t-15.5 37t15.5 37z" />
    <glyph glyph-name="divide" unicode="&#xf7;" horiz-adv-x="432" 
d="M171.5 372.5q-18.5 18.5 -18.5 44.5t18.5 44.5t44.5 18.5t44.5 -18.5t18.5 -44.5t-18.5 -44.5t-44.5 -18.5t-44.5 18.5zM171.5 12.5q-18.5 18.5 -18.5 44.5t18.5 44.5t44.5 18.5t44.5 -18.5t18.5 -44.5t-18.5 -44.5t-44.5 -18.5t-44.5 18.5zM417 253v-34h-402v34h402z
" />
    <glyph glyph-name="oslash" unicode="&#xf8;" horiz-adv-x="535" 
d="M486.5 360.5q22.5 -48.5 22.5 -108.5q0 -76 -33 -137t-88 -95t-119 -34q-70 0 -125 30l-19 -30l-31 19l20 30q-43 34 -65.5 83.5t-22.5 108.5q0 79 31.5 140t86 94t121.5 33q73 0 128 -32l21 32l31 -19l-22 -33q41 -33 63.5 -81.5zM158 103l202 309q-37 52 -98 52
q-37 0 -67 -24.5t-47.5 -70.5t-17.5 -110q0 -91 28 -156zM368.5 69.5q36.5 53.5 36.5 149.5q0 97 -25 156l-201 -307q36 -52 94 -52q59 0 95.5 53.5z" />
    <glyph glyph-name="ugrave" unicode="&#xf9;" horiz-adv-x="579" 
d="M505.5 38.5q13.5 -16.5 46.5 -16.5h10v-22l-164 -14v113q-32 -52 -75 -82.5t-92 -30.5q-66 0 -105 40.5t-39 119.5v238q0 41 -13.5 57.5t-46.5 16.5h-10v22l164 14v-341q0 -50 23.5 -75.5t65.5 -25.5q35 0 66.5 19.5t61.5 63.5v249q0 41 -13.5 57.5t-46.5 16.5h-10v22
l164 14v-398q0 -41 13.5 -57.5zM258 550l-96 104q-14 15 -14 32q0 14 9.5 23t23.5 9q24 0 37 -27l66 -141h-26z" />
    <glyph glyph-name="uacute" unicode="&#xfa;" horiz-adv-x="579" 
d="M505.5 38.5q13.5 -16.5 46.5 -16.5h10v-22l-164 -14v113q-32 -52 -75 -82.5t-92 -30.5q-66 0 -105 40.5t-39 119.5v238q0 41 -13.5 57.5t-46.5 16.5h-10v22l164 14v-341q0 -50 23.5 -75.5t65.5 -25.5q35 0 66.5 19.5t61.5 63.5v249q0 41 -13.5 57.5t-46.5 16.5h-10v22
l164 14v-398q0 -41 13.5 -57.5zM359 718q14 0 23.5 -9t9.5 -23q0 -17 -14 -32l-96 -104h-26l66 141q13 27 37 27z" />
    <glyph glyph-name="ucircumflex" unicode="&#xfb;" horiz-adv-x="579" 
d="M505.5 38.5q13.5 -16.5 46.5 -16.5h10v-22l-164 -14v113q-32 -52 -75 -82.5t-92 -30.5q-66 0 -105 40.5t-39 119.5v238q0 41 -13.5 57.5t-46.5 16.5h-10v22l164 14v-341q0 -50 23.5 -75.5t65.5 -25.5q35 0 66.5 19.5t61.5 63.5v249q0 41 -13.5 57.5t-46.5 16.5h-10v22
l164 14v-398q0 -41 13.5 -57.5zM378 550l-109 95l-109 -95h-30l99 150h80l99 -150h-30z" />
    <glyph glyph-name="udieresis" unicode="&#xfc;" horiz-adv-x="579" 
d="M505.5 38.5q13.5 -16.5 46.5 -16.5h10v-22l-164 -14v113q-32 -52 -75 -82.5t-92 -30.5q-66 0 -105 40.5t-39 119.5v238q0 41 -13.5 57.5t-46.5 16.5h-10v22l164 14v-341q0 -50 23.5 -75.5t65.5 -25.5q35 0 66.5 19.5t61.5 63.5v249q0 41 -13.5 57.5t-46.5 16.5h-10v22
l164 14v-398q0 -41 13.5 -57.5zM144 642q15 15 37 15q21 0 36.5 -15t15.5 -37t-15.5 -37t-36.5 -15q-22 0 -37 15t-15 37t15 37zM322.5 642q15.5 15 36.5 15q22 0 37 -15t15 -37t-15 -37t-37 -15q-21 0 -36.5 15t-15.5 37t15.5 37z" />
    <glyph glyph-name="yacute" unicode="&#xfd;" horiz-adv-x="578" 
d="M447 416q0 42 -55 42h-10v22h179v-22h-10q-29 0 -47 -19.5t-34 -58.5l-183 -461q-27 -69 -57.5 -99t-79.5 -30q-32 0 -50 17t-18 41q0 21 14 36.5t38 15.5q14 0 23 -4.5t21 -12.5q8 -6 14 -9t14 -3q20 0 33 18.5t27 53.5l25 62l-184 370q-21 43 -40 63t-43 20h-10v22h274
v-22h-13q-27 0 -42 -13.5t-15 -35.5q0 -17 11 -39l114 -228l98 247q6 17 6 27zM417 718q14 0 23.5 -9t9.5 -23q0 -17 -14 -32l-96 -104h-26l66 141q13 27 37 27z" />
    <glyph glyph-name="thorn" unicode="&#xfe;" horiz-adv-x="556" 
d="M68 663q-16 15 -44 15h-10v22l164 14v-312q26 39 66.5 65.5t95.5 26.5t98 -29.5t67.5 -85t24.5 -130.5q0 -78 -32 -138t-85.5 -92.5t-115.5 -32.5q-75 0 -119 41v-151q0 -41 13.5 -57.5t46.5 -16.5h10v-22h-234v22h10q33 0 46.5 16.5t13.5 57.5v731q0 41 -16 56z
M223.5 413.5q-28.5 -18.5 -45.5 -47.5v-249q0 -47 29 -73t74 -26q69 0 109 60t40 160q0 94 -38 144t-101 50q-39 0 -67.5 -18.5z" />
    <glyph glyph-name="ydieresis" unicode="&#xff;" horiz-adv-x="578" 
d="M447 416q0 42 -55 42h-10v22h179v-22h-10q-29 0 -47 -19.5t-34 -58.5l-183 -461q-27 -69 -57.5 -99t-79.5 -30q-32 0 -50 17t-18 41q0 21 14 36.5t38 15.5q14 0 23 -4.5t21 -12.5q8 -6 14 -9t14 -3q20 0 33 18.5t27 53.5l25 62l-184 370q-21 43 -40 63t-43 20h-10v22h274
v-22h-13q-27 0 -42 -13.5t-15 -35.5q0 -17 11 -39l114 -228l98 247q6 17 6 27zM202 642q15 15 37 15q21 0 36.5 -15t15.5 -37t-15.5 -37t-36.5 -15q-22 0 -37 15t-15 37t15 37zM380.5 642q15.5 15 36.5 15q22 0 37 -15t15 -37t-15 -37t-37 -15q-21 0 -36.5 15t-15.5 37
t15.5 37z" />
    <glyph glyph-name="Amacron" unicode="&#x100;" horiz-adv-x="780" 
d="M8 22h10q38 0 75 35t61 95l225 562h10l241 -568q25 -59 57 -91.5t75 -32.5h10v-22h-315v22h10q26 0 44.5 15t18.5 37q0 13 -4.5 25.5t-13.5 33.5l-36 80h-260l-34 -85q-9 -23 -9 -42q0 -28 17.5 -46t46.5 -18h10v-22h-239v22zM462 247l-119 285l-113 -285h232zM509 797
v-34h-250v34h250z" />
    <glyph glyph-name="amacron" unicode="&#x101;" horiz-adv-x="497" 
d="M456.5 14.5q-24.5 -28.5 -63.5 -28.5q-32 0 -54.5 20t-29.5 59l-18 -18q-37 -37 -67.5 -49t-66.5 -12q-54 0 -91.5 34.5t-37.5 92.5q0 55 39 94t112 59l129 34v68q0 46 -23 71t-63 25q-36 0 -59.5 -17.5t-23.5 -42.5q0 -6 4 -19t4 -21q0 -22 -13 -36t-35 -14
q-20 0 -33 13.5t-13 34.5q0 20 8 36q21 42 69 69t105 27q167 0 167 -144v-249q0 -19 8.5 -30t22.5 -11q31 0 39 40l13 -4q-4 -53 -28.5 -81.5zM236 249q-114 -43 -114 -122q0 -35 21 -59.5t60 -24.5q50 0 84 32l21 20v181zM360 632v-34h-250v34h250z" />
    <glyph glyph-name="Abreve" unicode="&#x102;" horiz-adv-x="780" 
d="M8 22h10q38 0 75 35t61 95l225 562h10l241 -568q25 -59 57 -91.5t75 -32.5h10v-22h-315v22h10q26 0 44.5 15t18.5 37q0 13 -4.5 25.5t-13.5 33.5l-36 80h-260l-34 -85q-9 -23 -9 -42q0 -28 17.5 -46t46.5 -18h10v-22h-239v22zM462 247l-119 285l-113 -285h232z
M317.5 791.5q-23.5 30.5 -23.5 74.5h19q17 -60 71 -60t71 60h19q0 -44 -23.5 -74.5t-66.5 -30.5t-66.5 30.5z" />
    <glyph glyph-name="abreve" unicode="&#x103;" horiz-adv-x="497" 
d="M456.5 14.5q-24.5 -28.5 -63.5 -28.5q-32 0 -54.5 20t-29.5 59l-18 -18q-37 -37 -67.5 -49t-66.5 -12q-54 0 -91.5 34.5t-37.5 92.5q0 55 39 94t112 59l129 34v68q0 46 -23 71t-63 25q-36 0 -59.5 -17.5t-23.5 -42.5q0 -6 4 -19t4 -21q0 -22 -13 -36t-35 -14
q-20 0 -33 13.5t-13 34.5q0 20 8 36q21 42 69 69t105 27q167 0 167 -144v-249q0 -19 8.5 -30t22.5 -11q31 0 39 40l13 -4q-4 -53 -28.5 -81.5zM236 249q-114 -43 -114 -122q0 -35 21 -59.5t60 -24.5q50 0 84 32l21 20v181zM168.5 573.5q-23.5 30.5 -23.5 74.5h19
q17 -60 71 -60t71 60h19q0 -44 -23.5 -74.5t-66.5 -30.5t-66.5 30.5z" />
    <glyph glyph-name="Aogonek" unicode="&#x104;" horiz-adv-x="780" 
d="M589 -98q0 -28 16 -45.5t43 -17.5q23 0 38 11.5t26 32.5l9 -4q-12 -32 -34 -54t-57 -22q-39 0 -64.5 26t-25.5 63q0 33 21 61t61 47h-165v22h10q26 0 44.5 15t18.5 37q0 13 -4.5 25.5t-13.5 33.5l-36 80h-260l-34 -85q-9 -23 -9 -42q0 -28 17.5 -46t46.5 -18h10v-22h-239
v22h10q38 0 75 35t61 95l225 562h10l241 -568q25 -59 57 -91.5t75 -32.5h10v-22h-115q-68 -42 -68 -98zM462 247l-119 285l-113 -285h232z" />
    <glyph glyph-name="aogonek" unicode="&#x105;" horiz-adv-x="497" 
d="M504 -121q-12 -32 -34 -54t-57 -22q-39 0 -64.5 26t-25.5 63q0 57 58 95q-28 3 -46.5 23t-25.5 55l-18 -18q-37 -37 -67.5 -49t-66.5 -12q-54 0 -91.5 34.5t-37.5 92.5q0 55 39 94t112 59l129 34v68q0 46 -23 71t-63 25q-36 0 -59.5 -17.5t-23.5 -42.5q0 -6 4 -19t4 -21
q0 -22 -13 -36t-35 -14q-20 0 -33 13.5t-13 34.5q0 20 8 36q21 42 69 69t105 27q167 0 167 -144v-249q0 -19 8.5 -30t22.5 -11q31 0 39 40l13 -4q-6 -76 -52 -101q-61 -39 -61 -93q0 -28 16 -45.5t43 -17.5q23 0 38 11.5t26 32.5zM308 276l-72 -27q-114 -43 -114 -122
q0 -35 21 -59.5t60 -24.5q50 0 84 32l21 20v181z" />
    <glyph glyph-name="Cacute" unicode="&#x106;" horiz-adv-x="639" 
d="M197 28.5q-74 42.5 -120.5 125t-46.5 196.5t50 196.5t128.5 125t161.5 42.5q44 0 77.5 -11t76.5 -34q18 -9 29 -9q13 0 19.5 9.5t6.5 23.5v7h23v-228h-23q-17 97 -72.5 152.5t-134.5 55.5q-110 0 -163 -88.5t-53 -241.5t56 -234.5t164 -81.5q162 0 232 212l19 -7
q-28 -122 -100.5 -187.5t-174.5 -65.5q-81 0 -155 42.5zM460 932q14 0 23.5 -9t9.5 -23q0 -17 -14 -32l-96 -104h-26l66 141q13 27 37 27z" />
    <glyph glyph-name="cacute" unicode="&#x107;" horiz-adv-x="463" 
d="M416 338.5q-17 -16.5 -39 -16.5q-25 0 -38.5 16t-13.5 41q0 7 2.5 21t2.5 20q0 14 -9 25q-16 22 -58 22q-31 0 -62 -24t-51 -68.5t-20 -102.5q0 -95 43.5 -156.5t119.5 -61.5q50 0 81.5 27t52.5 79l16 -6q-14 -72 -62.5 -120t-122.5 -48q-65 0 -118 30.5t-83.5 86.5
t-30.5 129q0 78 35 137.5t91 92t117 32.5q50 0 87.5 -16t57 -42.5t19.5 -55.5q0 -25 -17 -41.5zM358 718q14 0 23.5 -9t9.5 -23q0 -17 -14 -32l-96 -104h-26l66 141q13 27 37 27z" />
    <glyph glyph-name="Ccircumflex" unicode="&#x108;" horiz-adv-x="639" 
d="M197 28.5q-74 42.5 -120.5 125t-46.5 196.5t50 196.5t128.5 125t161.5 42.5q44 0 77.5 -11t76.5 -34q18 -9 29 -9q13 0 19.5 9.5t6.5 23.5v7h23v-228h-23q-17 97 -72.5 152.5t-134.5 55.5q-110 0 -163 -88.5t-53 -241.5t56 -234.5t164 -81.5q162 0 232 212l19 -7
q-28 -122 -100.5 -187.5t-174.5 -65.5q-81 0 -155 42.5zM496 764l-136 76l-136 -76h-30l126 134h80l126 -134h-30z" />
    <glyph glyph-name="ccircumflex" unicode="&#x109;" horiz-adv-x="463" 
d="M416 338.5q-17 -16.5 -39 -16.5q-25 0 -38.5 16t-13.5 41q0 7 2.5 21t2.5 20q0 14 -9 25q-16 22 -58 22q-31 0 -62 -24t-51 -68.5t-20 -102.5q0 -95 43.5 -156.5t119.5 -61.5q50 0 81.5 27t52.5 79l16 -6q-14 -72 -62.5 -120t-122.5 -48q-65 0 -118 30.5t-83.5 86.5
t-30.5 129q0 78 35 137.5t91 92t117 32.5q50 0 87.5 -16t57 -42.5t19.5 -55.5q0 -25 -17 -41.5zM377 550l-109 95l-109 -95h-30l99 150h80l99 -150h-30z" />
    <glyph glyph-name="Cdotaccent" unicode="&#x10a;" horiz-adv-x="639" 
d="M197 28.5q-74 42.5 -120.5 125t-46.5 196.5t50 196.5t128.5 125t161.5 42.5q44 0 77.5 -11t76.5 -34q18 -9 29 -9q13 0 19.5 9.5t6.5 23.5v7h23v-228h-23q-17 97 -72.5 152.5t-134.5 55.5q-110 0 -163 -88.5t-53 -241.5t56 -234.5t164 -81.5q162 0 232 212l19 -7
q-28 -122 -100.5 -187.5t-174.5 -65.5q-81 0 -155 42.5zM314 872q19 19 46 19t46 -19t19 -46t-19 -46t-46 -19t-46 19t-19 46t19 46z" />
    <glyph glyph-name="cdotaccent" unicode="&#x10b;" horiz-adv-x="463" 
d="M416 338.5q-17 -16.5 -39 -16.5q-25 0 -38.5 16t-13.5 41q0 7 2.5 21t2.5 20q0 14 -9 25q-16 22 -58 22q-31 0 -62 -24t-51 -68.5t-20 -102.5q0 -95 43.5 -156.5t119.5 -61.5q50 0 81.5 27t52.5 79l16 -6q-14 -72 -62.5 -120t-122.5 -48q-65 0 -118 30.5t-83.5 86.5
t-30.5 129q0 78 35 137.5t91 92t117 32.5q50 0 87.5 -16t57 -42.5t19.5 -55.5q0 -25 -17 -41.5zM223 669q19 19 46 19t46 -19t19 -46t-19 -46t-46 -19t-46 19t-19 46t19 46z" />
    <glyph glyph-name="Ccaron" unicode="&#x10c;" horiz-adv-x="639" 
d="M197 28.5q-74 42.5 -120.5 125t-46.5 196.5t50 196.5t128.5 125t161.5 42.5q44 0 77.5 -11t76.5 -34q18 -9 29 -9q13 0 19.5 9.5t6.5 23.5v7h23v-228h-23q-17 97 -72.5 152.5t-134.5 55.5q-110 0 -163 -88.5t-53 -241.5t56 -234.5t164 -81.5q162 0 232 212l19 -7
q-28 -122 -100.5 -187.5t-174.5 -65.5q-81 0 -155 42.5zM400 764h-80l-106 134h30l116 -76l116 76h30z" />
    <glyph glyph-name="ccaron" unicode="&#x10d;" horiz-adv-x="463" 
d="M416 338.5q-17 -16.5 -39 -16.5q-25 0 -38.5 16t-13.5 41q0 7 2.5 21t2.5 20q0 14 -9 25q-16 22 -58 22q-31 0 -62 -24t-51 -68.5t-20 -102.5q0 -95 43.5 -156.5t119.5 -61.5q50 0 81.5 27t52.5 79l16 -6q-14 -72 -62.5 -120t-122.5 -48q-65 0 -118 30.5t-83.5 86.5
t-30.5 129q0 78 35 137.5t91 92t117 32.5q50 0 87.5 -16t57 -42.5t19.5 -55.5q0 -25 -17 -41.5zM229 550l-99 150h30l109 -95l109 95h30l-99 -150h-80z" />
    <glyph glyph-name="Dcaron" unicode="&#x10e;" horiz-adv-x="700" 
d="M16 22h10q78 0 78 88v480q0 88 -78 88h-10v22h290q99 0 181.5 -37.5t132.5 -116t50 -196.5t-50 -196.5t-132.5 -116t-181.5 -37.5h-290v22zM308 34q116 0 176 85.5t60 230.5t-60 230.5t-176 85.5h-36q-32 0 -46 -14t-14 -56v-492q0 -42 14 -56t46 -14h36zM331 764h-80
l-106 134h30l116 -76l116 76h30z" />
    <glyph glyph-name="dcaron" unicode="&#x10f;" horiz-adv-x="657" 
d="M468.5 38.5q13.5 -16.5 46.5 -16.5h10v-22h-164v57q-21 -33 -55 -52t-78 -19q-58 0 -104 29.5t-72 83.5t-26 123q0 78 28.5 140t79.5 97t117 35t110 -35v148q0 41 -16 56t-44 15h-10v22l164 14v-618q0 -41 13.5 -57.5zM196 437q-31 -25 -50.5 -72t-19.5 -111
q0 -98 38 -154.5t100 -56.5q31 0 57.5 13t39.5 33v259q0 47 -27.5 80.5t-72.5 33.5q-34 0 -65 -25zM514 542q50 21 78 54.5t30 84.5q-14 -7 -36 -7q-26 0 -44 17.5t-18 43.5q0 27 17.5 46t46.5 19q37 0 56 -25t19 -63q0 -63 -39.5 -114.5t-102.5 -70.5z" />
    <glyph glyph-name="Dcroat" unicode="&#x110;" horiz-adv-x="700" 
d="M487.5 662.5q82.5 -37.5 132.5 -116t50 -196.5t-50 -196.5t-132.5 -116t-181.5 -37.5h-290v22h10q78 0 78 88v225h-88v30h88v225q0 88 -78 88h-10v22h290q99 0 181.5 -37.5zM484 119.5q60 85.5 60 230.5t-60.5 230.5t-177.5 85.5h-34q-32 0 -46 -14t-14 -56v-231h101v-30
h-101v-231q0 -42 14 -56t46 -14h36q116 0 176 85.5z" />
    <glyph glyph-name="dcroat" unicode="&#x111;" horiz-adv-x="542" 
d="M455 556v-460q0 -41 13.5 -57.5t46.5 -16.5h10v-22h-164v57q-21 -33 -55 -52t-78 -19q-58 0 -104 29.5t-72 83.5t-26 123q0 78 28.5 140t79.5 97t117 35q69 0 110 -35v97h-133v34h133v17q0 41 -16 56t-44 15h-10v22l164 14v-124h87v-34h-87zM361 348q0 47 -28 80.5
t-72 33.5q-34 0 -65 -25t-50.5 -72t-19.5 -111q0 -98 38 -154.5t100 -56.5q31 0 57.5 13t39.5 33v259z" />
    <glyph glyph-name="Emacron" unicode="&#x112;" horiz-adv-x="572" 
d="M16 22h10q78 0 78 88v480q0 88 -78 88h-10v22h517v-177h-22q-5 76 -38.5 109.5t-111.5 33.5h-89q-32 0 -46 -14t-14 -56v-227h117q51 0 78.5 32.5t27.5 87.5h22v-274h-22q0 55 -27.5 87.5t-78.5 32.5h-117v-231q0 -42 14 -56t46 -14h72q84 0 128.5 34.5t61.5 118.5h22
l-14 -187h-526v22zM410 797v-34h-250v34h250z" />
    <glyph glyph-name="emacron" unicode="&#x113;" horiz-adv-x="477" 
d="M379.5 80.5q35.5 32.5 53.5 90.5l15 -4q-12 -82 -65 -131.5t-129 -49.5q-67 0 -119 31t-80.5 87t-28.5 128q0 75 31 135t83 93.5t112 33.5q55 0 101.5 -26t74 -74t27.5 -111h-317v-16q0 -63 19 -113t54.5 -78t82.5 -28q50 0 85.5 32.5zM176 425q-29 -39 -36 -112h221
q0 64 -30 107.5t-81 43.5q-45 0 -74 -39zM378 632v-34h-250v34h250z" />
    <glyph glyph-name="Ebreve" unicode="&#x114;" horiz-adv-x="572" 
d="M16 22h10q78 0 78 88v480q0 88 -78 88h-10v22h517v-177h-22q-5 76 -38.5 109.5t-111.5 33.5h-89q-32 0 -46 -14t-14 -56v-227h117q51 0 78.5 32.5t27.5 87.5h22v-274h-22q0 55 -27.5 87.5t-78.5 32.5h-117v-231q0 -42 14 -56t46 -14h72q84 0 128.5 34.5t61.5 118.5h22
l-14 -187h-526v22zM218.5 791.5q-23.5 30.5 -23.5 74.5h19q17 -60 71 -60t71 60h19q0 -44 -23.5 -74.5t-66.5 -30.5t-66.5 30.5z" />
    <glyph glyph-name="ebreve" unicode="&#x115;" horiz-adv-x="477" 
d="M379.5 80.5q35.5 32.5 53.5 90.5l15 -4q-12 -82 -65 -131.5t-129 -49.5q-67 0 -119 31t-80.5 87t-28.5 128q0 75 31 135t83 93.5t112 33.5q55 0 101.5 -26t74 -74t27.5 -111h-317v-16q0 -63 19 -113t54.5 -78t82.5 -28q50 0 85.5 32.5zM176 425q-29 -39 -36 -112h221
q0 64 -30 107.5t-81 43.5q-45 0 -74 -39zM186.5 573.5q-23.5 30.5 -23.5 74.5h19q17 -60 71 -60t71 60h19q0 -44 -23.5 -74.5t-66.5 -30.5t-66.5 30.5z" />
    <glyph glyph-name="Edotaccent" unicode="&#x116;" horiz-adv-x="572" 
d="M16 22h10q78 0 78 88v480q0 88 -78 88h-10v22h517v-177h-22q-5 76 -38.5 109.5t-111.5 33.5h-89q-32 0 -46 -14t-14 -56v-227h117q51 0 78.5 32.5t27.5 87.5h22v-274h-22q0 55 -27.5 87.5t-78.5 32.5h-117v-231q0 -42 14 -56t46 -14h72q84 0 128.5 34.5t61.5 118.5h22
l-14 -187h-526v22zM239 872q19 19 46 19t46 -19t19 -46t-19 -46t-46 -19t-46 19t-19 46t19 46z" />
    <glyph glyph-name="edotaccent" unicode="&#x117;" horiz-adv-x="477" 
d="M379.5 80.5q35.5 32.5 53.5 90.5l15 -4q-12 -82 -65 -131.5t-129 -49.5q-67 0 -119 31t-80.5 87t-28.5 128q0 75 31 135t83 93.5t112 33.5q55 0 101.5 -26t74 -74t27.5 -111h-317v-16q0 -63 19 -113t54.5 -78t82.5 -28q50 0 85.5 32.5zM176 425q-29 -39 -36 -112h221
q0 64 -30 107.5t-81 43.5q-45 0 -74 -39zM207 669q19 19 46 19t46 -19t19 -46t-19 -46t-46 -19t-46 19t-19 46t19 46z" />
    <glyph glyph-name="Eogonek" unicode="&#x118;" horiz-adv-x="572" 
d="M510 -149.5q15 11.5 26 32.5l9 -4q-12 -32 -34 -54t-57 -22q-39 0 -64.5 26t-25.5 63q0 33 21 61t61 47h-430v22h10q78 0 78 88v480q0 88 -78 88h-10v22h517v-177h-22q-5 76 -38.5 109.5t-111.5 33.5h-89q-32 0 -46 -14t-14 -56v-227h117q51 0 78.5 32.5t27.5 87.5h22
v-274h-22q0 55 -27.5 87.5t-78.5 32.5h-117v-231q0 -42 14 -56t46 -14h72q84 0 128.5 34.5t61.5 118.5h22l-14 -187h-61q-68 -42 -68 -98q0 -28 16 -45.5t43 -17.5q23 0 38 11.5z" />
    <glyph glyph-name="eogonek" unicode="&#x119;" horiz-adv-x="477" 
d="M260 -98q0 -28 16 -45.5t43 -17.5q23 0 38 11.5t26 32.5l9 -4q-12 -32 -34 -54t-57 -22q-39 0 -64.5 26t-25.5 63q0 57 58 95q-5 -1 -15 -1q-67 0 -119 31t-80.5 87t-28.5 128q0 75 31 135t83 93.5t112 33.5q55 0 101.5 -26t74 -74t27.5 -111h-317v-16q0 -63 19 -113
t54.5 -78t82.5 -28q50 0 85.5 32.5t53.5 90.5l15 -4q-9 -60 -40 -103t-78 -63q-70 -41 -70 -99zM176 425q-29 -39 -36 -112h221q0 64 -30 107.5t-81 43.5q-45 0 -74 -39z" />
    <glyph glyph-name="Ecaron" unicode="&#x11a;" horiz-adv-x="572" 
d="M16 22h10q78 0 78 88v480q0 88 -78 88h-10v22h517v-177h-22q-5 76 -38.5 109.5t-111.5 33.5h-89q-32 0 -46 -14t-14 -56v-227h117q51 0 78.5 32.5t27.5 87.5h22v-274h-22q0 55 -27.5 87.5t-78.5 32.5h-117v-231q0 -42 14 -56t46 -14h72q84 0 128.5 34.5t61.5 118.5h22
l-14 -187h-526v22zM325 764h-80l-106 134h30l116 -76l116 76h30z" />
    <glyph glyph-name="ecaron" unicode="&#x11b;" horiz-adv-x="477" 
d="M379.5 80.5q35.5 32.5 53.5 90.5l15 -4q-12 -82 -65 -131.5t-129 -49.5q-67 0 -119 31t-80.5 87t-28.5 128q0 75 31 135t83 93.5t112 33.5q55 0 101.5 -26t74 -74t27.5 -111h-317v-16q0 -63 19 -113t54.5 -78t82.5 -28q50 0 85.5 32.5zM176 425q-29 -39 -36 -112h221
q0 64 -30 107.5t-81 43.5q-45 0 -74 -39zM213 550l-99 150h30l109 -95l109 95h30l-99 -150h-80z" />
    <glyph glyph-name="Gcircumflex" unicode="&#x11c;" horiz-adv-x="695" 
d="M195.5 27q-74.5 41 -120 123t-45.5 200q0 116 53 198.5t133.5 124t161.5 41.5q85 0 166 -43q20 -10 33 -10q26 0 26 32v7h23v-225h-23q-23 91 -81 148t-139 57q-117 0 -172 -83.5t-55 -246.5t50 -246.5t156 -83.5q48 0 93.5 19t72.5 49v103q0 64 -20 88.5t-71 24.5h-10
v22h259v-22h-10q-25 0 -36.5 -10t-14.5 -32t-3 -71v-191h-20q-4 20 -15 32t-25 12q-8 0 -14.5 -2.5t-13.5 -6.5q-37 -24 -83 -36.5t-94 -12.5q-87 0 -161.5 41zM510 764l-136 76l-136 -76h-30l126 134h80l126 -134h-30z" />
    <glyph glyph-name="gcircumflex" unicode="&#x11d;" horiz-adv-x="505" 
d="M351 466h129v-36h-86q41 -48 41 -109q0 -53 -28.5 -94t-75 -63t-99.5 -22t-100 28q-9 -7 -15 -17t-6 -20q0 -25 37.5 -37t123.5 -13q93 -1 146.5 -38t53.5 -103q0 -53 -35.5 -93t-90 -61.5t-110.5 -21.5q-59 0 -108 17.5t-78.5 50.5t-29.5 77q0 61 75 108
q-27 16 -39 34.5t-12 41.5q0 51 64 92q-28 23 -44 54.5t-16 67.5q0 58 27 100t71.5 63.5t97.5 21.5q52 0 107 -28zM165 425.5q-29 -34.5 -29 -92.5q0 -59 26 -108t80 -49q50 0 77.5 34.5t27.5 94.5q0 62 -29 108.5t-80 46.5q-44 0 -73 -34.5zM98 -35q-6 -21 -6 -45
q0 -29 17.5 -57t52.5 -46.5t84 -18.5q48 0 84 16t55.5 41t19.5 51q0 41 -35.5 61t-120.5 20q-72 0 -129 22q-16 -23 -22 -44zM353 550l-109 95l-109 -95h-30l99 150h80l99 -150h-30z" />
    <glyph glyph-name="Gbreve" unicode="&#x11e;" horiz-adv-x="695" 
d="M195.5 27q-74.5 41 -120 123t-45.5 200q0 116 53 198.5t133.5 124t161.5 41.5q85 0 166 -43q20 -10 33 -10q26 0 26 32v7h23v-225h-23q-23 91 -81 148t-139 57q-117 0 -172 -83.5t-55 -246.5t50 -246.5t156 -83.5q48 0 93.5 19t72.5 49v103q0 64 -20 88.5t-71 24.5h-10
v22h259v-22h-10q-25 0 -36.5 -10t-14.5 -32t-3 -71v-191h-20q-4 20 -15 32t-25 12q-8 0 -14.5 -2.5t-13.5 -6.5q-37 -24 -83 -36.5t-94 -12.5q-87 0 -161.5 41zM307.5 791.5q-23.5 30.5 -23.5 74.5h19q17 -60 71 -60t71 60h19q0 -44 -23.5 -74.5t-66.5 -30.5t-66.5 30.5z
" />
    <glyph glyph-name="gbreve" unicode="&#x11f;" horiz-adv-x="505" 
d="M351 466h129v-36h-86q41 -48 41 -109q0 -53 -28.5 -94t-75 -63t-99.5 -22t-100 28q-9 -7 -15 -17t-6 -20q0 -25 37.5 -37t123.5 -13q93 -1 146.5 -38t53.5 -103q0 -53 -35.5 -93t-90 -61.5t-110.5 -21.5q-59 0 -108 17.5t-78.5 50.5t-29.5 77q0 61 75 108
q-27 16 -39 34.5t-12 41.5q0 51 64 92q-28 23 -44 54.5t-16 67.5q0 58 27 100t71.5 63.5t97.5 21.5q52 0 107 -28zM165 425.5q-29 -34.5 -29 -92.5q0 -59 26 -108t80 -49q50 0 77.5 34.5t27.5 94.5q0 62 -29 108.5t-80 46.5q-44 0 -73 -34.5zM98 -35q-6 -21 -6 -45
q0 -29 17.5 -57t52.5 -46.5t84 -18.5q48 0 84 16t55.5 41t19.5 51q0 41 -35.5 61t-120.5 20q-72 0 -129 22q-16 -23 -22 -44zM178.5 573.5q-23.5 30.5 -23.5 74.5h19q17 -60 71 -60t71 60h19q0 -44 -23.5 -74.5t-66.5 -30.5t-66.5 30.5z" />
    <glyph glyph-name="Gdotaccent" unicode="&#x120;" horiz-adv-x="695" 
d="M195.5 27q-74.5 41 -120 123t-45.5 200q0 116 53 198.5t133.5 124t161.5 41.5q85 0 166 -43q20 -10 33 -10q26 0 26 32v7h23v-225h-23q-23 91 -81 148t-139 57q-117 0 -172 -83.5t-55 -246.5t50 -246.5t156 -83.5q48 0 93.5 19t72.5 49v103q0 64 -20 88.5t-71 24.5h-10
v22h259v-22h-10q-25 0 -36.5 -10t-14.5 -32t-3 -71v-191h-20q-4 20 -15 32t-25 12q-8 0 -14.5 -2.5t-13.5 -6.5q-37 -24 -83 -36.5t-94 -12.5q-87 0 -161.5 41zM328 872q19 19 46 19t46 -19t19 -46t-19 -46t-46 -19t-46 19t-19 46t19 46z" />
    <glyph glyph-name="gdotaccent" unicode="&#x121;" horiz-adv-x="505" 
d="M351 466h129v-36h-86q41 -48 41 -109q0 -53 -28.5 -94t-75 -63t-99.5 -22t-100 28q-9 -7 -15 -17t-6 -20q0 -25 37.5 -37t123.5 -13q93 -1 146.5 -38t53.5 -103q0 -53 -35.5 -93t-90 -61.5t-110.5 -21.5q-59 0 -108 17.5t-78.5 50.5t-29.5 77q0 61 75 108
q-27 16 -39 34.5t-12 41.5q0 51 64 92q-28 23 -44 54.5t-16 67.5q0 58 27 100t71.5 63.5t97.5 21.5q52 0 107 -28zM165 425.5q-29 -34.5 -29 -92.5q0 -59 26 -108t80 -49q50 0 77.5 34.5t27.5 94.5q0 62 -29 108.5t-80 46.5q-44 0 -73 -34.5zM98 -35q-6 -21 -6 -45
q0 -29 17.5 -57t52.5 -46.5t84 -18.5q48 0 84 16t55.5 41t19.5 51q0 41 -35.5 61t-120.5 20q-72 0 -129 22q-16 -23 -22 -44zM199 669q19 19 46 19t46 -19t19 -46t-19 -46t-46 -19t-46 19t-19 46t19 46z" />
    <glyph glyph-name="uni0122" unicode="&#x122;" horiz-adv-x="695" 
d="M195.5 27q-74.5 41 -120 123t-45.5 200q0 116 53 198.5t133.5 124t161.5 41.5q85 0 166 -43q20 -10 33 -10q26 0 26 32v7h23v-225h-23q-23 91 -81 148t-139 57q-117 0 -172 -83.5t-55 -246.5t50 -246.5t156 -83.5q48 0 93.5 19t72.5 49v103q0 64 -20 88.5t-71 24.5h-10
v22h259v-22h-10q-25 0 -36.5 -10t-14.5 -32t-3 -71v-191h-20q-4 20 -15 32t-25 12q-8 0 -14.5 -2.5t-13.5 -6.5q-37 -24 -83 -36.5t-94 -12.5q-87 0 -161.5 41zM315 -300q41 29 68 65.5t31 78.5q-14 -7 -34 -7q-27 0 -45.5 17.5t-18.5 43.5t17.5 45.5t46.5 19.5q37 0 56 -25
t19 -63q0 -60 -32 -106.5t-95 -83.5z" />
    <glyph glyph-name="uni0123" unicode="&#x123;" horiz-adv-x="505" 
d="M351 466h129v-36h-86q41 -48 41 -109q0 -53 -28.5 -94t-75 -63t-99.5 -22t-100 28q-9 -7 -15 -17t-6 -20q0 -25 37.5 -37t123.5 -13q93 -1 146.5 -38t53.5 -103q0 -53 -35.5 -93t-90 -61.5t-110.5 -21.5q-59 0 -108 17.5t-78.5 50.5t-29.5 77q0 61 75 108
q-27 16 -39 34.5t-12 41.5q0 51 64 92q-28 23 -44 54.5t-16 67.5q0 58 27 100t71.5 63.5t97.5 21.5q52 0 107 -28zM165 425.5q-29 -34.5 -29 -92.5q0 -59 26 -108t80 -49q50 0 77.5 34.5t27.5 94.5q0 62 -29 108.5t-80 46.5q-44 0 -73 -34.5zM98 -35q-6 -21 -6 -45
q0 -29 17.5 -57t52.5 -46.5t84 -18.5q48 0 84 16t55.5 41t19.5 51q0 41 -35.5 61t-120.5 20q-72 0 -129 22q-16 -23 -22 -44zM319 801q-50 -21 -78 -54.5t-30 -84.5q14 7 36 7q26 0 44 -17.5t18 -43.5q0 -27 -17.5 -46t-46.5 -19q-37 0 -56 25t-19 63q0 63 39.5 114.5
t102.5 70.5z" />
    <glyph glyph-name="Hcircumflex" unicode="&#x124;" horiz-adv-x="727" 
d="M16 22h10q78 0 78 88v480q0 88 -78 88h-10v22h284v-22h-10q-78 0 -78 -88v-200h303v200q0 88 -78 88h-10v22h284v-22h-10q-78 0 -78 -88v-480q0 -88 78 -88h10v-22h-284v22h10q78 0 78 88v246h-303v-246q0 -88 78 -88h10v-22h-284v22zM500 764l-136 76l-136 -76h-30
l126 134h80l126 -134h-30z" />
    <glyph glyph-name="hcircumflex" unicode="&#x125;" horiz-adv-x="588" 
d="M337 0v22h10q33 0 46.5 16.5t13.5 57.5v231q0 49 -26 74.5t-68 25.5q-32 0 -68 -21t-64 -58v-252q0 -41 13.5 -57.5t46.5 -16.5h10v-22h-234v22h10q33 0 46.5 16.5t13.5 57.5v508q0 41 -13.5 57.5t-46.5 16.5h-10v22l164 14v-330q35 49 83 79.5t103 30.5q64 0 99 -35
t35 -101v-262q0 -41 13.5 -57.5t46.5 -16.5h10v-22h-234zM222 770l-109 95l-109 -95h-30l99 150h80l99 -150h-30z" />
    <glyph glyph-name="Hbar" unicode="&#x126;" horiz-adv-x="743" 
d="M631 590v-50h88v-34h-88v-396q0 -88 78 -88h10v-22h-284v22h10q78 0 78 88v246h-303v-246q0 -88 78 -88h10v-22h-284v22h10q78 0 78 88v396h-88v34h88v50q0 88 -78 88h-10v22h284v-22h-10q-78 0 -78 -88v-50h303v50q0 88 -78 88h-10v22h284v-22h-10q-78 0 -78 -88z
M523 506h-303v-116h303v116z" />
    <glyph glyph-name="hbar" unicode="&#x127;" horiz-adv-x="588" 
d="M571 22v-22h-234v22h10q33 0 46.5 16.5t13.5 57.5v231q0 49 -26 74.5t-68 25.5q-32 0 -68 -21t-64 -58v-252q0 -41 13.5 -57.5t46.5 -16.5h10v-22h-234v22h10q33 0 46.5 16.5t13.5 57.5v462h-70v26h70v20q0 41 -13.5 57.5t-46.5 16.5h-10v22l164 14v-130h136v-26h-136
v-174q35 49 83 79.5t103 30.5q64 0 99 -35t35 -101v-262q0 -41 13.5 -57.5t46.5 -16.5h10z" />
    <glyph glyph-name="Itilde" unicode="&#x128;" horiz-adv-x="316" 
d="M16 22h10q78 0 78 88v480q0 88 -78 88h-10v22h284v-22h-10q-78 0 -78 -88v-480q0 -88 78 -88h10v-22h-284v22zM30.5 842.5q25.5 30.5 68.5 30.5q19 0 35 -6.5t39 -20.5q19 -11 33 -17t29 -6q25 0 39 14t19 36h18q-1 -48 -26.5 -78.5t-68.5 -30.5q-19 0 -35 6.5t-39 20.5
q-19 11 -33 17t-29 6q-25 0 -39 -14t-19 -36h-18q1 48 26.5 78.5z" />
    <glyph glyph-name="itilde" unicode="&#x129;" horiz-adv-x="268" 
d="M194.5 38.5q13.5 -16.5 46.5 -16.5h10v-22h-234v22h10q33 0 46.5 16.5t13.5 57.5v291q0 41 -16 56t-44 15h-10v22l164 14v-398q0 -41 13.5 -57.5zM-3.5 628.5q25.5 30.5 68.5 30.5q19 0 35 -6.5t39 -20.5q19 -11 33 -17t29 -6q25 0 39 14t19 36h18q-1 -48 -26.5 -78.5
t-68.5 -30.5q-19 0 -35 6.5t-39 20.5q-19 11 -33 17t-29 6q-25 0 -39 -14t-19 -36h-18q1 48 26.5 78.5z" />
    <glyph glyph-name="Imacron" unicode="&#x12a;" horiz-adv-x="316" 
d="M16 22h10q78 0 78 88v480q0 88 -78 88h-10v22h284v-22h-10q-78 0 -78 -88v-480q0 -88 78 -88h10v-22h-284v22zM283 797v-34h-250v34h250z" />
    <glyph glyph-name="imacron" unicode="&#x12b;" horiz-adv-x="268" 
d="M194.5 38.5q13.5 -16.5 46.5 -16.5h10v-22h-234v22h10q33 0 46.5 16.5t13.5 57.5v291q0 41 -16 56t-44 15h-10v22l164 14v-398q0 -41 13.5 -57.5zM249 632v-34h-250v34h250z" />
    <glyph glyph-name="Ibreve" unicode="&#x12c;" horiz-adv-x="316" 
d="M16 22h10q78 0 78 88v480q0 88 -78 88h-10v22h284v-22h-10q-78 0 -78 -88v-480q0 -88 78 -88h10v-22h-284v22zM91.5 791.5q-23.5 30.5 -23.5 74.5h19q17 -60 71 -60t71 60h19q0 -44 -23.5 -74.5t-66.5 -30.5t-66.5 30.5z" />
    <glyph glyph-name="ibreve" unicode="&#x12d;" horiz-adv-x="268" 
d="M194.5 38.5q13.5 -16.5 46.5 -16.5h10v-22h-234v22h10q33 0 46.5 16.5t13.5 57.5v291q0 41 -16 56t-44 15h-10v22l164 14v-398q0 -41 13.5 -57.5zM57.5 573.5q-23.5 30.5 -23.5 74.5h19q17 -60 71 -60t71 60h19q0 -44 -23.5 -74.5t-66.5 -30.5t-66.5 30.5z" />
    <glyph glyph-name="Iogonek" unicode="&#x12e;" horiz-adv-x="316" 
d="M212 590v-480q0 -88 78 -88h10v-22h-118q-68 -42 -68 -98q0 -28 16 -45.5t43 -17.5q23 0 38 11.5t26 32.5l9 -4q-12 -32 -34 -54t-57 -22q-39 0 -64.5 26t-25.5 63q0 33 21 61t61 47h-131v22h10q78 0 78 88v480q0 88 -78 88h-10v22h284v-22h-10q-78 0 -78 -88z" />
    <glyph glyph-name="iogonek" unicode="&#x12f;" horiz-adv-x="268" 
d="M78 577q-19 19 -19 46t19 46t46 19t46 -19t19 -46t-19 -46t-46 -19t-46 19zM86 -98q0 -28 16 -45.5t43 -17.5q23 0 38 11.5t26 32.5l9 -4q-12 -32 -34 -54t-57 -22q-39 0 -64.5 26t-25.5 63q0 33 21 61t61 47h-102v22h10q33 0 46.5 16.5t13.5 57.5v291q0 41 -16 56
t-44 15h-10v22l164 14v-398q0 -41 13.5 -57.5t46.5 -16.5h10v-22h-97q-68 -42 -68 -98z" />
    <glyph glyph-name="Idotaccent" unicode="&#x130;" horiz-adv-x="316" 
d="M16 22h10q78 0 78 88v480q0 88 -78 88h-10v22h284v-22h-10q-78 0 -78 -88v-480q0 -88 78 -88h10v-22h-284v22zM112 872q19 19 46 19t46 -19t19 -46t-19 -46t-46 -19t-46 19t-19 46t19 46z" />
    <glyph glyph-name="dotlessi" unicode="&#x131;" horiz-adv-x="268" 
d="M194.5 38.5q13.5 -16.5 46.5 -16.5h10v-22h-234v22h10q33 0 46.5 16.5t13.5 57.5v291q0 41 -16 56t-44 15h-10v22l164 14v-398q0 -41 13.5 -57.5z" />
    <glyph glyph-name="IJ" unicode="&#x132;" horiz-adv-x="743" 
d="M16 22h10q78 0 78 88v480q0 88 -78 88h-10v22h284v-22h-10q-78 0 -78 -88v-480q0 -88 78 -88h10v-22h-284v22zM355 14q-43 28 -43 80q0 26 15.5 44t41.5 18q25 0 42 -15.5t17 -38.5q0 -17 -13 -37q-1 -2 -4.5 -7.5t-3.5 -11.5q0 -15 14 -24.5t37 -9.5q73 0 73 90v488
q0 88 -78 88h-10v22h284v-22h-10q-78 0 -78 -88v-440q0 -53 -25 -90t-66 -55.5t-89 -18.5q-61 0 -104 28z" />
    <glyph glyph-name="ij" unicode="&#x133;" horiz-adv-x="498" 
d="M194.5 38.5q13.5 -16.5 46.5 -16.5h10v-22h-234v22h10q33 0 46.5 16.5t13.5 57.5v291q0 41 -16 56t-44 15h-10v22l164 14v-398q0 -41 13.5 -57.5zM78 669q19 19 46 19t46 -19t19 -46t-19 -46t-46 -19t-46 19t-19 46t19 46zM354 669q19 19 46 19t46 -19t19 -46t-19 -46
t-46 -19t-46 19t-19 46t19 46zM415.5 -149q-31.5 -33 -83.5 -33q-50 0 -77.5 25t-27.5 55q0 23 13 36.5t34 13.5t34 -12t13 -31q0 -5 -2.5 -16.5t-2.5 -16.5q0 -12 9.5 -21t24.5 -9q17 0 27.5 13t10.5 30q0 16 -3.5 30.5t-11.5 35.5q-10 31 -15 53.5t-5 52.5v330
q0 41 -16 56t-44 15h-10v22l164 14v-535q0 -75 -31.5 -108z" />
    <glyph glyph-name="Jcircumflex" unicode="&#x134;" horiz-adv-x="445" 
d="M57 14q-43 28 -43 80q0 26 15.5 44t41.5 18q25 0 42 -15.5t17 -38.5q0 -17 -13 -37q-1 -2 -4.5 -7.5t-3.5 -11.5q0 -15 14 -24.5t37 -9.5q73 0 73 90v488q0 88 -78 88h-10v22h284v-22h-10q-78 0 -78 -88v-440q0 -53 -25 -90t-66 -55.5t-89 -18.5q-61 0 -104 28zM421 764
l-136 76l-136 -76h-30l126 134h80l126 -134h-30z" />
    <glyph glyph-name="jcircumflex" unicode="&#x135;" horiz-adv-x="264" 
d="M181.5 -149q-31.5 -33 -83.5 -33q-50 0 -77.5 25t-27.5 55q0 23 13 36.5t34 13.5t34 -12t13 -31q0 -5 -2.5 -16.5t-2.5 -16.5q0 -12 9.5 -21t24.5 -9q17 0 27.5 13t10.5 30q0 16 -3.5 30.5t-11.5 35.5q-10 31 -15 53.5t-5 52.5v330q0 41 -16 56t-44 15h-10v22l164 14
v-535q0 -75 -31.5 -108zM248 550l-109 95l-109 -95h-30l99 150h80l99 -150h-30z" />
    <glyph glyph-name="uni0136" unicode="&#x136;" horiz-adv-x="659" 
d="M212 590v-480q0 -88 78 -88h10v-22h-284v22h10q78 0 78 88v480q0 88 -78 88h-10v22h284v-22h-10q-78 0 -78 -88zM646 22v-22h-155q-17 9 -38 35l-241 322l208 239q19 22 26 32.5t7 21.5q0 28 -36 28h-13v22h215v-22h-10q-43 0 -77 -22.5t-82 -77.5l-135 -157l250 -333
q37 -47 81 -66zM246 -300q41 29 68 65.5t31 78.5q-14 -7 -34 -7q-27 0 -45.5 17.5t-18.5 43.5t17.5 45.5t46.5 19.5q37 0 56 -25t19 -63q0 -60 -32 -106.5t-95 -83.5z" />
    <glyph glyph-name="uni0137" unicode="&#x137;" horiz-adv-x="553" 
d="M17 22h10q33 0 46.5 16.5t13.5 57.5v511q0 41 -16 56t-44 15h-10v22l164 14v-618q0 -41 13.5 -57.5t46.5 -16.5h10v-22h-234v22zM329 22q11 0 16.5 6t5.5 15t-6 18l-164 211l146 129q19 18 19 33q0 11 -9.5 17.5t-25.5 6.5h-10v22h189v-22h-8q-30 0 -55.5 -16t-55.5 -42
l-95 -83l182 -236q22 -29 38.5 -42t42.5 -17v-22h-210v22zM194 -300q41 29 68 65.5t31 78.5q-14 -7 -34 -7q-27 0 -45.5 17.5t-18.5 43.5t17.5 45.5t46.5 19.5q37 0 56 -25t19 -63q0 -60 -32 -106.5t-95 -83.5z" />
    <glyph glyph-name="kgreenlandic" unicode="&#x138;" horiz-adv-x="553" 
d="M17 22h10q33 0 46.5 16.5t13.5 57.5v291q0 41 -16 56t-44 15h-10v22l164 14v-398q0 -41 13.5 -57.5t46.5 -16.5h10v-22h-234v22zM329 22q11 0 16.5 6t5.5 15t-6 18l-164 211l146 129q19 18 19 33q0 11 -9.5 17.5t-25.5 6.5h-10v22h189v-22h-8q-30 0 -55.5 -16t-55.5 -42
l-95 -83l182 -236q22 -29 38.5 -42t42.5 -17v-22h-210v22z" />
    <glyph glyph-name="Lacute" unicode="&#x139;" horiz-adv-x="573" 
d="M16 22h10q78 0 78 88v480q0 88 -78 88h-10v22h284v-22h-10q-78 0 -78 -88v-486q0 -42 14 -56t46 -14h81q58 0 93 17t56 54t38 104h23l-14 -209h-533v22zM262 932q14 0 23.5 -9t9.5 -23q0 -17 -14 -32l-96 -104h-26l66 141q13 27 37 27z" />
    <glyph glyph-name="lacute" unicode="&#x13a;" horiz-adv-x="268" 
d="M17 22h10q33 0 46.5 16.5t13.5 57.5v511q0 41 -16 56t-44 15h-10v22l164 14v-618q0 -41 13.5 -57.5t46.5 -16.5h10v-22h-234v22zM223 952q14 0 23.5 -9t9.5 -23q0 -17 -14 -32l-96 -104h-26l66 141q13 27 37 27z" />
    <glyph glyph-name="uni013B" unicode="&#x13b;" horiz-adv-x="573" 
d="M16 22h10q78 0 78 88v480q0 88 -78 88h-10v22h284v-22h-10q-78 0 -78 -88v-486q0 -42 14 -56t46 -14h81q58 0 93 17t56 54t38 104h23l-14 -209h-533v22zM219 -300q41 29 68 65.5t31 78.5q-14 -7 -34 -7q-27 0 -45.5 17.5t-18.5 43.5t17.5 45.5t46.5 19.5q37 0 56 -25
t19 -63q0 -60 -32 -106.5t-95 -83.5z" />
    <glyph glyph-name="uni013C" unicode="&#x13c;" horiz-adv-x="268" 
d="M17 22h10q33 0 46.5 16.5t13.5 57.5v511q0 41 -16 56t-44 15h-10v22l164 14v-618q0 -41 13.5 -57.5t46.5 -16.5h10v-22h-234v22zM66 -300q41 29 68 65.5t31 78.5q-14 -7 -34 -7q-27 0 -45.5 17.5t-18.5 43.5t17.5 45.5t46.5 19.5q37 0 56 -25t19 -63q0 -60 -32 -106.5
t-95 -83.5z" />
    <glyph glyph-name="Lcaron" unicode="&#x13d;" horiz-adv-x="573" 
d="M16 22h10q78 0 78 88v480q0 88 -78 88h-10v22h284v-22h-10q-78 0 -78 -88v-486q0 -42 14 -56t46 -14h81q58 0 93 17t56 54t38 104h23l-14 -209h-533v22zM395 456q50 21 78 54.5t30 84.5q-14 -7 -36 -7q-26 0 -44 17.5t-18 43.5q0 27 17.5 46t46.5 19q37 0 56 -25t19 -63
q0 -63 -39.5 -114.5t-102.5 -70.5z" />
    <glyph glyph-name="lcaron" unicode="&#x13e;" horiz-adv-x="376" 
d="M17 22h10q33 0 46.5 16.5t13.5 57.5v511q0 41 -16 56t-44 15h-10v22l164 14v-618q0 -41 13.5 -57.5t46.5 -16.5h10v-22h-234v22zM233 542q50 21 78 54.5t30 84.5q-14 -7 -36 -7q-26 0 -44 17.5t-18 43.5q0 27 17.5 46t46.5 19q37 0 56 -25t19 -63q0 -63 -39.5 -114.5
t-102.5 -70.5z" />
    <glyph glyph-name="Ldot" unicode="&#x13f;" horiz-adv-x="573" 
d="M16 22h10q78 0 78 88v480q0 88 -78 88h-10v22h284v-22h-10q-78 0 -78 -88v-486q0 -42 14 -56t46 -14h81q58 0 93 17t56 54t38 104h23l-14 -209h-533v22zM444.5 394.5q18.5 18.5 44.5 18.5t44.5 -18.5t18.5 -44.5t-18.5 -44.5t-44.5 -18.5t-44.5 18.5t-18.5 44.5
t18.5 44.5z" />
    <glyph glyph-name="ldot" unicode="&#x140;" horiz-adv-x="436" 
d="M17 22h10q33 0 46.5 16.5t13.5 57.5v511q0 41 -16 56t-44 15h-10v22l164 14v-618q0 -41 13.5 -57.5t46.5 -16.5h10v-22h-234v22zM272.5 403.5q18.5 18.5 44.5 18.5t44.5 -18.5t18.5 -44.5t-18.5 -44.5t-44.5 -18.5t-44.5 18.5t-18.5 44.5t18.5 44.5z" />
    <glyph glyph-name="Lslash" unicode="&#x141;" horiz-adv-x="573" 
d="M563 209l-14 -209h-533v22h10q78 0 78 88v170l-88 -49l-17 29l105 58v272q0 88 -78 88h-10v22h284v-22h-10q-78 0 -78 -88v-212l200 111l17 -30l-217 -120v-235q0 -42 14 -56t46 -14h81q58 0 93 17t56 54t38 104h23z" />
    <glyph glyph-name="lslash" unicode="&#x142;" horiz-adv-x="309" 
d="M212.5 38.5q13.5 -16.5 46.5 -16.5h10v-22h-234v22h10q33 0 46.5 16.5t13.5 57.5v154l-91 -50l-17 29l108 59v319q0 41 -16 56t-44 15h-10v22l164 14v-374l96 53l17 -30l-113 -62v-205q0 -41 13.5 -57.5z" />
    <glyph glyph-name="Nacute" unicode="&#x143;" horiz-adv-x="711" 
d="M16 22h10q78 0 78 88v480q0 88 -78 88h-10v22h142l415 -499v389q0 88 -78 88h-10v22h210v-22h-10q-78 0 -78 -88v-596h-10l-459 553v-437q0 -88 78 -88h10v-22h-210v22zM456 932q14 0 23.5 -9t9.5 -23q0 -17 -14 -32l-96 -104h-26l66 141q13 27 37 27z" />
    <glyph glyph-name="nacute" unicode="&#x144;" horiz-adv-x="581" 
d="M17 22h10q33 0 46.5 16.5t13.5 57.5v288q0 41 -13.5 57.5t-46.5 16.5h-10v22l164 14v-118q32 54 78 86t99 32q66 0 101 -37t35 -99v-262q0 -41 13.5 -57.5t46.5 -16.5h10v-22h-234v22h10q33 0 46.5 16.5t13.5 57.5v231q0 100 -94 100q-36 0 -70 -24t-55 -63v-244
q0 -41 13.5 -57.5t46.5 -16.5h10v-22h-234v22zM380 718q14 0 23.5 -9t9.5 -23q0 -17 -14 -32l-96 -104h-26l66 141q13 27 37 27z" />
    <glyph glyph-name="uni0145" unicode="&#x145;" horiz-adv-x="711" 
d="M16 22h10q78 0 78 88v480q0 88 -78 88h-10v22h142l415 -499v389q0 88 -78 88h-10v22h210v-22h-10q-78 0 -78 -88v-596h-10l-459 553v-437q0 -88 78 -88h10v-22h-210v22zM288 -300q41 29 68 65.5t31 78.5q-14 -7 -34 -7q-27 0 -45.5 17.5t-18.5 43.5t17.5 45.5t46.5 19.5
q37 0 56 -25t19 -63q0 -60 -32 -106.5t-95 -83.5z" />
    <glyph glyph-name="uni0146" unicode="&#x146;" horiz-adv-x="581" 
d="M17 22h10q33 0 46.5 16.5t13.5 57.5v288q0 41 -13.5 57.5t-46.5 16.5h-10v22l164 14v-118q32 54 78 86t99 32q66 0 101 -37t35 -99v-262q0 -41 13.5 -57.5t46.5 -16.5h10v-22h-234v22h10q33 0 46.5 16.5t13.5 57.5v231q0 100 -94 100q-36 0 -70 -24t-55 -63v-244
q0 -41 13.5 -57.5t46.5 -16.5h10v-22h-234v22zM223 -300q41 29 68 65.5t31 78.5q-14 -7 -34 -7q-27 0 -45.5 17.5t-18.5 43.5t17.5 45.5t46.5 19.5q37 0 56 -25t19 -63q0 -60 -32 -106.5t-95 -83.5z" />
    <glyph glyph-name="Ncaron" unicode="&#x147;" horiz-adv-x="711" 
d="M16 22h10q78 0 78 88v480q0 88 -78 88h-10v22h142l415 -499v389q0 88 -78 88h-10v22h210v-22h-10q-78 0 -78 -88v-596h-10l-459 553v-437q0 -88 78 -88h10v-22h-210v22zM396 764h-80l-106 134h30l116 -76l116 76h30z" />
    <glyph glyph-name="ncaron" unicode="&#x148;" horiz-adv-x="581" 
d="M17 22h10q33 0 46.5 16.5t13.5 57.5v288q0 41 -13.5 57.5t-46.5 16.5h-10v22l164 14v-118q32 54 78 86t99 32q66 0 101 -37t35 -99v-262q0 -41 13.5 -57.5t46.5 -16.5h10v-22h-234v22h10q33 0 46.5 16.5t13.5 57.5v231q0 100 -94 100q-36 0 -70 -24t-55 -63v-244
q0 -41 13.5 -57.5t46.5 -16.5h10v-22h-234v22zM251 550l-99 150h30l109 -95l109 95h30l-99 -150h-80z" />
    <glyph glyph-name="Eng" unicode="&#x14a;" horiz-adv-x="711" 
d="M420 -209q-30 25 -30 65q0 25 17 42t41 17t39 -14t15 -35q0 -10 -2.5 -16t-8.5 -14q-1 -1 -4.5 -6.5t-3.5 -12.5q0 -21 31 -21q28 0 43.5 22.5t15.5 60.5v144l-435 524v-437q0 -88 78 -88h10v-22h-210v22h10q78 0 78 88v480q0 88 -78 88h-10v22h142l415 -499v389
q0 88 -78 88h-10v22h210v-22h-10q-78 0 -78 -88v-694q0 -130 -110 -130q-47 0 -77 25z" />
    <glyph glyph-name="eng" unicode="&#x14b;" horiz-adv-x="542" 
d="M306 427q-36 0 -70 -24t-55 -63v-244q0 -41 13.5 -57.5t46.5 -16.5h10v-22h-234v22h10q33 0 46.5 16.5t13.5 57.5v288q0 41 -13.5 57.5t-46.5 16.5h-10v22l164 14v-118q32 54 78 86t99 32q66 0 101 -37t35 -99v-392q0 -148 -119 -148q-49 0 -75 25t-26 55q0 23 13 36.5
t34 13.5t34 -12t13 -31q0 -5 -2.5 -16.5t-2.5 -16.5q0 -11 10.5 -20t23.5 -9q17 0 27.5 12.5t10.5 29.5q0 16 -3.5 30.5t-11.5 35.5q-10 31 -15 53.5t-5 52.5v270q0 100 -94 100z" />
    <glyph glyph-name="Omacron" unicode="&#x14c;" horiz-adv-x="747" 
d="M210.5 28.5q-79.5 42.5 -130 125.5t-50.5 196t50.5 196t130 125.5t162.5 42.5t162.5 -42.5t130 -125.5t50.5 -196t-50.5 -196t-130 -125.5t-162.5 -42.5t-162.5 42.5zM534 105q56 85 56 245t-56 245t-161 85t-161 -85t-56 -245t56 -245t161 -85t161 85zM498 797v-34h-250
v34h250z" />
    <glyph glyph-name="omacron" unicode="&#x14d;" horiz-adv-x="535" 
d="M57.5 367q31.5 61 86 94t121.5 33q70 0 125.5 -30.5t87 -85.5t31.5 -126q0 -76 -33 -137t-88 -95t-119 -34q-74 0 -129 32t-84.5 87t-29.5 122q0 79 31.5 140zM168.5 83.5q38.5 -67.5 104.5 -67.5q59 0 95.5 53.5t36.5 149.5q0 122 -38.5 183.5t-104.5 61.5
q-37 0 -67 -24.5t-47.5 -70.5t-17.5 -110q0 -108 38.5 -175.5zM390 632v-34h-250v34h250z" />
    <glyph glyph-name="Obreve" unicode="&#x14e;" horiz-adv-x="747" 
d="M210.5 28.5q-79.5 42.5 -130 125.5t-50.5 196t50.5 196t130 125.5t162.5 42.5t162.5 -42.5t130 -125.5t50.5 -196t-50.5 -196t-130 -125.5t-162.5 -42.5t-162.5 42.5zM534 105q56 85 56 245t-56 245t-161 85t-161 -85t-56 -245t56 -245t161 -85t161 85zM306.5 791.5
q-23.5 30.5 -23.5 74.5h19q17 -60 71 -60t71 60h19q0 -44 -23.5 -74.5t-66.5 -30.5t-66.5 30.5z" />
    <glyph glyph-name="obreve" unicode="&#x14f;" horiz-adv-x="535" 
d="M57.5 367q31.5 61 86 94t121.5 33q70 0 125.5 -30.5t87 -85.5t31.5 -126q0 -76 -33 -137t-88 -95t-119 -34q-74 0 -129 32t-84.5 87t-29.5 122q0 79 31.5 140zM168.5 83.5q38.5 -67.5 104.5 -67.5q59 0 95.5 53.5t36.5 149.5q0 122 -38.5 183.5t-104.5 61.5
q-37 0 -67 -24.5t-47.5 -70.5t-17.5 -110q0 -108 38.5 -175.5zM198.5 573.5q-23.5 30.5 -23.5 74.5h19q17 -60 71 -60t71 60h19q0 -44 -23.5 -74.5t-66.5 -30.5t-66.5 30.5z" />
    <glyph glyph-name="Ohungarumlaut" unicode="&#x150;" horiz-adv-x="747" 
d="M210.5 28.5q-79.5 42.5 -130 125.5t-50.5 196t50.5 196t130 125.5t162.5 42.5t162.5 -42.5t130 -125.5t50.5 -196t-50.5 -196t-130 -125.5t-162.5 -42.5t-162.5 42.5zM534 105q56 85 56 245t-56 245t-161 85t-161 -85t-56 -245t56 -245t161 -85t161 85zM380 932
q14 0 23.5 -9t9.5 -23q0 -17 -14 -32l-96 -104h-26l66 141q13 27 37 27zM509 932q14 0 23.5 -9t9.5 -23q0 -17 -14 -32l-96 -104h-26l66 141q13 27 37 27z" />
    <glyph glyph-name="ohungarumlaut" unicode="&#x151;" horiz-adv-x="535" 
d="M57.5 367q31.5 61 86 94t121.5 33q70 0 125.5 -30.5t87 -85.5t31.5 -126q0 -76 -33 -137t-88 -95t-119 -34q-74 0 -129 32t-84.5 87t-29.5 122q0 79 31.5 140zM168.5 83.5q38.5 -67.5 104.5 -67.5q59 0 95.5 53.5t36.5 149.5q0 122 -38.5 183.5t-104.5 61.5
q-37 0 -67 -24.5t-47.5 -70.5t-17.5 -110q0 -108 38.5 -175.5zM290 718q14 0 23.5 -9t9.5 -23q0 -17 -14 -32l-96 -104h-26l66 141q13 27 37 27zM419 718q14 0 23.5 -9t9.5 -23q0 -17 -14 -32l-96 -104h-26l66 141q13 27 37 27z" />
    <glyph glyph-name="OE" unicode="&#x152;" horiz-adv-x="1074" 
d="M210.5 28.5q-79.5 42.5 -130 125.5t-50.5 196t50.5 196t130 125.5t162.5 42.5q46 0 94 -14h571v-177h-22q-5 76 -38.5 109.5t-111.5 33.5h-89q-32 0 -46 -14t-14 -56v-227h117q51 0 78.5 32.5t27.5 87.5h22v-274h-22q0 55 -27.5 87.5t-78.5 32.5h-117v-231q0 -42 14 -56
t46 -14h72q84 0 128.5 34.5t61.5 118.5h22l-14 -187h-580q-48 -14 -94 -14q-83 0 -162.5 42.5zM534 105q56 85 56 245t-56 245t-161 85t-161 -85t-56 -245t56 -245t161 -85t161 85z" />
    <glyph glyph-name="oe" unicode="&#x153;" horiz-adv-x="856" 
d="M140 18q-55 32 -84.5 87t-29.5 122q0 79 31.5 140t86 94t121.5 33q61 0 111 -23.5t83 -65.5q32 42 77 65.5t95 23.5q55 0 101.5 -26t74 -74t27.5 -111h-317q0 -112 42 -173.5t114 -61.5q50 0 85.5 32.5t53.5 90.5l15 -4q-12 -82 -65 -131.5t-129 -49.5q-59 0 -106 23.5
t-77 66.5q-34 -43 -81 -66.5t-100 -23.5q-74 0 -129 32zM369 71q36 55 36 161q0 112 -39 172t-104 60q-37 0 -67 -24.5t-47.5 -70.5t-17.5 -110q0 -108 38.5 -175.5t104.5 -67.5q60 0 96 55zM740 313q0 64 -30 107.5t-81 43.5q-27 0 -51.5 -18.5t-40.5 -53t-19 -79.5h222z
" />
    <glyph glyph-name="Racute" unicode="&#x154;" horiz-adv-x="630" 
d="M16 22h10q78 0 78 88v480q0 88 -78 88h-10v22h281q126 0 199.5 -48.5t73.5 -138.5q0 -66 -44.5 -114t-120.5 -68l127 -242q16 -31 34 -46t48 -21v-22h-143q-11 3 -20.5 11.5t-15.5 19.5l-148 286h-75v-207q0 -88 78 -88h10v-22h-284v22zM252 351q109 0 159.5 43.5
t50.5 120.5q0 67 -37 109t-107 42h-36q-38 0 -54 -16.5t-16 -59.5v-239h40zM378 932q14 0 23.5 -9t9.5 -23q0 -17 -14 -32l-96 -104h-26l66 141q13 27 37 27z" />
    <glyph glyph-name="racute" unicode="&#x155;" horiz-adv-x="392" 
d="M73.5 441.5q-13.5 16.5 -46.5 16.5h-10v22l164 14v-68q16 29 48.5 48.5t66.5 19.5q37 0 59 -19t22 -53q0 -28 -18 -44.5t-43 -16.5q-28 0 -46 27l-9.5 19t-14 19t-20.5 6q-17 0 -31 -19.5t-14 -66.5v-250q0 -41 13.5 -57.5t46.5 -16.5h10v-22h-234v22h10q33 0 46.5 16.5
t13.5 57.5v288q0 41 -13.5 57.5zM280 718q14 0 23.5 -9t9.5 -23q0 -17 -14 -32l-96 -104h-26l66 141q13 27 37 27z" />
    <glyph glyph-name="uni0156" unicode="&#x156;" horiz-adv-x="630" 
d="M16 22h10q78 0 78 88v480q0 88 -78 88h-10v22h281q126 0 199.5 -48.5t73.5 -138.5q0 -66 -44.5 -114t-120.5 -68l127 -242q16 -31 34 -46t48 -21v-22h-143q-11 3 -20.5 11.5t-15.5 19.5l-148 286h-75v-207q0 -88 78 -88h10v-22h-284v22zM252 351q109 0 159.5 43.5
t50.5 120.5q0 67 -37 109t-107 42h-36q-38 0 -54 -16.5t-16 -59.5v-239h40zM246 -300q41 29 68 65.5t31 78.5q-14 -7 -34 -7q-27 0 -45.5 17.5t-18.5 43.5t17.5 45.5t46.5 19.5q37 0 56 -25t19 -63q0 -60 -32 -106.5t-95 -83.5z" />
    <glyph glyph-name="uni0157" unicode="&#x157;" horiz-adv-x="392" 
d="M73.5 441.5q-13.5 16.5 -46.5 16.5h-10v22l164 14v-68q16 29 48.5 48.5t66.5 19.5q37 0 59 -19t22 -53q0 -28 -18 -44.5t-43 -16.5q-28 0 -46 27l-9.5 19t-14 19t-20.5 6q-17 0 -31 -19.5t-14 -66.5v-250q0 -41 13.5 -57.5t46.5 -16.5h10v-22h-234v22h10q33 0 46.5 16.5
t13.5 57.5v288q0 41 -13.5 57.5zM66 -300q41 29 68 65.5t31 78.5q-14 -7 -34 -7q-27 0 -45.5 17.5t-18.5 43.5t17.5 45.5t46.5 19.5q37 0 56 -25t19 -63q0 -60 -32 -106.5t-95 -83.5z" />
    <glyph glyph-name="Rcaron" unicode="&#x158;" horiz-adv-x="630" 
d="M16 22h10q78 0 78 88v480q0 88 -78 88h-10v22h281q126 0 199.5 -48.5t73.5 -138.5q0 -66 -44.5 -114t-120.5 -68l127 -242q16 -31 34 -46t48 -21v-22h-143q-11 3 -20.5 11.5t-15.5 19.5l-148 286h-75v-207q0 -88 78 -88h10v-22h-284v22zM252 351q109 0 159.5 43.5
t50.5 120.5q0 67 -37 109t-107 42h-36q-38 0 -54 -16.5t-16 -59.5v-239h40zM318 764h-80l-106 134h30l116 -76l116 76h30z" />
    <glyph glyph-name="rcaron" unicode="&#x159;" horiz-adv-x="392" 
d="M73.5 441.5q-13.5 16.5 -46.5 16.5h-10v22l164 14v-68q16 29 48.5 48.5t66.5 19.5q37 0 59 -19t22 -53q0 -28 -18 -44.5t-43 -16.5q-28 0 -46 27l-9.5 19t-14 19t-20.5 6q-17 0 -31 -19.5t-14 -66.5v-250q0 -41 13.5 -57.5t46.5 -16.5h10v-22h-234v22h10q33 0 46.5 16.5
t13.5 57.5v288q0 41 -13.5 57.5zM151 550l-99 150h30l109 -95l109 95h30l-99 -150h-80z" />
    <glyph glyph-name="Sacute" unicode="&#x15a;" horiz-adv-x="539" 
d="M208.5 -0.5q-34.5 13.5 -78.5 42.5q-13 8 -25 8q-11 0 -18.5 -12.5t-7.5 -37.5h-24v239h24q9 -59 39 -109t73.5 -80t91.5 -30q58 0 93 34t35 92q0 43 -23.5 74t-61.5 53t-100 48q-164 68 -164 209q0 55 29 97t77 64.5t103 22.5q38 0 69 -10t67 -30q13 -8 22 -8
q7 0 12.5 6.5t5.5 18.5v9h24v-199h-24q-11 83 -58.5 131t-116.5 48q-52 0 -84 -29.5t-32 -77.5q0 -54 47 -94t136 -77t129.5 -84t40.5 -116q0 -66 -32.5 -115t-83.5 -75t-104 -26q-46 0 -80.5 13.5zM371 932q14 0 23.5 -9t9.5 -23q0 -17 -14 -32l-96 -104h-26l66 141
q13 27 37 27z" />
    <glyph glyph-name="sacute" unicode="&#x15b;" horiz-adv-x="404" 
d="M275.5 144.5q-15.5 19.5 -40.5 32.5t-67 28q-67 24 -99 63.5t-32 87.5q0 40 22 71.5t59.5 49t80.5 17.5q31 0 52 -7t47 -23q10 -6 18 -6q7 0 11.5 6t4.5 16h24v-154h-19q-8 63 -44 99.5t-91 36.5q-40 0 -62 -20.5t-22 -50.5q0 -36 30 -60t93 -49q69 -27 102 -60t33 -85
q0 -66 -46.5 -108.5t-119.5 -42.5q-37 0 -63.5 9t-53.5 27q-8 5 -15 5q-10 0 -16 -7.5t-6 -19.5h-26v172h24q12 -71 53 -112.5t91 -41.5q43 0 68 21t25 57q0 29 -15.5 48.5zM287 718q14 0 23.5 -9t9.5 -23q0 -17 -14 -32l-96 -104h-26l66 141q13 27 37 27z" />
    <glyph glyph-name="Scircumflex" unicode="&#x15c;" horiz-adv-x="539" 
d="M208.5 -0.5q-34.5 13.5 -78.5 42.5q-13 8 -25 8q-11 0 -18.5 -12.5t-7.5 -37.5h-24v239h24q9 -59 39 -109t73.5 -80t91.5 -30q58 0 93 34t35 92q0 43 -23.5 74t-61.5 53t-100 48q-164 68 -164 209q0 55 29 97t77 64.5t103 22.5q38 0 69 -10t67 -30q13 -8 22 -8
q7 0 12.5 6.5t5.5 18.5v9h24v-199h-24q-11 83 -58.5 131t-116.5 48q-52 0 -84 -29.5t-32 -77.5q0 -54 47 -94t136 -77t129.5 -84t40.5 -116q0 -66 -32.5 -115t-83.5 -75t-104 -26q-46 0 -80.5 13.5zM407 764l-136 76l-136 -76h-30l126 134h80l126 -134h-30z" />
    <glyph glyph-name="scircumflex" unicode="&#x15d;" horiz-adv-x="404" 
d="M275.5 144.5q-15.5 19.5 -40.5 32.5t-67 28q-67 24 -99 63.5t-32 87.5q0 40 22 71.5t59.5 49t80.5 17.5q31 0 52 -7t47 -23q10 -6 18 -6q7 0 11.5 6t4.5 16h24v-154h-19q-8 63 -44 99.5t-91 36.5q-40 0 -62 -20.5t-22 -50.5q0 -36 30 -60t93 -49q69 -27 102 -60t33 -85
q0 -66 -46.5 -108.5t-119.5 -42.5q-37 0 -63.5 9t-53.5 27q-8 5 -15 5q-10 0 -16 -7.5t-6 -19.5h-26v172h24q12 -71 53 -112.5t91 -41.5q43 0 68 21t25 57q0 29 -15.5 48.5zM306 550l-109 95l-109 -95h-30l99 150h80l99 -150h-30z" />
    <glyph glyph-name="Scedilla" unicode="&#x15e;" horiz-adv-x="539" 
d="M270 -13l-18 -33q21 8 41 8q29 0 51.5 -21t22.5 -60q0 -42 -26 -65.5t-64 -23.5q-28 0 -48 14.5t-30 34.5l9 9q23 -31 54 -31q23 0 37.5 15t14.5 43q0 23 -15 38t-36 15q-17 0 -27.5 -6t-19.5 -15l-7 4l36 77q-30 6 -56 18t-59 34q-13 8 -25 8q-11 0 -18.5 -12.5
t-7.5 -37.5h-24v239h24q9 -59 39 -109t73.5 -80t91.5 -30q58 0 93 34t35 92q0 43 -23.5 74t-61.5 53t-100 48q-164 68 -164 209q0 55 29 97t77 64.5t103 22.5q38 0 69 -10t67 -30q13 -8 22 -8q7 0 12.5 6.5t5.5 18.5v9h24v-199h-24q-11 83 -58.5 131t-116.5 48
q-52 0 -84 -29.5t-32 -77.5q0 -54 47 -94t136 -77t129.5 -84t40.5 -116q0 -66 -32.5 -115t-83.5 -75t-104 -26q-13 0 -19 1z" />
    <glyph glyph-name="scedilla" unicode="&#x15f;" horiz-adv-x="404" 
d="M202 -14l-18 -32q21 8 41 8q29 0 51.5 -21t22.5 -60q0 -42 -26 -65.5t-64 -23.5q-28 0 -48 14.5t-30 34.5l9 9q23 -31 54 -31q23 0 37.5 15t14.5 43q0 23 -15 38t-36 15q-17 0 -27.5 -6t-19.5 -15l-7 4l35 75q-42 6 -83 34q-8 5 -15 5q-10 0 -16 -7.5t-6 -19.5h-26v172
h24q12 -71 53 -112.5t91 -41.5q43 0 68 21t25 57q0 29 -15.5 48.5t-40.5 32.5t-67 28q-67 24 -99 63.5t-32 87.5q0 40 22 71.5t59.5 49t80.5 17.5q31 0 52 -7t47 -23q10 -6 18 -6q7 0 11.5 6t4.5 16h24v-154h-19q-8 63 -44 99.5t-91 36.5q-40 0 -62 -20.5t-22 -50.5
q0 -36 30 -60t93 -49q69 -27 102 -60t33 -85q0 -66 -46.5 -108.5t-119.5 -42.5h-8z" />
    <glyph glyph-name="Scaron" unicode="&#x160;" horiz-adv-x="539" 
d="M208.5 -0.5q-34.5 13.5 -78.5 42.5q-13 8 -25 8q-11 0 -18.5 -12.5t-7.5 -37.5h-24v239h24q9 -59 39 -109t73.5 -80t91.5 -30q58 0 93 34t35 92q0 43 -23.5 74t-61.5 53t-100 48q-164 68 -164 209q0 55 29 97t77 64.5t103 22.5q38 0 69 -10t67 -30q13 -8 22 -8
q7 0 12.5 6.5t5.5 18.5v9h24v-199h-24q-11 83 -58.5 131t-116.5 48q-52 0 -84 -29.5t-32 -77.5q0 -54 47 -94t136 -77t129.5 -84t40.5 -116q0 -66 -32.5 -115t-83.5 -75t-104 -26q-46 0 -80.5 13.5zM311 764h-80l-106 134h30l116 -76l116 76h30z" />
    <glyph glyph-name="scaron" unicode="&#x161;" horiz-adv-x="404" 
d="M275.5 144.5q-15.5 19.5 -40.5 32.5t-67 28q-67 24 -99 63.5t-32 87.5q0 40 22 71.5t59.5 49t80.5 17.5q31 0 52 -7t47 -23q10 -6 18 -6q7 0 11.5 6t4.5 16h24v-154h-19q-8 63 -44 99.5t-91 36.5q-40 0 -62 -20.5t-22 -50.5q0 -36 30 -60t93 -49q69 -27 102 -60t33 -85
q0 -66 -46.5 -108.5t-119.5 -42.5q-37 0 -63.5 9t-53.5 27q-8 5 -15 5q-10 0 -16 -7.5t-6 -19.5h-26v172h24q12 -71 53 -112.5t91 -41.5q43 0 68 21t25 57q0 29 -15.5 48.5zM158 550l-99 150h30l109 -95l109 95h30l-99 -150h-80z" />
    <glyph glyph-name="uni0162" unicode="&#x162;" horiz-adv-x="588" 
d="M572 700v-179h-19q-8 72 -43.5 108.5t-100.5 36.5h-25q-36 0 -36 -38v-518q0 -88 78 -88h10v-22h-134l-26 -46q21 8 41 8q29 0 51.5 -21t22.5 -60q0 -42 -26 -65.5t-64 -23.5q-28 0 -48 14.5t-30 34.5l9 9q23 -31 54 -31q23 0 37.5 15t14.5 43q0 23 -15 38t-36 15
q-17 0 -27.5 -6t-19.5 -15l-7 4l41 87h-122v22h10q78 0 78 88v518q0 38 -36 38h-25q-65 0 -100.5 -36.5t-43.5 -108.5h-19v179h556z" />
    <glyph glyph-name="uni0163" unicode="&#x163;" horiz-adv-x="327" 
d="M258.5 -59q22.5 -21 22.5 -60q0 -42 -26 -65.5t-64 -23.5q-28 0 -48 14.5t-30 34.5l9 9q23 -31 54 -31q23 0 37.5 15t14.5 43q0 23 -15 38t-36 15q-17 0 -27.5 -6t-19.5 -15l-7 4l37 80q-32 14 -49.5 48t-17.5 81q0 41 3 92q4 84 4 140v99h-68v27q121 0 138 144h24v-144
h92v-27h-92v-338q0 -62 45 -62q37 0 56 35l10 -6q-14 -47 -39.5 -71.5t-68.5 -24.5q-8 0 -13 1l-18 -33q21 8 41 8q29 0 51.5 -21z" />
    <glyph glyph-name="Tcaron" unicode="&#x164;" horiz-adv-x="588" 
d="M152 22h10q78 0 78 88v518q0 38 -36 38h-25q-65 0 -100.5 -36.5t-43.5 -108.5h-19v179h556v-179h-19q-8 72 -43.5 108.5t-100.5 36.5h-25q-36 0 -36 -38v-518q0 -88 78 -88h10v-22h-284v22zM334 764h-80l-106 134h30l116 -76l116 76h30z" />
    <glyph glyph-name="tcaron" unicode="&#x165;" horiz-adv-x="380" 
d="M286 480v-27h-92v-338q0 -62 45 -62q37 0 56 35l10 -6q-14 -47 -39.5 -71.5t-68.5 -24.5q-47 0 -75.5 38t-28.5 98q0 41 3 92q4 84 4 140v99h-68v27q121 0 138 144h24v-144h92zM237 542q50 21 78 54.5t30 84.5q-14 -7 -36 -7q-26 0 -44 17.5t-18 43.5q0 27 17.5 46
t46.5 19q37 0 56 -25t19 -63q0 -63 -39.5 -114.5t-102.5 -70.5z" />
    <glyph glyph-name="Tbar" unicode="&#x166;" horiz-adv-x="588" 
d="M572 700v-179h-19q-8 72 -43.5 108.5t-100.5 36.5h-25q-36 0 -36 -38v-193h104v-26h-104v-299q0 -88 78 -88h10v-22h-284v22h10q78 0 78 88v299h-104v26h104v193q0 38 -36 38h-25q-65 0 -100.5 -36.5t-43.5 -108.5h-19v179h556z" />
    <glyph glyph-name="tbar" unicode="&#x167;" horiz-adv-x="310" 
d="M305 82q-14 -47 -39.5 -71.5t-68.5 -24.5q-47 0 -75.5 38t-28.5 98q0 40 3 88l2 47h-78v33h79q1 20 1 64v99h-68v27q121 0 138 144h24v-144h92v-27h-92v-163h48v-33h-48v-142q0 -62 45 -62q37 0 56 35z" />
    <glyph glyph-name="Utilde" unicode="&#x168;" horiz-adv-x="711" 
d="M180 54q-76 68 -76 205v331q0 88 -78 88h-10v22h284v-22h-10q-78 0 -78 -88v-367q0 -187 184 -187q87 0 132 50.5t45 143.5v360q0 88 -78 88h-10v22h210v-22h-10q-78 0 -78 -88v-362q0 -111 -61 -176.5t-170 -65.5q-120 0 -196 68zM251.5 842.5q25.5 30.5 68.5 30.5
q19 0 35 -6.5t39 -20.5q19 -11 33 -17t29 -6q25 0 39 14t19 36h18q-1 -48 -26.5 -78.5t-68.5 -30.5q-19 0 -35 6.5t-39 20.5q-19 11 -33 17t-29 6q-25 0 -39 -14t-19 -36h-18q1 48 26.5 78.5z" />
    <glyph glyph-name="utilde" unicode="&#x169;" horiz-adv-x="579" 
d="M505.5 38.5q13.5 -16.5 46.5 -16.5h10v-22l-164 -14v113q-32 -52 -75 -82.5t-92 -30.5q-66 0 -105 40.5t-39 119.5v238q0 41 -13.5 57.5t-46.5 16.5h-10v22l164 14v-341q0 -50 23.5 -75.5t65.5 -25.5q35 0 66.5 19.5t61.5 63.5v249q0 41 -13.5 57.5t-46.5 16.5h-10v22
l164 14v-398q0 -41 13.5 -57.5zM142.5 628.5q25.5 30.5 68.5 30.5q19 0 35 -6.5t39 -20.5q19 -11 33 -17t29 -6q25 0 39 14t19 36h18q-1 -48 -26.5 -78.5t-68.5 -30.5q-19 0 -35 6.5t-39 20.5q-19 11 -33 17t-29 6q-25 0 -39 -14t-19 -36h-18q1 48 26.5 78.5z" />
    <glyph glyph-name="Umacron" unicode="&#x16a;" horiz-adv-x="711" 
d="M180 54q-76 68 -76 205v331q0 88 -78 88h-10v22h284v-22h-10q-78 0 -78 -88v-367q0 -187 184 -187q87 0 132 50.5t45 143.5v360q0 88 -78 88h-10v22h210v-22h-10q-78 0 -78 -88v-362q0 -111 -61 -176.5t-170 -65.5q-120 0 -196 68zM504 797v-34h-250v34h250z" />
    <glyph glyph-name="umacron" unicode="&#x16b;" horiz-adv-x="579" 
d="M505.5 38.5q13.5 -16.5 46.5 -16.5h10v-22l-164 -14v113q-32 -52 -75 -82.5t-92 -30.5q-66 0 -105 40.5t-39 119.5v238q0 41 -13.5 57.5t-46.5 16.5h-10v22l164 14v-341q0 -50 23.5 -75.5t65.5 -25.5q35 0 66.5 19.5t61.5 63.5v249q0 41 -13.5 57.5t-46.5 16.5h-10v22
l164 14v-398q0 -41 13.5 -57.5zM395 632v-34h-250v34h250z" />
    <glyph glyph-name="Ubreve" unicode="&#x16c;" horiz-adv-x="711" 
d="M180 54q-76 68 -76 205v331q0 88 -78 88h-10v22h284v-22h-10q-78 0 -78 -88v-367q0 -187 184 -187q87 0 132 50.5t45 143.5v360q0 88 -78 88h-10v22h210v-22h-10q-78 0 -78 -88v-362q0 -111 -61 -176.5t-170 -65.5q-120 0 -196 68zM312.5 791.5q-23.5 30.5 -23.5 74.5h19
q17 -60 71 -60t71 60h19q0 -44 -23.5 -74.5t-66.5 -30.5t-66.5 30.5z" />
    <glyph glyph-name="ubreve" unicode="&#x16d;" horiz-adv-x="579" 
d="M505.5 38.5q13.5 -16.5 46.5 -16.5h10v-22l-164 -14v113q-32 -52 -75 -82.5t-92 -30.5q-66 0 -105 40.5t-39 119.5v238q0 41 -13.5 57.5t-46.5 16.5h-10v22l164 14v-341q0 -50 23.5 -75.5t65.5 -25.5q35 0 66.5 19.5t61.5 63.5v249q0 41 -13.5 57.5t-46.5 16.5h-10v22
l164 14v-398q0 -41 13.5 -57.5zM203.5 573.5q-23.5 30.5 -23.5 74.5h19q17 -60 71 -60t71 60h19q0 -44 -23.5 -74.5t-66.5 -30.5t-66.5 30.5z" />
    <glyph glyph-name="Uring" unicode="&#x16e;" horiz-adv-x="711" 
d="M180 54q-76 68 -76 205v331q0 88 -78 88h-10v22h284v-22h-10q-78 0 -78 -88v-367q0 -187 184 -187q87 0 132 50.5t45 143.5v360q0 88 -78 88h-10v22h210v-22h-10q-78 0 -78 -88v-362q0 -111 -61 -176.5t-170 -65.5q-120 0 -196 68zM320 899.5q24 23.5 59 23.5t59 -23.5
t24 -57.5t-24 -57.5t-59 -23.5t-59 23.5t-24 57.5t24 57.5zM341.5 804.5q15.5 -15.5 37.5 -15.5q23 0 38 15.5t15 37.5q0 23 -15 38t-38 15q-22 0 -37.5 -15t-15.5 -38q0 -22 15.5 -37.5z" />
    <glyph glyph-name="uring" unicode="&#x16f;" horiz-adv-x="579" 
d="M505.5 38.5q13.5 -16.5 46.5 -16.5h10v-22l-164 -14v113q-32 -52 -75 -82.5t-92 -30.5q-66 0 -105 40.5t-39 119.5v238q0 41 -13.5 57.5t-46.5 16.5h-10v22l164 14v-341q0 -50 23.5 -75.5t65.5 -25.5q35 0 66.5 19.5t61.5 63.5v249q0 41 -13.5 57.5t-46.5 16.5h-10v22
l164 14v-398q0 -41 13.5 -57.5zM211 681.5q24 23.5 59 23.5t59 -23.5t24 -57.5t-24 -57.5t-59 -23.5t-59 23.5t-24 57.5t24 57.5zM232.5 586.5q15.5 -15.5 37.5 -15.5q23 0 38 15.5t15 37.5q0 23 -15 38t-38 15q-22 0 -37.5 -15t-15.5 -38q0 -22 15.5 -37.5z" />
    <glyph glyph-name="Uhungarumlaut" unicode="&#x170;" horiz-adv-x="711" 
d="M180 54q-76 68 -76 205v331q0 88 -78 88h-10v22h284v-22h-10q-78 0 -78 -88v-367q0 -187 184 -187q87 0 132 50.5t45 143.5v360q0 88 -78 88h-10v22h210v-22h-10q-78 0 -78 -88v-362q0 -111 -61 -176.5t-170 -65.5q-120 0 -196 68zM386 932q14 0 23.5 -9t9.5 -23
q0 -17 -14 -32l-96 -104h-26l66 141q13 27 37 27zM515 932q14 0 23.5 -9t9.5 -23q0 -17 -14 -32l-96 -104h-26l66 141q13 27 37 27z" />
    <glyph glyph-name="uhungarumlaut" unicode="&#x171;" horiz-adv-x="579" 
d="M505.5 38.5q13.5 -16.5 46.5 -16.5h10v-22l-164 -14v113q-32 -52 -75 -82.5t-92 -30.5q-66 0 -105 40.5t-39 119.5v238q0 41 -13.5 57.5t-46.5 16.5h-10v22l164 14v-341q0 -50 23.5 -75.5t65.5 -25.5q35 0 66.5 19.5t61.5 63.5v249q0 41 -13.5 57.5t-46.5 16.5h-10v22
l164 14v-398q0 -41 13.5 -57.5zM295 718q14 0 23.5 -9t9.5 -23q0 -17 -14 -32l-96 -104h-26l66 141q13 27 37 27zM424 718q14 0 23.5 -9t9.5 -23q0 -17 -14 -32l-96 -104h-26l66 141q13 27 37 27z" />
    <glyph glyph-name="Uogonek" unicode="&#x172;" horiz-adv-x="711" 
d="M695 700v-22h-10q-78 0 -78 -88v-362q0 -84 -36 -143.5t-103 -83.5q-70 -41 -70 -99q0 -28 16 -45.5t43 -17.5q23 0 38 11.5t26 32.5l9 -4q-12 -32 -34 -54t-57 -22q-39 0 -64.5 26t-25.5 63q0 28 15.5 52.5t44.5 43.5q-22 -2 -33 -2q-120 0 -196 68t-76 205v331
q0 88 -78 88h-10v22h284v-22h-10q-78 0 -78 -88v-367q0 -187 184 -187q87 0 132 50.5t45 143.5v360q0 88 -78 88h-10v22h210z" />
    <glyph glyph-name="uogonek" unicode="&#x173;" horiz-adv-x="579" 
d="M491 96q0 -41 13.5 -57.5t46.5 -16.5h10v-22l-43 -3q-64 -40 -64 -96q0 -28 16 -45.5t43 -17.5q23 0 38 11.5t26 32.5l9 -4q-12 -32 -34 -54t-57 -22q-39 0 -64.5 26t-25.5 63q0 30 18 56.5t51 45.5l-77 -7v113q-32 -52 -75 -82.5t-92 -30.5q-66 0 -105 40.5t-39 119.5
v238q0 41 -13.5 57.5t-46.5 16.5h-10v22l164 14v-341q0 -50 23.5 -75.5t65.5 -25.5q35 0 66.5 19.5t61.5 63.5v249q0 41 -13.5 57.5t-46.5 16.5h-10v22l164 14v-398z" />
    <glyph glyph-name="Wcircumflex" unicode="&#x174;" horiz-adv-x="1104" 
d="M145 552q-25 65 -55.5 95.5t-69.5 30.5h-10v22h304v-22h-10q-33 0 -48.5 -15.5t-15.5 -39.5q0 -16 6 -33l169 -434l127 333l-30 79q-22 59 -40.5 84.5t-45.5 25.5h-7v22h266v-22h-24q-27 0 -40 -12t-13 -33q0 -14 6 -31l168 -439l148 412q9 27 9 45q0 28 -17.5 43
t-47.5 15h-10v22h230v-22h-10q-39 0 -69.5 -25.5t-48.5 -75.5l-210 -591h-22l-174 456l-175 -456h-16zM688 764l-136 76l-136 -76h-30l126 134h80l126 -134h-30z" />
    <glyph glyph-name="wcircumflex" unicode="&#x175;" horiz-adv-x="806" 
d="M782 458q-28 0 -47 -22.5t-41 -73.5l-157 -362h-14l-119 301l-130 -301h-14l-164 375q-18 42 -36 62.5t-39 20.5h-10v22h214v-22h-10q-14 0 -21 -7.5t-7 -19.5q0 -11 6 -25l111 -255l83 193l-28 71q-8 21 -18.5 32t-29.5 11h-5v22h227v-22h-10q-25 0 -38.5 -11.5
t-13.5 -33.5q0 -17 7 -35l89 -228l100 230q9 20 9 35q0 20 -13 31.5t-35 11.5h-10v22h174v-22h-10zM526 550l-109 95l-109 -95h-30l99 150h80l99 -150h-30z" />
    <glyph glyph-name="Ycircumflex" unicode="&#x176;" horiz-adv-x="708" 
d="M220 22h10q78 0 78 88v168l-176 298q-34 57 -56 79.5t-57 22.5h-10v22h318v-22h-26q-29 0 -44.5 -14t-15.5 -37t13 -44l144 -244l133 247q14 25 14 47q0 21 -13.5 33t-38.5 12h-18v22h223v-22h-10q-34 0 -67.5 -28t-59.5 -77l-145 -271v-192q0 -88 78 -88h10v-22h-284v22
zM516 764l-136 76l-136 -76h-30l126 134h80l126 -134h-30z" />
    <glyph glyph-name="ycircumflex" unicode="&#x177;" horiz-adv-x="578" 
d="M447 416q0 42 -55 42h-10v22h179v-22h-10q-29 0 -47 -19.5t-34 -58.5l-183 -461q-27 -69 -57.5 -99t-79.5 -30q-32 0 -50 17t-18 41q0 21 14 36.5t38 15.5q14 0 23 -4.5t21 -12.5q8 -6 14 -9t14 -3q20 0 33 18.5t27 53.5l25 62l-184 370q-21 43 -40 63t-43 20h-10v22h274
v-22h-13q-27 0 -42 -13.5t-15 -35.5q0 -17 11 -39l114 -228l98 247q6 17 6 27zM436 550l-109 95l-109 -95h-30l99 150h80l99 -150h-30z" />
    <glyph glyph-name="Ydieresis" unicode="&#x178;" horiz-adv-x="708" 
d="M220 22h10q78 0 78 88v168l-176 298q-34 57 -56 79.5t-57 22.5h-10v22h318v-22h-26q-29 0 -44.5 -14t-15.5 -37t13 -44l144 -244l133 247q14 25 14 47q0 21 -13.5 33t-38.5 12h-18v22h223v-22h-10q-34 0 -67.5 -28t-59.5 -77l-145 -271v-192q0 -88 78 -88h10v-22h-284v22
zM254 862q15 15 37 15q21 0 36.5 -15t15.5 -37t-15.5 -37t-36.5 -15q-22 0 -37 15t-15 37t15 37zM432.5 862q15.5 15 36.5 15q22 0 37 -15t15 -37t-15 -37t-37 -15q-21 0 -36.5 15t-15.5 37t15.5 37z" />
    <glyph glyph-name="Zacute" unicode="&#x179;" horiz-adv-x="588" 
d="M35 22l380 644h-190q-64 0 -104 -34.5t-55 -110.5h-17v179h497v-22l-380 -644h139q74 0 117 16t67 52t38 103h22v-205h-514v22zM394 932q14 0 23.5 -9t9.5 -23q0 -17 -14 -32l-96 -104h-26l66 141q13 27 37 27z" />
    <glyph glyph-name="zacute" unicode="&#x17a;" horiz-adv-x="457" 
d="M98.5 429q-33.5 -27 -42.5 -91h-14v142h372v-24l-255 -432h98q62 0 98.5 24t50.5 92h16v-140h-390v24l266 432h-100q-66 0 -99.5 -27zM318 718q14 0 23.5 -9t9.5 -23q0 -17 -14 -32l-96 -104h-26l66 141q13 27 37 27z" />
    <glyph glyph-name="Zdotaccent" unicode="&#x17b;" horiz-adv-x="588" 
d="M35 22l380 644h-190q-64 0 -104 -34.5t-55 -110.5h-17v179h497v-22l-380 -644h139q74 0 117 16t67 52t38 103h22v-205h-514v22zM248 872q19 19 46 19t46 -19t19 -46t-19 -46t-46 -19t-46 19t-19 46t19 46z" />
    <glyph glyph-name="zdotaccent" unicode="&#x17c;" horiz-adv-x="457" 
d="M98.5 429q-33.5 -27 -42.5 -91h-14v142h372v-24l-255 -432h98q62 0 98.5 24t50.5 92h16v-140h-390v24l266 432h-100q-66 0 -99.5 -27zM183 669q19 19 46 19t46 -19t19 -46t-19 -46t-46 -19t-46 19t-19 46t19 46z" />
    <glyph glyph-name="Zcaron" unicode="&#x17d;" horiz-adv-x="588" 
d="M35 22l380 644h-190q-64 0 -104 -34.5t-55 -110.5h-17v179h497v-22l-380 -644h139q74 0 117 16t67 52t38 103h22v-205h-514v22zM334 764h-80l-106 134h30l116 -76l116 76h30z" />
    <glyph glyph-name="zcaron" unicode="&#x17e;" horiz-adv-x="457" 
d="M98.5 429q-33.5 -27 -42.5 -91h-14v142h372v-24l-255 -432h98q62 0 98.5 24t50.5 92h16v-140h-390v24l266 432h-100q-66 0 -99.5 -27zM189 550l-99 150h30l109 -95l109 95h30l-99 -150h-80z" />
    <glyph glyph-name="florin" unicode="&#x192;" horiz-adv-x="409" 
d="M-16 -140.5q-32 24.5 -32 56.5q0 23 12.5 36.5t33.5 13.5q20 0 34 -13t14 -32q0 -6 -2.5 -15.5t-2.5 -13.5q0 -27 36 -27q26 0 42.5 23t16.5 68q0 69 -7 169q-5 80 -8 146.5t-3 166.5v18h-64v24h64q8 130 53 182t114 52q48 0 83 -27.5t35 -65.5q0 -24 -16 -39.5
t-39 -15.5q-22 0 -35.5 13.5t-13.5 32.5q0 11 3 21q2 12 2 20q0 13 -10 21t-30 8q-27 0 -46 -21.5t-19 -62.5q0 -31 5 -118h69v-24h-67q0 -8 2 -36q8 -115 8 -232q0 -147 -21.5 -225t-55.5 -103t-80 -25q-43 0 -75 24.5z" />
    <glyph glyph-name="uni01B5" unicode="&#x1b5;" horiz-adv-x="588" 
d="M549 205v-205h-514v22l191 323h-163v26h178l174 295h-190q-64 0 -104 -34.5t-55 -110.5h-17v179h497v-22l-181 -307h158v-26h-173l-184 -311h139q74 0 117 16t67 52t38 103h22z" />
    <glyph glyph-name="uni01B6" unicode="&#x1b6;" horiz-adv-x="457" 
d="M422 140v-140h-390v24l131 212h-96v26h112l119 194h-100q-66 0 -99.5 -27t-42.5 -91h-14v142h372v-24l-115 -194h87v-26h-102l-125 -212h98q62 0 98.5 24t50.5 92h16z" />
    <glyph glyph-name="AEacute" unicode="&#x1fc;" horiz-adv-x="971" 
d="M8 22h6q36 0 74 36t75 94l270 430q14 24 14 43q0 24 -18 38.5t-49 14.5h-22v22h577v-177h-22q-5 76 -38.5 109.5t-111.5 33.5h-89q-32 0 -46 -14t-14 -56v-227h117q51 0 78.5 32.5t27.5 87.5h22v-274h-22q0 55 -27.5 87.5t-78.5 32.5h-117v-231q0 -42 14 -56t46 -14h72
q84 0 128.5 34.5t61.5 118.5h22l-14 -187h-526v22h10q78 0 78 88v103h-262l-40 -62q-14 -23 -18 -37.5t-4 -27.5q0 -28 17.5 -46t46.5 -18h10v-22h-248v22zM506 247v386l-242 -386h242zM675 938q14 0 23.5 -9t9.5 -23q0 -17 -14 -32l-96 -104h-26l66 141q13 27 37 27z" />
    <glyph glyph-name="aeacute" unicode="&#x1fd;" horiz-adv-x="755" 
d="M72.5 20.5q-37.5 34.5 -37.5 92.5q0 55 39 94t112 59l129 34v68q0 46 -23 71t-63 25q-36 0 -59.5 -17.5t-23.5 -42.5q0 -6 4 -19t4 -21q0 -22 -13 -36t-35 -14q-20 0 -33 13.5t-13 34.5q0 20 8 36q21 42 69 69t105 27q106 0 145 -58q29 28 66 43t77 15q55 0 101.5 -26
t74 -74t27.5 -111h-317q0 -112 42 -173.5t114 -61.5q50 0 85.5 32.5t53.5 90.5l15 -4q-12 -82 -65 -131.5t-129 -49.5q-61 0 -109 25.5t-78 71.5h-8l-39 -36q-36 -33 -68.5 -47t-65.5 -14q-54 0 -91.5 34.5zM639 313q0 64 -30 107.5t-81 43.5q-27 0 -51.5 -18.5t-40.5 -53
t-19 -79.5h222zM259.5 52.5q21.5 9.5 44.5 32.5l11 10v181l-72 -27q-114 -43 -114 -122q0 -35 21 -59.5t60 -24.5q28 0 49.5 9.5zM479 718q14 0 23.5 -9t9.5 -23q0 -17 -14 -32l-96 -104h-26l66 141q13 27 37 27z" />
    <glyph glyph-name="uni0218" unicode="&#x218;" horiz-adv-x="539" 
d="M208.5 -0.5q-34.5 13.5 -78.5 42.5q-13 8 -25 8q-11 0 -18.5 -12.5t-7.5 -37.5h-24v239h24q9 -59 39 -109t73.5 -80t91.5 -30q58 0 93 34t35 92q0 43 -23.5 74t-61.5 53t-100 48q-164 68 -164 209q0 55 29 97t77 64.5t103 22.5q38 0 69 -10t67 -30q13 -8 22 -8
q7 0 12.5 6.5t5.5 18.5v9h24v-199h-24q-11 83 -58.5 131t-116.5 48q-52 0 -84 -29.5t-32 -77.5q0 -54 47 -94t136 -77t129.5 -84t40.5 -116q0 -66 -32.5 -115t-83.5 -75t-104 -26q-46 0 -80.5 13.5zM215 -300q41 29 68 65.5t31 78.5q-14 -7 -34 -7q-27 0 -45.5 17.5
t-18.5 43.5t17.5 45.5t46.5 19.5q37 0 56 -25t19 -63q0 -60 -32 -106.5t-95 -83.5z" />
    <glyph glyph-name="uni0219" unicode="&#x219;" horiz-adv-x="404" 
d="M275.5 144.5q-15.5 19.5 -40.5 32.5t-67 28q-67 24 -99 63.5t-32 87.5q0 40 22 71.5t59.5 49t80.5 17.5q31 0 52 -7t47 -23q10 -6 18 -6q7 0 11.5 6t4.5 16h24v-154h-19q-8 63 -44 99.5t-91 36.5q-40 0 -62 -20.5t-22 -50.5q0 -36 30 -60t93 -49q69 -27 102 -60t33 -85
q0 -66 -46.5 -108.5t-119.5 -42.5q-37 0 -63.5 9t-53.5 27q-8 5 -15 5q-10 0 -16 -7.5t-6 -19.5h-26v172h24q12 -71 53 -112.5t91 -41.5q43 0 68 21t25 57q0 29 -15.5 48.5zM147 -300q41 29 68 65.5t31 78.5q-14 -7 -34 -7q-27 0 -45.5 17.5t-18.5 43.5t17.5 45.5t46.5 19.5
q37 0 56 -25t19 -63q0 -60 -32 -106.5t-95 -83.5z" />
    <glyph glyph-name="uni021A" unicode="&#x21a;" horiz-adv-x="588" 
d="M152 22h10q78 0 78 88v518q0 38 -36 38h-25q-65 0 -100.5 -36.5t-43.5 -108.5h-19v179h556v-179h-19q-8 72 -43.5 108.5t-100.5 36.5h-25q-36 0 -36 -38v-518q0 -88 78 -88h10v-22h-284v22zM239 -300q41 29 68 65.5t31 78.5q-14 -7 -34 -7q-27 0 -45.5 17.5t-18.5 43.5
t17.5 45.5t46.5 19.5q37 0 56 -25t19 -63q0 -60 -32 -106.5t-95 -83.5z" />
    <glyph glyph-name="uni021B" unicode="&#x21b;" horiz-adv-x="327" 
d="M286 480v-27h-92v-338q0 -62 45 -62q37 0 56 35l10 -6q-14 -47 -39.5 -71.5t-68.5 -24.5q-47 0 -75.5 38t-28.5 98q0 41 3 92q4 84 4 140v99h-68v27q121 0 138 144h24v-144h92zM129 -300q41 29 68 65.5t31 78.5q-14 -7 -34 -7q-27 0 -45.5 17.5t-18.5 43.5t17.5 45.5
t46.5 19.5q37 0 56 -25t19 -63q0 -60 -32 -106.5t-95 -83.5z" />
    <glyph glyph-name="uni0237" unicode="&#x237;" horiz-adv-x="264" 
d="M181.5 -149q-31.5 -33 -83.5 -33q-50 0 -77.5 25t-27.5 55q0 23 13 36.5t34 13.5t34 -12t13 -31q0 -5 -2.5 -16.5t-2.5 -16.5q0 -12 9.5 -21t24.5 -9q17 0 27.5 13t10.5 30q0 16 -3.5 30.5t-11.5 35.5q-10 31 -15 53.5t-5 52.5v330q0 41 -16 56t-44 15h-10v22l164 14
v-535q0 -75 -31.5 -108z" />
    <glyph glyph-name="circumflex" unicode="&#x2c6;" horiz-adv-x="278" 
d="M248 550l-109 95l-109 -95h-30l99 150h80l99 -150h-30z" />
    <glyph glyph-name="caron" unicode="&#x2c7;" horiz-adv-x="278" 
d="M99 550l-99 150h30l109 -95l109 95h30l-99 -150h-80z" />
    <glyph glyph-name="uni02C9" unicode="&#x2c9;" horiz-adv-x="250" 
d="M250 632v-34h-250v34h250z" />
    <glyph glyph-name="breve" unicode="&#x2d8;" horiz-adv-x="180" 
d="M23.5 573.5q-23.5 30.5 -23.5 74.5h19q17 -60 71 -60t71 60h19q0 -44 -23.5 -74.5t-66.5 -30.5t-66.5 30.5z" />
    <glyph glyph-name="dotaccent" unicode="&#x2d9;" horiz-adv-x="130" 
d="M19 654q19 19 46 19t46 -19t19 -46t-19 -46t-46 -19t-46 19t-19 46t19 46z" />
    <glyph glyph-name="ring" unicode="&#x2da;" horiz-adv-x="166" 
d="M24 681.5q24 23.5 59 23.5t59 -23.5t24 -57.5t-24 -57.5t-59 -23.5t-59 23.5t-24 57.5t24 57.5zM45.5 586.5q15.5 -15.5 37.5 -15.5q23 0 38 15.5t15 37.5q0 23 -15 38t-38 15q-22 0 -37.5 -15t-15.5 -38q0 -22 15.5 -37.5z" />
    <glyph glyph-name="ogonek" unicode="&#x2db;" horiz-adv-x="181" 
d="M25.5 -172q-25.5 26 -25.5 63q0 38 28 69t79 49l12 -9q-70 -41 -70 -99q0 -28 16 -45.5t43 -17.5q23 0 38 11.5t26 32.5l9 -4q-12 -32 -34 -54t-57 -22q-39 0 -64.5 26z" />
    <glyph glyph-name="tilde" unicode="&#x2dc;" horiz-adv-x="307" 
d="M26.5 628.5q25.5 30.5 68.5 30.5q19 0 35 -6.5t39 -20.5q19 -11 33 -17t29 -6q25 0 39 14t19 36h18q-1 -48 -26.5 -78.5t-68.5 -30.5q-19 0 -35 6.5t-39 20.5q-19 11 -33 17t-29 6q-25 0 -39 -14t-19 -36h-18q1 48 26.5 78.5z" />
    <glyph glyph-name="hungarumlaut" unicode="&#x2dd;" horiz-adv-x="265" 
d="M103 718q14 0 23.5 -9t9.5 -23q0 -17 -14 -32l-96 -104h-26l66 141q13 27 37 27zM232 718q14 0 23.5 -9t9.5 -23q0 -17 -14 -32l-96 -104h-26l66 141q13 27 37 27z" />
    <glyph glyph-name="gravecomb" unicode="&#x300;" 
d="M-26 550l-96 104q-14 15 -14 32q0 14 9.5 23t23.5 9q24 0 37 -27l66 -141h-26z" />
    <glyph glyph-name="acutecomb" unicode="&#x301;" 
d="M-33 718q14 0 23.5 -9t9.5 -23q0 -17 -14 -32l-96 -104h-26l66 141q13 27 37 27z" />
    <glyph glyph-name="uni0302" unicode="&#x302;" 
d="M-30 550l-109 95l-109 -95h-30l99 150h80l99 -150h-30z" />
    <glyph glyph-name="tildecomb" unicode="&#x303;" 
d="M-280.5 628.5q25.5 30.5 68.5 30.5q19 0 35 -6.5t39 -20.5q19 -11 33 -17t29 -6q25 0 39 14t19 36h18q-1 -48 -26.5 -78.5t-68.5 -30.5q-19 0 -35 6.5t-39 20.5q-19 11 -33 17t-29 6q-25 0 -39 -14t-19 -36h-18q1 48 26.5 78.5z" />
    <glyph glyph-name="uni0304" unicode="&#x304;" 
d="M0 632v-34h-250v34h250z" />
    <glyph glyph-name="uni0306" unicode="&#x306;" 
d="M-156.5 573.5q-23.5 30.5 -23.5 74.5h19q17 -60 71 -60t71 60h19q0 -44 -23.5 -74.5t-66.5 -30.5t-66.5 30.5z" />
    <glyph glyph-name="uni0307" unicode="&#x307;" 
d="M-111 669q19 19 46 19t46 -19t19 -46t-19 -46t-46 -19t-46 19t-19 46t19 46z" />
    <glyph glyph-name="uni0308" unicode="&#x308;" 
d="M-267 642q15 15 37 15q21 0 36.5 -15t15.5 -37t-15.5 -37t-36.5 -15q-22 0 -37 15t-15 37t15 37zM-88.5 642q15.5 15 36.5 15q22 0 37 -15t15 -37t-15 -37t-37 -15q-21 0 -36.5 15t-15.5 37t15.5 37z" />
    <glyph glyph-name="uni030A" unicode="&#x30a;" 
d="M-142 681.5q24 23.5 59 23.5t59 -23.5t24 -57.5t-24 -57.5t-59 -23.5t-59 23.5t-24 57.5t24 57.5zM-120.5 586.5q15.5 -15.5 37.5 -15.5q23 0 38 15.5t15 37.5q0 23 -15 38t-38 15q-22 0 -37.5 -15t-15.5 -38q0 -22 15.5 -37.5z" />
    <glyph glyph-name="uni030B" unicode="&#x30b;" 
d="M-162 718q14 0 23.5 -9t9.5 -23q0 -17 -14 -32l-96 -104h-26l66 141q13 27 37 27zM-33 718q14 0 23.5 -9t9.5 -23q0 -17 -14 -32l-96 -104h-26l66 141q13 27 37 27z" />
    <glyph glyph-name="uni030C" unicode="&#x30c;" 
d="M-179 550l-99 150h30l109 -95l109 95h30l-99 -150h-80z" />
    <glyph glyph-name="uni0312" unicode="&#x312;" 
d="M0 801q-50 -21 -78 -54.5t-30 -84.5q14 7 36 7q26 0 44 -17.5t18 -43.5q0 -27 -17.5 -46t-46.5 -19q-37 0 -56 25t-19 63q0 63 39.5 114.5t102.5 70.5z" />
    <glyph glyph-name="uni0326" unicode="&#x326;" 
d="M-140 -314q41 29 68 65.5t31 78.5q-14 -7 -34 -7q-27 0 -45.5 17.5t-18.5 43.5t17.5 45.5t46.5 19.5q37 0 56 -25t19 -63q0 -60 -32 -106.5t-95 -83.5z" />
    <glyph glyph-name="uni0327" unicode="&#x327;" 
d="M-138 -193.5q-20 14.5 -30 34.5l9 9q23 -31 54 -31q23 0 37.5 15t14.5 43q0 23 -15 38t-36 15q-17 0 -27.5 -6t-19.5 -15l-7 4l49 105h30l-36 -64q21 8 41 8q29 0 51.5 -21t22.5 -60q0 -42 -26 -65.5t-64 -23.5q-28 0 -48 14.5z" />
    <glyph glyph-name="uni0328" unicode="&#x328;" 
d="M-155.5 -172q-25.5 26 -25.5 63q0 38 28 69t79 49l12 -9q-70 -41 -70 -99q0 -28 16 -45.5t43 -17.5q23 0 38 11.5t26 32.5l9 -4q-12 -32 -34 -54t-57 -22q-39 0 -64.5 26z" />
    <glyph glyph-name="uni0335" unicode="&#x335;" 
d="M0 324v-26h-236v26h236z" />
    <glyph glyph-name="uni0336" unicode="&#x336;" 
d="M0 324v-26h-316v26h316z" />
    <glyph glyph-name="uni0337" unicode="&#x337;" 
d="M-430 223l413 229l17 -30l-413 -228z" />
    <glyph glyph-name="uni0338" unicode="&#x338;" 
d="M-498 7l464 707l34 -21l-464 -707z" />
    <glyph glyph-name="uni0394" unicode="&#x394;" horiz-adv-x="665" 
d="M303 714h5l347 -714h-645zM517 34l-248 508l-207 -508h455z" />
    <glyph glyph-name="uni03A9" unicode="&#x3a9;" horiz-adv-x="722" 
d="M26 189h22q15 -61 52.5 -90t99.5 -29h57q-86 69 -155.5 161.5t-69.5 195.5q0 83 39 148t113.5 102t176.5 37t176.5 -37t113.5 -102t39 -148q0 -103 -69.5 -195.5t-155.5 -161.5h57q62 0 99.5 29t52.5 90h22l-29 -189h-279v20q77 80 116.5 149t53 130t13.5 135
q0 83 -29.5 138.5t-77 81.5t-103.5 26t-103.5 -26t-77 -81.5t-29.5 -138.5q0 -74 13.5 -135t53 -130t116.5 -149v-20h-279z" />
    <glyph glyph-name="uni03BC" unicode="&#x3bc;" horiz-adv-x="579" 
d="M66.5 -182q-14.5 14 -14.5 36q0 16 3 27.5t11 32.5q10 24 15.5 47.5t5.5 60.5v362q0 41 -13.5 57.5t-46.5 16.5h-10v22l164 14v-341q0 -50 23.5 -75.5t65.5 -25.5q35 0 66.5 19.5t61.5 63.5v249q0 41 -13.5 57.5t-46.5 16.5h-10v22l164 14v-398q0 -41 13.5 -57.5
t46.5 -16.5h10v-22l-164 -14v113q-32 -52 -75 -82.5t-92 -30.5q-83 0 -120 60v-24q0 -37 5.5 -60.5t15.5 -47.5q8 -21 11 -32.5t3 -27.5q0 -22 -14.5 -36t-32.5 -14t-32.5 14z" />
    <glyph glyph-name="pi" unicode="&#x3c0;" horiz-adv-x="639" 
d="M91.5 -1q-12.5 13 -12.5 30q0 9 4.5 19t12.5 16q11 8 36 8q18 1 28 3.5t19 13.5q26 30 26 147v167h-46q-82 0 -91 -90h-24v167h553v-77h-120v-315q0 -23 11.5 -37t30.5 -14q44 0 57 85l17 -3q-6 -133 -107 -133q-44 0 -73.5 33.5t-29.5 93.5v290h-148v-188
q0 -74 -11 -118t-46 -83q-25 -28 -54 -28q-20 0 -32.5 13z" />
    <glyph glyph-name="uni0E3F" unicode="&#xe3f;" horiz-adv-x="586" 
d="M506.5 58q-60.5 -53 -179.5 -58v-100h-34v100h-275v22h10q78 0 78 88v480q0 88 -78 88h-10v22h265h10v100h34v-101q103 -8 160 -48t57 -111q0 -56 -40 -97.5t-114 -60.5q80 -16 128.5 -64.5t48.5 -119.5q0 -87 -60.5 -140zM214 396h22q32 0 57 3v267q-46 0 -62.5 -13.5
t-16.5 -56.5v-200zM407 622.5q-29 32.5 -80 40.5v-258q59 13 84 46t25 86t-29 85.5zM233.5 47.5q19.5 -13.5 59.5 -13.5v323q-38 5 -79 5v-256q0 -45 19.5 -58.5zM423.5 84q35.5 40 35.5 105t-29 105.5t-103 57.5v-316q61 8 96.5 48z" />
    <glyph glyph-name="Wgrave" unicode="&#x1e80;" horiz-adv-x="1104" 
d="M145 552q-25 65 -55.5 95.5t-69.5 30.5h-10v22h304v-22h-10q-33 0 -48.5 -15.5t-15.5 -39.5q0 -16 6 -33l169 -434l127 333l-30 79q-22 59 -40.5 84.5t-45.5 25.5h-7v22h266v-22h-24q-27 0 -40 -12t-13 -33q0 -14 6 -31l168 -439l148 412q9 27 9 45q0 28 -17.5 43
t-47.5 15h-10v22h230v-22h-10q-39 0 -69.5 -25.5t-48.5 -75.5l-210 -591h-22l-174 456l-175 -456h-16zM556 764h-26l-96 104q-14 15 -14 32q0 14 9.5 23t23.5 9q24 0 37 -27z" />
    <glyph glyph-name="wgrave" unicode="&#x1e81;" horiz-adv-x="806" 
d="M782 458q-28 0 -47 -22.5t-41 -73.5l-157 -362h-14l-119 301l-130 -301h-14l-164 375q-18 42 -36 62.5t-39 20.5h-10v22h214v-22h-10q-14 0 -21 -7.5t-7 -19.5q0 -11 6 -25l111 -255l83 193l-28 71q-8 21 -18.5 32t-29.5 11h-5v22h227v-22h-10q-25 0 -38.5 -11.5
t-13.5 -33.5q0 -17 7 -35l89 -228l100 230q9 20 9 35q0 20 -13 31.5t-35 11.5h-10v22h174v-22h-10zM406 550l-96 104q-14 15 -14 32q0 14 9.5 23t23.5 9q24 0 37 -27l66 -141h-26z" />
    <glyph glyph-name="Wacute" unicode="&#x1e82;" horiz-adv-x="1104" 
d="M145 552q-25 65 -55.5 95.5t-69.5 30.5h-10v22h304v-22h-10q-33 0 -48.5 -15.5t-15.5 -39.5q0 -16 6 -33l169 -434l127 333l-30 79q-22 59 -40.5 84.5t-45.5 25.5h-7v22h266v-22h-24q-27 0 -40 -12t-13 -33q0 -14 6 -31l168 -439l148 412q9 27 9 45q0 28 -17.5 43
t-47.5 15h-10v22h230v-22h-10q-39 0 -69.5 -25.5t-48.5 -75.5l-210 -591h-22l-174 456l-175 -456h-16zM652 932q14 0 23.5 -9t9.5 -23q0 -17 -14 -32l-96 -104h-26l66 141q13 27 37 27z" />
    <glyph glyph-name="wacute" unicode="&#x1e83;" horiz-adv-x="806" 
d="M782 458q-28 0 -47 -22.5t-41 -73.5l-157 -362h-14l-119 301l-130 -301h-14l-164 375q-18 42 -36 62.5t-39 20.5h-10v22h214v-22h-10q-14 0 -21 -7.5t-7 -19.5q0 -11 6 -25l111 -255l83 193l-28 71q-8 21 -18.5 32t-29.5 11h-5v22h227v-22h-10q-25 0 -38.5 -11.5
t-13.5 -33.5q0 -17 7 -35l89 -228l100 230q9 20 9 35q0 20 -13 31.5t-35 11.5h-10v22h174v-22h-10zM507 718q14 0 23.5 -9t9.5 -23q0 -17 -14 -32l-96 -104h-26l66 141q13 27 37 27z" />
    <glyph glyph-name="Wdieresis" unicode="&#x1e84;" horiz-adv-x="1104" 
d="M145 552q-25 65 -55.5 95.5t-69.5 30.5h-10v22h304v-22h-10q-33 0 -48.5 -15.5t-15.5 -39.5q0 -16 6 -33l169 -434l127 333l-30 79q-22 59 -40.5 84.5t-45.5 25.5h-7v22h266v-22h-24q-27 0 -40 -12t-13 -33q0 -14 6 -31l168 -439l148 412q9 27 9 45q0 28 -17.5 43
t-47.5 15h-10v22h230v-22h-10q-39 0 -69.5 -25.5t-48.5 -75.5l-210 -591h-22l-174 456l-175 -456h-16zM426 862q15 15 37 15q21 0 36.5 -15t15.5 -37t-15.5 -37t-36.5 -15q-22 0 -37 15t-15 37t15 37zM604.5 862q15.5 15 36.5 15q22 0 37 -15t15 -37t-15 -37t-37 -15
q-21 0 -36.5 15t-15.5 37t15.5 37z" />
    <glyph glyph-name="wdieresis" unicode="&#x1e85;" horiz-adv-x="806" 
d="M782 458q-28 0 -47 -22.5t-41 -73.5l-157 -362h-14l-119 301l-130 -301h-14l-164 375q-18 42 -36 62.5t-39 20.5h-10v22h214v-22h-10q-14 0 -21 -7.5t-7 -19.5q0 -11 6 -25l111 -255l83 193l-28 71q-8 21 -18.5 32t-29.5 11h-5v22h227v-22h-10q-25 0 -38.5 -11.5
t-13.5 -33.5q0 -17 7 -35l89 -228l100 230q9 20 9 35q0 20 -13 31.5t-35 11.5h-10v22h174v-22h-10zM292 642q15 15 37 15q21 0 36.5 -15t15.5 -37t-15.5 -37t-36.5 -15q-22 0 -37 15t-15 37t15 37zM470.5 642q15.5 15 36.5 15q22 0 37 -15t15 -37t-15 -37t-37 -15
q-21 0 -36.5 15t-15.5 37t15.5 37z" />
    <glyph glyph-name="uni1E9E" unicode="&#x1e9e;" horiz-adv-x="633" 
d="M530.5 404q44.5 -34 67 -81.5t22.5 -99.5q0 -68 -29 -122t-81.5 -84.5t-121.5 -30.5q-64 0 -132 37l9 31q37 -20 64 -27t53 -7q44 0 75.5 23.5t48 62t16.5 82.5q0 94 -50 136t-148 54v15l146 281q-46 33 -110 33q-42 0 -75.5 -26.5t-53 -78t-19.5 -122.5v-480h-196v22h10
q78 0 78 88v389q0 67 33 121t91 84t129 30q51 0 107.5 -21.5t98.5 -65.5v-3l-142 -195q65 -11 109.5 -45z" />
    <glyph glyph-name="Ygrave" unicode="&#x1ef2;" horiz-adv-x="708" 
d="M220 22h10q78 0 78 88v168l-176 298q-34 57 -56 79.5t-57 22.5h-10v22h318v-22h-26q-29 0 -44.5 -14t-15.5 -37t13 -44l144 -244l133 247q14 25 14 47q0 21 -13.5 33t-38.5 12h-18v22h223v-22h-10q-34 0 -67.5 -28t-59.5 -77l-145 -271v-192q0 -88 78 -88h10v-22h-284v22
zM384 764h-26l-96 104q-14 15 -14 32q0 14 9.5 23t23.5 9q24 0 37 -27z" />
    <glyph glyph-name="ygrave" unicode="&#x1ef3;" horiz-adv-x="578" 
d="M447 416q0 42 -55 42h-10v22h179v-22h-10q-29 0 -47 -19.5t-34 -58.5l-183 -461q-27 -69 -57.5 -99t-79.5 -30q-32 0 -50 17t-18 41q0 21 14 36.5t38 15.5q14 0 23 -4.5t21 -12.5q8 -6 14 -9t14 -3q20 0 33 18.5t27 53.5l25 62l-184 370q-21 43 -40 63t-43 20h-10v22h274
v-22h-13q-27 0 -42 -13.5t-15 -35.5q0 -17 11 -39l114 -228l98 247q6 17 6 27zM316 550l-96 104q-14 15 -14 32q0 14 9.5 23t23.5 9q24 0 37 -27l66 -141h-26z" />
    <glyph glyph-name="endash" unicode="&#x2013;" horiz-adv-x="577" 
d="M559 312v-34h-541v34h541z" />
    <glyph glyph-name="emdash" unicode="&#x2014;" horiz-adv-x="867" 
d="M849 312v-34h-831v34h831z" />
    <glyph glyph-name="quoteleft" unicode="&#x2018;" horiz-adv-x="201" 
d="M45 461q-19 25 -19 63q0 63 39.5 114.5t102.5 70.5l7 -15q-50 -21 -78 -54.5t-30 -84.5q14 7 36 7q26 0 44 -17.5t18 -43.5q0 -27 -17.5 -46t-46.5 -19q-37 0 -56 25z" />
    <glyph glyph-name="quoteright" unicode="&#x2019;" horiz-adv-x="201" 
d="M26 456q50 21 78 54.5t30 84.5q-14 -7 -36 -7q-26 0 -44 17.5t-18 43.5q0 27 17.5 46t46.5 19q37 0 56 -25t19 -63q0 -63 -39.5 -114.5t-102.5 -70.5z" />
    <glyph glyph-name="quotesinglbase" unicode="&#x201a;" horiz-adv-x="192" 
d="M26 -143q41 29 68 65.5t31 78.5q-14 -7 -34 -7q-27 0 -45.5 17.5t-18.5 43.5t17.5 45.5t46.5 19.5q37 0 56 -25t19 -63q0 -60 -32 -106.5t-95 -83.5z" />
    <glyph glyph-name="quotedblleft" unicode="&#x201c;" horiz-adv-x="382" 
d="M45 461q-19 25 -19 63q0 63 39.5 114.5t102.5 70.5l7 -15q-50 -21 -78 -54.5t-30 -84.5q14 7 36 7q26 0 44 -17.5t18 -43.5q0 -27 -17.5 -46t-46.5 -19q-37 0 -56 25zM226 461q-19 25 -19 63q0 63 39.5 114.5t102.5 70.5l7 -15q-50 -21 -78 -54.5t-30 -84.5q14 7 36 7
q26 0 44 -17.5t18 -43.5q0 -27 -17.5 -46t-46.5 -19q-37 0 -56 25z" />
    <glyph glyph-name="quotedblright" unicode="&#x201d;" horiz-adv-x="382" 
d="M26 451q50 21 78 54.5t30 84.5q-14 -7 -36 -7q-26 0 -44 17.5t-18 43.5q0 27 17.5 46t46.5 19q37 0 56 -25t19 -63q0 -63 -39.5 -114.5t-102.5 -70.5zM207 451q50 21 78 54.5t30 84.5q-14 -7 -36 -7q-26 0 -44 17.5t-18 43.5q0 27 17.5 46t46.5 19q37 0 56 -25t19 -63
q0 -63 -39.5 -114.5t-102.5 -70.5z" />
    <glyph glyph-name="quotedblbase" unicode="&#x201e;" horiz-adv-x="372" 
d="M26 -143q41 29 68 65.5t31 78.5q-14 -7 -34 -7q-27 0 -45.5 17.5t-18.5 43.5t17.5 45.5t46.5 19.5q37 0 56 -25t19 -63q0 -60 -32 -106.5t-95 -83.5zM206 -143q41 29 68 65.5t31 78.5q-14 -7 -34 -7q-27 0 -45.5 17.5t-18.5 43.5t17.5 45.5t46.5 19.5q37 0 56 -25t19 -63
q0 -60 -32 -106.5t-95 -83.5z" />
    <glyph glyph-name="dagger" unicode="&#x2020;" horiz-adv-x="370" 
d="M221 700.5q14 -13.5 14 -36.5q0 -13 -4 -24.5t-13 -31.5q-11 -24 -17 -43.5t-6 -44.5q17 0 31 5.5t37 16.5q30 17 45 17q21 0 35.5 -13.5t14.5 -35.5t-14.5 -35.5t-35.5 -13.5q-15 0 -45 17q-23 11 -37 16.5t-31 5.5q2 -49 11 -80t41 -57v-11q-20 -42 -29 -84.5
t-14 -118.5t-8 -229h-22q-3 153 -8 229t-14 118.5t-29 84.5v11q32 26 41 57t11 80q-17 0 -31 -5.5t-37 -16.5q-30 -17 -45 -17q-21 0 -35.5 13.5t-14.5 35.5t14.5 35.5t35.5 13.5q15 0 45 -17q23 -11 37 -16.5t31 -5.5q0 25 -6 44.5t-17 43.5q-9 20 -13 31.5t-4 24.5
q0 21 14.5 35.5t35.5 14.5q22 0 36 -13.5z" />
    <glyph glyph-name="daggerdbl" unicode="&#x2021;" horiz-adv-x="370" 
d="M149.5 -85.5q-14.5 14.5 -14.5 35.5q0 13 4 24.5t13 31.5q11 24 17 43.5t6 44.5q-17 0 -31 -5.5t-37 -16.5q-30 -17 -45 -17q-21 0 -35.5 13.5t-14.5 35.5t14.5 35.5t35.5 13.5q15 0 45 -17q23 -11 37 -16.5t31 -5.5q-3 65 -14 108.5t-48 78.5v12q37 35 48 78.5t14 108.5
q-17 0 -31 -5.5t-37 -16.5q-30 -17 -45 -17q-21 0 -35.5 13.5t-14.5 35.5t14.5 35.5t35.5 13.5q15 0 45 -17q23 -11 37 -16.5t31 -5.5q0 25 -6 44.5t-17 43.5q-9 20 -13 31.5t-4 24.5q0 21 14.5 35.5t35.5 14.5q22 0 36 -13.5t14 -36.5q0 -13 -4 -24.5t-13 -31.5
q-11 -24 -17 -43.5t-6 -44.5q17 0 31 5.5t37 16.5q30 17 45 17q21 0 35.5 -13.5t14.5 -35.5t-14.5 -35.5t-35.5 -13.5q-15 0 -45 17q-23 11 -37 16.5t-31 5.5q3 -65 14 -108.5t48 -78.5v-12q-37 -35 -48 -78.5t-14 -108.5q17 0 31 5.5t37 16.5q30 17 45 17q21 0 35.5 -13.5
t14.5 -35.5t-14.5 -35.5t-35.5 -13.5q-15 0 -45 17q-23 11 -37 16.5t-31 5.5q0 -25 6 -44.5t17 -43.5q9 -20 13 -31.5t4 -24.5q0 -23 -14 -36.5t-36 -13.5q-21 0 -35.5 14.5z" />
    <glyph glyph-name="bullet" unicode="&#x2022;" horiz-adv-x="218" 
d="M50.5 261.5q-24.5 24.5 -24.5 58.5t24.5 58.5t58.5 24.5t58.5 -24.5t24.5 -58.5t-24.5 -58.5t-58.5 -24.5t-58.5 24.5z" />
    <glyph glyph-name="ellipsis" unicode="&#x2026;" horiz-adv-x="510" 
d="M42.5 93.5q16.5 16.5 41.5 16.5t41.5 -16.5t16.5 -41.5t-16.5 -41.5t-41.5 -16.5t-41.5 16.5t-16.5 41.5t16.5 41.5zM213.5 93.5q16.5 16.5 41.5 16.5t41.5 -16.5t16.5 -41.5t-16.5 -41.5t-41.5 -16.5t-41.5 16.5t-16.5 41.5t16.5 41.5zM384.5 93.5q16.5 16.5 41.5 16.5
t41.5 -16.5t16.5 -41.5t-16.5 -41.5t-41.5 -16.5t-41.5 16.5t-16.5 41.5t16.5 41.5z" />
    <glyph glyph-name="perthousand" unicode="&#x2030;" horiz-adv-x="1221" 
d="M66 380.5q-46 45.5 -46 115.5q0 61 26 110.5t74.5 78.5t115.5 29q70 0 116 -42.5t46 -111.5q0 -62 -28.5 -113.5t-77 -81.5t-104.5 -30q-76 0 -122 45.5zM185 19l407 681l27 -19l-407 -681zM254 388.5q30 29.5 46.5 79.5t16.5 108q0 56 -24 85t-63 29q-43 0 -72 -31.5
t-43 -81t-14 -103.5q0 -51 23 -83t63 -32q37 0 67 29.5zM449 31.5q-46 45.5 -46 115.5q0 61 26 110.5t74.5 78.5t115.5 29q70 0 116 -42.5t46 -111.5q0 -62 -28.5 -113.5t-77 -81.5t-104.5 -30q-76 0 -122 45.5zM869 31.5q-46 45.5 -46 115.5q0 61 26 110.5t74.5 78.5
t115.5 29q70 0 116 -42.5t46 -111.5q0 -62 -28.5 -113.5t-77 -81.5t-104.5 -30q-76 0 -122 45.5zM637 39.5q30 29.5 46.5 79.5t16.5 108q0 56 -24 85t-63 29q-43 0 -72 -31.5t-43 -81t-14 -103.5q0 -51 23 -83t63 -32q37 0 67 29.5zM1057 39.5q30 29.5 46.5 79.5t16.5 108
q0 56 -24 85t-63 29q-43 0 -72 -31.5t-43 -81t-14 -103.5q0 -51 23 -83t63 -32q37 0 67 29.5z" />
    <glyph glyph-name="guilsinglleft" unicode="&#x2039;" horiz-adv-x="198" 
d="M10 298v24l160 155l16 -15l-103 -152l103 -152l-16 -15z" />
    <glyph glyph-name="guilsinglright" unicode="&#x203a;" horiz-adv-x="198" 
d="M12 158l103 152l-103 152l16 15l160 -155v-24l-160 -155z" />
    <glyph glyph-name="fraction" unicode="&#x2044;" horiz-adv-x="161" 
d="M301 679l-407 -679l-34 21l407 679z" />
    <glyph glyph-name="uni2059" unicode="&#x2059;" horiz-adv-x="686" 
d="M45 683.5q23 22.5 57 22.5q35 0 57.5 -22.5t22.5 -57.5q0 -34 -22.5 -57t-57.5 -23q-34 0 -57 23t-23 57q0 35 23 57.5zM527 683.5q23 22.5 57 22.5q35 0 57.5 -22.5t22.5 -57.5q0 -34 -22.5 -57t-57.5 -23q-34 0 -57 23t-23 57q0 35 23 57.5zM286 407.5q23 22.5 57 22.5
q35 0 57.5 -22.5t22.5 -57.5q0 -34 -22.5 -57t-57.5 -23q-34 0 -57 23t-23 57q0 35 23 57.5zM45 131.5q23 22.5 57 22.5q35 0 57.5 -22.5t22.5 -57.5q0 -34 -22.5 -57t-57.5 -23q-34 0 -57 23t-23 57q0 35 23 57.5zM527 131.5q23 22.5 57 22.5q35 0 57.5 -22.5t22.5 -57.5
q0 -34 -22.5 -57t-57.5 -23q-34 0 -57 23t-23 57q0 35 23 57.5z" />
    <glyph glyph-name="uni2070" unicode="&#x2070;" horiz-adv-x="358" 
d="M279 835q39 -50 39 -135t-39 -135t-100 -50t-100 50t-39 135t39 135t100 50t100 -50zM236.5 820.5q-20.5 42.5 -57.5 42.5t-57.5 -42.5t-20.5 -120.5t20.5 -120.5t57.5 -42.5t57.5 42.5t20.5 120.5t-20.5 120.5z" />
    <glyph glyph-name="uni2074" unicode="&#x2074;" horiz-adv-x="306" 
d="M124 533h5q40 0 40 44v38h-142v19l181 251h15v-250h44v-20h-44v-38q0 -44 40 -44h5v-12h-144v12zM169 635v162l-117 -162h117z" />
    <glyph glyph-name="uni2075" unicode="&#x2075;" horiz-adv-x="303" 
d="M65.5 528q-27.5 13 -27.5 37q0 13 8 20.5t20 7.5q25 0 31 -33q5 -28 37 -28q30 0 49.5 24t19.5 62q0 46 -26 70.5t-66 24.5q-31 0 -59 -14l-3 3l19 169h167l-6 -50h-148l-7 -64q28 10 55 10q53 0 88.5 -33t35.5 -88q0 -37 -17.5 -67t-47.5 -47t-64 -17q-31 0 -58.5 13z
" />
    <glyph glyph-name="uni2076" unicode="&#x2076;" horiz-adv-x="304" 
d="M63.5 555.5q-35.5 40.5 -35.5 110.5q0 58 28 108.5t76.5 80.5t107.5 30h6v-13q-62 -6 -100.5 -52.5t-52.5 -112.5q33 39 81 39q41 0 69.5 -30t28.5 -77q0 -56 -34 -90t-83 -34q-56 0 -91.5 40.5zM198.5 556q17.5 24 17.5 65q0 45 -18.5 72t-48.5 27q-33 0 -59 -34
q-2 -12 -2 -35q0 -50 18 -84.5t52 -34.5q23 0 40.5 24z" />
    <glyph glyph-name="uni2077" unicode="&#x2077;" horiz-adv-x="260" 
d="M107.5 529q-8.5 8 -8.5 21q0 69 30.5 149.5t63.5 122.5h-93q-30 0 -44.5 -11t-20.5 -42h-11v102h223v-7q-43 -46 -62.5 -91.5t-24.5 -93.5t-5 -129q0 -13 -8.5 -21t-19.5 -8t-19.5 8z" />
    <glyph glyph-name="uni2078" unicode="&#x2078;" horiz-adv-x="296" 
d="M67.5 540.5q-33.5 25.5 -33.5 65.5q0 31 15 54t47 43q-27 20 -39.5 41.5t-12.5 48.5q0 37 30 64.5t70 27.5t67 -19.5t27 -53.5q0 -26 -15 -46t-43 -39q44 -22 63 -50t19 -62q0 -45 -34.5 -72.5t-77.5 -27.5q-49 0 -82.5 25.5zM199 813q0 22 -15 38t-40 16
q-27 0 -41.5 -13.5t-14.5 -36.5q0 -43 74 -80q37 33 37 76zM193 550.5q17 17.5 17 44.5q0 25 -21 45t-75 52q-33 -31 -33 -79q0 -34 19 -57t50 -23q26 0 43 17.5z" />
    <glyph glyph-name="uni2079" unicode="&#x2079;" horiz-adv-x="304" 
d="M58 528q65 6 102.5 52.5t50.5 112.5q-32 -39 -81 -39q-41 0 -69.5 30t-28.5 77q0 56 34 90t83 34q56 0 91.5 -40.5t35.5 -110.5q0 -58 -28 -108.5t-76.5 -80.5t-107.5 -30h-6v13zM214 714q2 12 2 35q0 50 -18 84.5t-52 34.5q-23 0 -40.5 -24t-17.5 -65q0 -45 18.5 -72
t48.5 -27q34 0 59 34z" />
    <glyph glyph-name="uni2080" unicode="&#x2080;" horiz-adv-x="358" 
d="M279 86q39 -50 39 -135t-39 -135t-100 -50t-100 50t-39 135t39 135t100 50t100 -50zM236.5 71.5q-20.5 42.5 -57.5 42.5t-57.5 -42.5t-20.5 -120.5t20.5 -120.5t57.5 -42.5t57.5 42.5t20.5 120.5t-20.5 120.5z" />
    <glyph glyph-name="uni2081" unicode="&#x2081;" horiz-adv-x="240" 
d="M85.5 85q-9.5 10 -29.5 10h-4v11l89 26h5v-304q0 -44 39 -44h5v-12h-140v12h5q40 0 40 44v222q0 25 -9.5 35z" />
    <glyph glyph-name="uni2082" unicode="&#x2082;" horiz-adv-x="307" 
d="M223.5 -174q16.5 12 23.5 43h12l-9 -97h-209v7q82 76 118.5 136.5t36.5 104.5q0 35 -15.5 52.5t-44.5 17.5q-26 0 -48 -15.5t-32 -40.5l-8 3q11 43 39 71t71 28q42 0 68.5 -24t26.5 -68q0 -52 -35.5 -103t-117.5 -127h76q31 0 47.5 12z" />
    <glyph glyph-name="uni2083" unicode="&#x2083;" horiz-adv-x="304" 
d="M74.5 -220.5q-24.5 13.5 -24.5 34.5q0 12 8 21t21 9q24 0 37 -32q12 -26 36 -26q25 0 42.5 21t17.5 56q0 40 -27.5 62.5t-67.5 22.5v9q34 10 53.5 32t19.5 50t-16 44.5t-44 16.5q-24 0 -43.5 -15.5t-26.5 -42.5l-8 2q5 40 32.5 66t66.5 26t62.5 -20t23.5 -52
q0 -26 -15 -48t-34 -35q30 -11 52 -35.5t22 -59.5q0 -54 -35.5 -87t-84.5 -33q-43 0 -67.5 13.5z" />
    <glyph glyph-name="uni2084" unicode="&#x2084;" horiz-adv-x="306" 
d="M124 -216h5q40 0 40 44v38h-142v19l181 251h15v-250h44v-20h-44v-38q0 -44 40 -44h5v-12h-144v12zM169 -114v162l-117 -162h117z" />
    <glyph glyph-name="uni2085" unicode="&#x2085;" horiz-adv-x="303" 
d="M65.5 -221q-27.5 13 -27.5 37q0 13 8 20.5t20 7.5q25 0 31 -33q5 -28 37 -28q30 0 49.5 24t19.5 62q0 46 -26 70.5t-66 24.5q-31 0 -59 -14l-3 3l19 169h167l-6 -50h-148l-7 -64q28 10 55 10q53 0 88.5 -33t35.5 -88q0 -37 -17.5 -67t-47.5 -47t-64 -17q-31 0 -58.5 13z
" />
    <glyph glyph-name="uni2086" unicode="&#x2086;" horiz-adv-x="304" 
d="M63.5 -193.5q-35.5 40.5 -35.5 110.5q0 58 28 108.5t76.5 80.5t107.5 30h6v-13q-62 -6 -100.5 -52.5t-52.5 -112.5q33 39 81 39q41 0 69.5 -30t28.5 -77q0 -56 -34 -90t-83 -34q-56 0 -91.5 40.5zM198.5 -193q17.5 24 17.5 65q0 45 -18.5 72t-48.5 27q-33 0 -59 -34
q-2 -12 -2 -35q0 -50 18 -84.5t52 -34.5q23 0 40.5 24z" />
    <glyph glyph-name="uni2087" unicode="&#x2087;" horiz-adv-x="260" 
d="M107.5 -220q-8.5 8 -8.5 21q0 69 30.5 149.5t63.5 122.5h-93q-30 0 -44.5 -11t-20.5 -42h-11v102h223v-7q-43 -46 -62.5 -91.5t-24.5 -93.5t-5 -129q0 -13 -8.5 -21t-19.5 -8t-19.5 8z" />
    <glyph glyph-name="uni2088" unicode="&#x2088;" horiz-adv-x="296" 
d="M67.5 -208.5q-33.5 25.5 -33.5 65.5q0 31 15 54t47 43q-27 20 -39.5 41.5t-12.5 48.5q0 37 30 64.5t70 27.5t67 -19.5t27 -53.5q0 -26 -15 -46t-43 -39q44 -22 63 -50t19 -62q0 -45 -34.5 -72.5t-77.5 -27.5q-49 0 -82.5 25.5zM199 64q0 22 -15 38t-40 16
q-27 0 -41.5 -13.5t-14.5 -36.5q0 -43 74 -80q37 33 37 76zM193 -198.5q17 17.5 17 44.5q0 25 -21 45t-75 52q-33 -31 -33 -79q0 -34 19 -57t50 -23q26 0 43 17.5z" />
    <glyph glyph-name="uni2089" unicode="&#x2089;" horiz-adv-x="304" 
d="M58 -221q65 6 102.5 52.5t50.5 112.5q-32 -39 -81 -39q-41 0 -69.5 30t-28.5 77q0 56 34 90t83 34q56 0 91.5 -40.5t35.5 -110.5q0 -58 -28 -108.5t-76.5 -80.5t-107.5 -30h-6v13zM214 -35q2 12 2 35q0 50 -18 84.5t-52 34.5q-23 0 -40.5 -24t-17.5 -65q0 -45 18.5 -72
t48.5 -27q34 0 59 34z" />
    <glyph glyph-name="franc" unicode="&#x20a3;" horiz-adv-x="565" 
d="M543 700v-177h-22q-9 72 -43 107.5t-107 35.5h-99q-32 0 -46 -14t-14 -56v-209h147q45 0 65.5 22t20.5 68h22v-214h-22q0 46 -20.5 68t-65.5 22h-147v-127h164v-34h-164v-82q0 -88 78 -88h10v-22h-284v22h10q78 0 78 88v82h-78v34h78v364q0 88 -78 88h-10v22h527z" />
    <glyph glyph-name="uni20A8" unicode="&#x20a8;" horiz-adv-x="996" 
d="M16 22h10q78 0 78 88v480q0 88 -78 88h-10v22h281q126 0 199.5 -48.5t73.5 -138.5q0 -66 -44.5 -114t-120.5 -68l107 -242q13 -31 32 -46t50 -21v-22h-143q-12 3 -21.5 11.5t-14.5 19.5l-128 286h-75v-207q0 -88 78 -88h10v-22h-284v22zM252 351q109 0 159.5 43.5
t50.5 120.5q0 67 -37 109t-107 42h-36q-38 0 -54 -16.5t-16 -59.5v-239h40zM738.5 -5q-26.5 9 -53.5 27q-8 5 -15 5q-10 0 -16 -7.5t-6 -19.5h-26v172h24q12 -71 53 -112.5t91 -41.5q43 0 68 21t25 57q0 29 -15.5 48.5t-40.5 32.5t-67 28q-67 24 -99 63.5t-32 87.5
q0 40 22 71.5t59.5 49t80.5 17.5q30 0 50 -7t49 -23q11 -6 18 -6t11.5 6t4.5 16h24v-154h-19q-8 63 -44 99.5t-91 36.5q-40 0 -62 -20.5t-22 -50.5q0 -36 30 -60t93 -49q69 -27 102 -60t33 -85q0 -66 -46.5 -108.5t-119.5 -42.5q-37 0 -63.5 9z" />
    <glyph glyph-name="uni20A9" unicode="&#x20a9;" horiz-adv-x="1007" 
d="M991 700v-22h-10q-33 0 -52 -23.5t-37 -77.5l-28 -88h107v-34h-118l-33 -102h151v-34h-162l-108 -333h-22l-114 333h-85l-133 -333h-16l-118 333h-171v34h159l-36 102h-123v34h111l-22 63q-24 68 -46.5 97t-58.5 29h-10v22h284v-22h-10q-33 0 -48.5 -15.5t-15.5 -39.5
q0 -16 6 -33l34 -101h240l-27 79q-21 60 -37.5 85t-43.5 25h-7v22h239v-22h-20q-16 0 -26.5 -10t-10.5 -27t8 -39l37 -113h210l28 86q8 24 8 49q0 54 -56 54h-10v22h193zM311 353h145l41 102h-220zM817 455h-188l34 -102h120zM553 353l-27 79l-32 -79h59zM442 319h-120
l55 -163zM772 319h-98l50 -149z" />
    <glyph glyph-name="uni20AA" unicode="&#x20aa;" horiz-adv-x="547" 
d="M304.5 457.5q-20.5 23.5 -69.5 23.5h-114q-14 -47 -14 -130v-317l-57 -41h-14v303q0 66 19 113t49 72h-74v106h16q5 -27 36 -27h150q61 0 90.5 -30.5t29.5 -103.5v-271h-27v230q0 49 -20.5 72.5zM508.5 459.5q8.5 -68.5 8.5 -154.5v-135q0 -79 -38.5 -124.5t-106.5 -45.5
h-186v171q0 105 7 199h64v-20q-44 -66 -44 -203v-75h168q54 0 81 22t27 78v63q0 97 -24 166.5t-62 112.5l61 60h14q22 -46 30.5 -114.5z" />
    <glyph glyph-name="dong" unicode="&#x20ab;" horiz-adv-x="461" 
d="M388 579v-396q0 -34 11 -48.5t40 -14.5h8v-20h-141v48q-40 -60 -112 -60q-79 0 -125.5 54t-46.5 151q0 69 25.5 120.5t69.5 79t97 27.5q56 0 92 -30v89h-113v30h113v11q0 32 -12.5 46t-37.5 14h-9v20l141 14v-105h73v-30h-73zM306 396q0 40 -22 68.5t-62 28.5
q-31 0 -57 -21t-41.5 -61.5t-15.5 -94.5q0 -82 30.5 -130.5t80.5 -48.5q28 0 52 11.5t35 27.5v220zM32 34h395v-34h-395v34z" />
    <glyph glyph-name="Euro" unicode="&#x20ac;" horiz-adv-x="653" 
d="M245 18.5q-64 32.5 -109.5 96.5t-60.5 153h-83l15 34h63q-2 30 -2 48q0 16 2 48h-60l15 34h50q16 89 64.5 152.5t114 96.5t133.5 33q36 0 70 -11.5t75 -33.5q18 -9 29 -9q13 0 19.5 9.5t6.5 23.5v7h23v-225h-23q-14 98 -67 151.5t-122 53.5q-175 0 -198 -248h236l-15 -34
h-224q-1 -16 -1 -48q0 -33 1 -48h221l-15 -34h-203q12 -114 60.5 -174t131.5 -60q77 0 135.5 51.5t84.5 162.5l21 -8q-14 -82 -51 -139t-90 -86t-114 -29q-69 0 -133 32.5z" />
    <glyph glyph-name="uni20AD" unicode="&#x20ad;" horiz-adv-x="659" 
d="M646 22v-22h-155q-17 9 -38 35l-241 322v-247q0 -88 78 -88h10v-22h-284v22h10q78 0 78 88v247h-88v34h88v199q0 88 -78 88h-10v22h284v-22h-10q-78 0 -78 -88v-199h30l178 205q19 22 26 32.5t7 21.5q0 28 -36 28h-13v22h215v-22h-10q-43 0 -77.5 -22.5t-81.5 -77.5
l-161 -187h304v-34h-230l202 -269q37 -47 81 -66z" />
    <glyph glyph-name="uni20B1" unicode="&#x20b1;" horiz-adv-x="664" 
d="M644 536h-66q4 -17 4 -42q0 -30 -7 -54h69v-34h-81q-32 -64 -109 -97t-179 -33h-63v-166q0 -88 78 -88h10v-22h-284v22h10q78 0 78 88v296h-88v34h88v96h-88v34h88v20q0 88 -78 88h-10v22h271q102 0 177 -33t103 -97h77v-34zM212 570h250q-19 49 -65 72.5t-121 23.5
q-35 0 -49.5 -14t-14.5 -56v-26zM471 536h-259v-96h256q6 26 6 54q0 23 -3 42zM387 334.5q48 24.5 70 71.5h-245v-96h55q72 0 120 24.5z" />
    <glyph glyph-name="uni20B4" unicode="&#x20b4;" horiz-adv-x="563" 
d="M432 384q-36 -36 -97 -62h215v-34h-288q-53 -29 -81.5 -66t-28.5 -90q0 -50 35 -81t89 -31q48 0 89.5 25.5t69.5 69t37 94.5h24v-209h-24q0 25 -7.5 37.5t-18.5 12.5q-14 0 -25 -8q-40 -28 -73 -42t-78 -14q-97 0 -156.5 48t-59.5 134q0 65 38 120h-79v34h108
q35 35 83 62h-191v34h260q70 34 100 69.5t30 89.5q0 48 -31.5 75.5t-84.5 27.5q-69 0 -116.5 -48t-58.5 -131h-24v199h24v-9q0 -12 5.5 -18.5t12.5 -6.5q9 0 22 8q36 20 67 30t69 10q91 0 150 -45.5t59 -128.5q0 -68 -36 -122h89v-34h-118z" />
    <glyph glyph-name="uni20B8" unicode="&#x20b8;" horiz-adv-x="548" 
d="M16 700h516v-34h-516v34zM132 22h10q78 0 78 88v428q0 38 -36 38h-35q-43 0 -65.5 -13.5t-32.5 -39.5t-16 -72h-19v159h516v-159h-19q-6 46 -16 72t-32.5 39.5t-65.5 13.5h-35q-36 0 -36 -38v-428q0 -88 78 -88h10v-22h-284v22z" />
    <glyph glyph-name="uni20B9" unicode="&#x20b9;" horiz-adv-x="493" 
d="M478 666h-180q46 -23 73.5 -58t31.5 -78h75v-34h-75q-7 -62 -60 -108t-137 -60l156 -239q21 -31 37 -45.5t45 -21.5v-22h-136q-24 8 -49 46l-137 212q-22 34 -42 46.5t-60 12.5v34h66q103 0 153 38.5t56 106.5h-275v34h275q-5 59 -50 97.5t-113 38.5h-112v34h458v-34z
" />
    <glyph glyph-name="uni20BA" unicode="&#x20ba;" horiz-adv-x="587" 
d="M571 262q-9 -129 -69.5 -195.5t-179.5 -66.5h-287v22h10q78 0 78 88v137l-88 -49l-17 29l105 58v96l-88 -49l-17 29l105 58v171q0 88 -78 88h-10v22h284v-22h-10q-78 0 -78 -88v-111l131 73l17 -30l-148 -82v-95l131 73l17 -30l-148 -82v-202q0 -42 14 -56t46 -14
q50 0 83.5 20t53.5 70t25 138h118z" />
    <glyph glyph-name="uni20BD" unicode="&#x20bd;" horiz-adv-x="592" 
d="M212 276v-76h244v-34h-244v-56q0 -88 78 -88h10v-22h-284v22h10q78 0 78 88v56h-88v34h88v390q0 88 -78 88h-10v22h271q130 0 212.5 -53t82.5 -153q0 -107 -86 -162.5t-221 -55.5h-63zM212 310h55q101 0 154 48t53 136q0 87 -49 129.5t-149 42.5q-35 0 -49.5 -14
t-14.5 -56v-286z" />
    <glyph glyph-name="uni20BF" unicode="&#x20bf;" horiz-adv-x="586" 
d="M517 67.5q-50 -51.5 -148 -63.5v-104h-34v101q-9 -1 -29 -1h-87v-100h-34v100h-167v22h10q78 0 78 88v480q0 88 -78 88h-10v22h167v100h34v-100h64q18 0 52 -2v102h34v-106q84 -13 129.5 -52t45.5 -102q0 -56 -40 -97.5t-114 -60.5q80 -16 128.5 -64.5t48.5 -119.5
q0 -79 -50 -130.5zM230.5 652.5q-16.5 -13.5 -16.5 -56.5v-200h22q109 0 154.5 35.5t45.5 105.5q0 61 -38.5 95t-103.5 34q-47 0 -63.5 -13.5zM415 75q44 41 44 114q0 56 -21 93.5t-75 58.5t-149 21v-256q0 -32 10.5 -47.5t27.5 -20t46 -4.5q73 0 117 41z" />
    <glyph glyph-name="uni2113" unicode="&#x2113;" horiz-adv-x="413" 
d="M316 68l17 -11q-19 -34 -47.5 -52.5t-62.5 -18.5q-48 0 -78.5 35t-45.5 95l-64 -34l-11 23l41 22q4 3 28 16q-13 60 -13 146q0 101 26 199.5t75.5 162t115.5 63.5q43 0 69.5 -35.5t26.5 -95.5q0 -74 -24.5 -153t-77 -152.5t-131.5 -125.5q16 -129 85 -129q37 0 71 45z
M214.5 623q-28.5 -70 -44.5 -167.5t-16 -173.5q0 -50 3 -97q79 59 122 176.5t43 240.5q0 45 -10 68t-32 23q-37 0 -65.5 -70z" />
    <glyph glyph-name="uni2117" unicode="&#x2117;" horiz-adv-x="774" 
d="M206.5 33.5q-81.5 47.5 -129 130.5t-47.5 186t47.5 186t129 130.5t180.5 47.5t180.5 -47.5t129 -130.5t47.5 -186t-47.5 -186t-129 -130.5t-180.5 -47.5t-180.5 47.5zM545.5 63q72.5 43 115.5 118.5t43 168.5t-43 168.5t-115.5 118.5t-158.5 43t-158.5 -43t-115.5 -118.5
t-43 -168.5t43 -168.5t115.5 -118.5t158.5 -43t158.5 43zM221 140h6q50 0 50 56v308q0 56 -50 56h-6v14h173q83 0 136 -34t53 -98q0 -69 -55 -104.5t-142 -35.5h-39v-106q0 -56 50 -56h6v-14h-182v14zM382 324q64 0 98 30.5t34 87.5q0 56 -31.5 83t-95.5 27q-22 0 -31 -8.5
t-9 -35.5v-184h35z" />
    <glyph glyph-name="uni2120" unicode="&#x2120;" horiz-adv-x="767" 
d="M117.5 345.5q-17.5 6.5 -37.5 19.5q-11 7 -16 7q-14 0 -14 -26h-12v123h12q8 -47 38 -80t68 -33q30 0 48 17.5t18 47.5q0 32 -23 50t-73 40q-84 36 -84 108q0 43 32 69t75 26q19 0 34.5 -5t35.5 -16q7 -4 12 -4q9 0 9 13v5h12v-103h-12q-6 43 -30 67.5t-60 24.5
q-27 0 -43.5 -15t-16.5 -40q0 -28 24.5 -49t69.5 -39q46 -19 67 -43t21 -60q0 -34 -16.5 -59.5t-42.5 -38.5t-54 -13q-24 0 -41.5 6.5zM302 361h5q37 0 37 44v240q0 44 -37 44h-5v11h108l106 -261l117 261h102v-11h-5q-39 0 -39 -44v-240q0 -44 39 -44h5v-11h-142v11h5
q39 0 39 44v251l-137 -306h-8l-127 306v-251q0 -44 39 -44h5v-11h-107v11z" />
    <glyph glyph-name="trademark" unicode="&#x2122;" horiz-adv-x="827" 
d="M108 361h5q39 0 39 44v258q0 19 -18 19h-19q-62 0 -70 -71h-10v89h288v-89h-10q-8 71 -70 71h-19q-18 0 -18 -19v-258q0 -44 39 -44h5v-11h-142v11zM362 361h5q37 0 37 44v240q0 44 -37 44h-5v11h108l106 -261l117 261h102v-11h-5q-39 0 -39 -44v-240q0 -44 39 -44h5v-11
h-142v11h5q39 0 39 44v251l-137 -306h-8l-127 306v-251q0 -44 39 -44h5v-11h-107v11z" />
    <glyph glyph-name="uni2126" unicode="&#x2126;" horiz-adv-x="722" 
d="M26 189h22q15 -61 52.5 -90t99.5 -29h57q-86 69 -155.5 161.5t-69.5 195.5q0 83 39 148t113.5 102t176.5 37t176.5 -37t113.5 -102t39 -148q0 -103 -69.5 -195.5t-155.5 -161.5h57q62 0 99.5 29t52.5 90h22l-29 -189h-279v20q77 80 116.5 149t53 130t13.5 135
q0 83 -29.5 138.5t-77 81.5t-103.5 26t-103.5 -26t-77 -81.5t-29.5 -138.5q0 -74 13.5 -135t53 -130t116.5 -149v-20h-279z" />
    <glyph glyph-name="estimated" unicode="&#x212e;" horiz-adv-x="774" 
d="M159 144q33 -50 95 -80.5t133 -30.5q87 0 159 40.5t105 112.5h57q-43 -89 -130.5 -144.5t-190.5 -55.5q-106 0 -187 48.5t-125.5 131.5t-44.5 183q0 101 44.5 184.5t125.5 132t187 48.5q103 0 184.5 -46.5t127 -129.5t45.5 -189h-585v-205zM256.5 641
q-60.5 -28 -97.5 -77v-167h461v164q-32 45 -94.5 76.5t-138.5 31.5q-70 0 -130.5 -28z" />
    <glyph glyph-name="uni2153" unicode="&#x2153;" horiz-adv-x="695" 
d="M85.5 663q-9.5 10 -29.5 10h-4v11l89 26h5v-304q0 -44 39 -44h5v-12h-140v12h5q40 0 40 44v222q0 25 -9.5 35zM541 679l-407 -679l-34 21l407 679zM465.5 7.5q-24.5 13.5 -24.5 34.5q0 12 8 21t21 9q24 0 37 -32q12 -26 36 -26q25 0 42.5 21t17.5 56q0 40 -27.5 62.5
t-67.5 22.5v9q34 10 53.5 32t19.5 50t-16 44.5t-44 16.5q-24 0 -43.5 -15.5t-26.5 -42.5l-8 2q5 40 32.5 66t66.5 26t62.5 -20t23.5 -52q0 -26 -15 -48t-34 -35q30 -11 52 -35.5t22 -59.5q0 -54 -35.5 -87t-84.5 -33q-43 0 -67.5 13.5z" />
    <glyph glyph-name="uni2154" unicode="&#x2154;" horiz-adv-x="762" 
d="M223.5 404q16.5 12 23.5 43h12l-9 -97h-209v7q82 76 118.5 136.5t36.5 104.5q0 35 -15.5 52.5t-44.5 17.5q-26 0 -48 -15.5t-32 -40.5l-8 3q11 43 39 71t71 28q42 0 68.5 -24t26.5 -68q0 -52 -35.5 -103t-117.5 -127h76q31 0 47.5 12zM608 679l-407 -679l-34 21l407 679z
M532.5 7.5q-24.5 13.5 -24.5 34.5q0 12 8 21t21 9q24 0 37 -32q12 -26 36 -26q25 0 42.5 21t17.5 56q0 40 -27.5 62.5t-67.5 22.5v9q34 10 53.5 32t19.5 50t-16 44.5t-44 16.5q-24 0 -43.5 -15.5t-26.5 -42.5l-8 2q5 40 32.5 66t66.5 26t62.5 -20t23.5 -52q0 -26 -15 -48
t-34 -35q30 -11 52 -35.5t22 -59.5q0 -54 -35.5 -87t-84.5 -33q-43 0 -67.5 13.5z" />
    <glyph glyph-name="oneeighth" unicode="&#x215b;" horiz-adv-x="683" 
d="M85.5 663q-9.5 10 -29.5 10h-4v11l89 26h5v-304q0 -44 39 -44h5v-12h-140v12h5q40 0 40 44v222q0 25 -9.5 35zM541 679l-407 -679l-34 21l407 679zM454.5 19.5q-33.5 25.5 -33.5 65.5q0 31 15 54t47 43q-27 20 -39.5 41.5t-12.5 48.5q0 37 30 64.5t70 27.5t67 -19.5
t27 -53.5q0 -26 -15 -46t-43 -39q44 -22 63 -50t19 -62q0 -45 -34.5 -72.5t-77.5 -27.5q-49 0 -82.5 25.5zM586 292q0 22 -15 38t-40 16q-27 0 -41.5 -13.5t-14.5 -36.5q0 -43 74 -80q37 33 37 76zM580 29.5q17 17.5 17 44.5q0 25 -21 45t-75 52q-33 -31 -33 -79
q0 -34 19 -57t50 -23q26 0 43 17.5z" />
    <glyph glyph-name="threeeighths" unicode="&#x215c;" horiz-adv-x="729" 
d="M74.5 357.5q-24.5 13.5 -24.5 34.5q0 12 8 21t21 9q24 0 37 -32q12 -26 36 -26q25 0 42.5 21t17.5 56q0 40 -27.5 62.5t-67.5 22.5v9q34 10 53.5 32t19.5 50t-16 44.5t-44 16.5q-24 0 -43.5 -15.5t-26.5 -42.5l-8 2q5 40 32.5 66t66.5 26t62.5 -20t23.5 -52
q0 -26 -15 -48t-34 -35q30 -11 52 -35.5t22 -59.5q0 -54 -35.5 -87t-84.5 -33q-43 0 -67.5 13.5zM587 679l-407 -679l-34 21l407 679zM500.5 19.5q-33.5 25.5 -33.5 65.5q0 31 15 54t47 43q-27 20 -39.5 41.5t-12.5 48.5q0 37 30 64.5t70 27.5t67 -19.5t27 -53.5
q0 -26 -15 -46t-43 -39q44 -22 63 -50t19 -62q0 -45 -34.5 -72.5t-77.5 -27.5q-49 0 -82.5 25.5zM632 292q0 22 -15 38t-40 16q-27 0 -41.5 -13.5t-14.5 -36.5q0 -43 74 -80q37 33 37 76zM626 29.5q17 17.5 17 44.5q0 25 -21 45t-75 52q-33 -31 -33 -79q0 -34 19 -57t50 -23
q26 0 43 17.5z" />
    <glyph glyph-name="fiveeighths" unicode="&#x215d;" horiz-adv-x="736" 
d="M65.5 357q-27.5 13 -27.5 37q0 13 8 20.5t20 7.5q25 0 31 -33q5 -28 37 -28q30 0 49.5 24t19.5 62q0 46 -26 70.5t-66 24.5q-31 0 -59 -14l-3 3l19 169h167l-6 -50h-148l-7 -64q28 10 55 10q53 0 88.5 -33t35.5 -88q0 -37 -17.5 -67t-47.5 -47t-64 -17q-31 0 -58.5 13z
M594 679l-407 -679l-34 21l407 679zM507.5 19.5q-33.5 25.5 -33.5 65.5q0 31 15 54t47 43q-27 20 -39.5 41.5t-12.5 48.5q0 37 30 64.5t70 27.5t67 -19.5t27 -53.5q0 -26 -15 -46t-43 -39q44 -22 63 -50t19 -62q0 -45 -34.5 -72.5t-77.5 -27.5q-49 0 -82.5 25.5zM639 292
q0 22 -15 38t-40 16q-27 0 -41.5 -13.5t-14.5 -36.5q0 -43 74 -80q37 33 37 76zM633 29.5q17 17.5 17 44.5q0 25 -21 45t-75 52q-33 -31 -33 -79q0 -34 19 -57t50 -23q26 0 43 17.5z" />
    <glyph glyph-name="seveneighths" unicode="&#x215e;" horiz-adv-x="673" 
d="M107.5 358q-8.5 8 -8.5 21q0 69 30.5 149.5t63.5 122.5h-93q-30 0 -44.5 -11t-20.5 -42h-11v102h223v-7q-43 -46 -62.5 -91.5t-24.5 -93.5t-5 -129q0 -13 -8.5 -21t-19.5 -8t-19.5 8zM531 679l-407 -679l-34 21l407 679zM444.5 19.5q-33.5 25.5 -33.5 65.5q0 31 15 54
t47 43q-27 20 -39.5 41.5t-12.5 48.5q0 37 30 64.5t70 27.5t67 -19.5t27 -53.5q0 -26 -15 -46t-43 -39q44 -22 63 -50t19 -62q0 -45 -34.5 -72.5t-77.5 -27.5q-49 0 -82.5 25.5zM576 292q0 22 -15 38t-40 16q-27 0 -41.5 -13.5t-14.5 -36.5q0 -43 74 -80q37 33 37 76z
M570 29.5q17 17.5 17 44.5q0 25 -21 45t-75 52q-33 -31 -33 -79q0 -34 19 -57t50 -23q26 0 43 17.5z" />
    <glyph glyph-name="uni2160" unicode="&#x2160;" horiz-adv-x="292" 
d="M214.5 43q14.5 -21 51.5 -21h10v-22h-260v22h10q37 0 51.5 21t14.5 67v480q0 46 -14.5 67t-51.5 21h-10v22h260v-22h-10q-37 0 -51.5 -21t-14.5 -67v-480q0 -46 14.5 -67z" />
    <glyph glyph-name="uni2161" unicode="&#x2161;" horiz-adv-x="551" 
d="M16 22h10q37 0 51.5 21t14.5 67v480q0 46 -14.5 67t-51.5 21h-10v22h519v-22h-10q-37 0 -51.5 -21t-14.5 -67v-480q0 -46 14.5 -67t51.5 -21h10v-22h-519v22zM285 22q37 0 51.5 21t14.5 67v480q0 46 -14.5 67t-51.5 21h-19q-37 0 -51.5 -21t-14.5 -67v-480
q0 -46 14.5 -67t51.5 -21h19z" />
    <glyph glyph-name="uni2162" unicode="&#x2162;" horiz-adv-x="810" 
d="M16 22h10q37 0 51.5 21t14.5 67v480q0 46 -14.5 67t-51.5 21h-10v22h778v-22h-10q-37 0 -51.5 -21t-14.5 -67v-480q0 -46 14.5 -67t51.5 -21h10v-22h-778v22zM285 22q37 0 51.5 21t14.5 67v480q0 46 -14.5 67t-51.5 21h-19q-37 0 -51.5 -21t-14.5 -67v-480
q0 -46 14.5 -67t51.5 -21h19zM544 22q37 0 51.5 21t14.5 67v480q0 46 -14.5 67t-51.5 21h-19q-37 0 -51.5 -21t-14.5 -67v-480q0 -46 14.5 -67t51.5 -21h19z" />
    <glyph glyph-name="uni2163" unicode="&#x2163;" horiz-adv-x="996" 
d="M16 22h10q37 0 51.5 21t14.5 67v480q0 46 -14.5 67t-51.5 21h-10v22h559v-22h-16q-28 0 -43 -14.5t-15 -37.5q0 -14 7 -31.5t9 -21.5l153 -393l143 392q9 23 9 42q0 64 -64 64h-10v22h238v-22h-10q-45 0 -79 -34t-56 -96l-205 -562h-10l-225 576q-25 64 -49.5 90
t-68.5 26h-17q-37 0 -51.5 -21t-14.5 -67v-480q0 -46 14.5 -67t51.5 -21h10v-22h-260v22z" />
    <glyph glyph-name="uni2164" unicode="&#x2164;" horiz-adv-x="735" 
d="M138 562q-25 64 -49.5 90t-68.5 26h-10v22h302v-22h-16q-28 0 -43 -14.5t-15 -37.5q0 -14 7 -31.5t9 -21.5l153 -393l143 392q9 23 9 42q0 64 -64 64h-10v22h238v-22h-10q-45 0 -79 -34t-56 -96l-205 -562h-10z" />
    <glyph glyph-name="uni2165" unicode="&#x2165;" horiz-adv-x="997" 
d="M138 562q-25 64 -49.5 90t-68.5 26h-10v22h302v-22h-16q-28 0 -43 -14.5t-15 -37.5q0 -14 7 -31.5t9 -21.5l153 -393l143 392q9 23 9 42q0 64 -64 64h-10v22h495v-22h-10q-37 0 -51.5 -21t-14.5 -67v-480q0 -46 14.5 -67t51.5 -21h10v-22h-260v22h10q37 0 51.5 21
t14.5 67v480q0 46 -14.5 67t-51.5 21h-17q-45 0 -79 -34t-56 -96l-205 -562h-10z" />
    <glyph glyph-name="uni2166" unicode="&#x2166;" horiz-adv-x="1254" 
d="M138 562q-25 64 -49.5 90t-68.5 26h-10v22h302v-22h-16q-28 0 -43 -14.5t-15 -37.5q0 -14 7 -31.5t9 -21.5l153 -393l143 392q9 23 9 42q0 64 -64 64h-10v22h753v-22h-10q-37 0 -51.5 -21t-14.5 -67v-480q0 -46 14.5 -67t51.5 -21h10v-22h-518v22h10q37 0 51.5 21
t14.5 67v480q0 46 -14.5 67t-51.5 21h-17q-45 0 -79 -34t-56 -96l-205 -562h-10zM988 22q37 0 51.5 21t14.5 67v480q0 46 -14.5 67t-51.5 21h-18q-37 0 -51.5 -21t-14.5 -67v-480q0 -46 14.5 -67t51.5 -21h18z" />
    <glyph glyph-name="uni2167" unicode="&#x2167;" horiz-adv-x="1511" 
d="M138 562q-25 64 -49.5 90t-68.5 26h-10v22h302v-22h-16q-28 0 -43 -14.5t-15 -37.5q0 -14 7 -31.5t9 -21.5l153 -393l143 392q9 23 9 42q0 64 -64 64h-10v22h1010v-22h-10q-37 0 -51.5 -21t-14.5 -67v-480q0 -46 14.5 -67t51.5 -21h10v-22h-775v22h10q37 0 51.5 21
t14.5 67v480q0 46 -14.5 67t-51.5 21h-17q-45 0 -79 -34t-56 -96l-205 -562h-10zM988 22q37 0 51.5 21t14.5 67v480q0 46 -14.5 67t-51.5 21h-18q-37 0 -51.5 -21t-14.5 -67v-480q0 -46 14.5 -67t51.5 -21h18zM1245 22q37 0 51.5 21t14.5 67v480q0 46 -14.5 67t-51.5 21h-17
q-37 0 -51.5 -21t-14.5 -67v-480q0 -46 14.5 -67t51.5 -21h17z" />
    <glyph glyph-name="uni2168" unicode="&#x2168;" horiz-adv-x="998" 
d="M16 22h10q37 0 51.5 21t14.5 67v480q0 46 -14.5 67t-51.5 21h-10v22h606v-22h-15q-28 0 -43 -14t-15 -36q0 -20 15 -45l101 -163l114 159q21 29 21 45q0 24 -15 39t-42 15h-10v22h219v-22h-10q-35 0 -61.5 -25.5t-71.5 -88.5l-124 -173l166 -258q36 -57 64.5 -84
t63.5 -27h10v-22h-330v22h10q33 0 51.5 15.5t18.5 40.5q0 14 -4 26t-14 27l-111 179l-128 -179q-26 -36 -26 -54q0 -25 16.5 -40t45.5 -15h10v-22h-512v22zM288 22q39 0 78 29t81 88l144 200l-153 240q-36 56 -57 77.5t-48 21.5h-67q-37 0 -51.5 -21t-14.5 -67v-480
q0 -46 14.5 -67t51.5 -21h22z" />
    <glyph glyph-name="uni2169" unicode="&#x2169;" horiz-adv-x="720" 
d="M10 22h10q38 0 71.5 28t77.5 89l144 200l-153 240q-36 56 -57 77.5t-48 21.5h-20v22h309v-22h-15q-28 0 -43 -14t-15 -36q0 -20 15 -45l101 -163l114 159q21 29 21 45q0 24 -15 39t-42 15h-10v22h219v-22h-10q-35 0 -61.5 -25.5t-71.5 -88.5l-124 -173l166 -258
q36 -57 64.5 -84t63.5 -27h10v-22h-330v22h10q33 0 51.5 15.5t18.5 40.5q0 14 -4 26t-14 27l-111 179l-128 -179q-26 -36 -26 -54q0 -25 16.5 -40t45.5 -15h10v-22h-240v22z" />
    <glyph glyph-name="uni216A" unicode="&#x216a;" horiz-adv-x="985" 
d="M10 22h10q38 0 71.5 28t77.5 89l144 200l-153 240q-36 56 -57 77.5t-48 21.5h-20v22h309v-22h-15q-28 0 -43 -14t-15 -36q0 -20 15 -45l101 -163l114 159q21 29 21 45q0 24 -15 39t-42 15h-10v22h513v-22h-10q-37 0 -51.5 -21t-14.5 -67v-480q0 -46 14.5 -67t51.5 -21h10
v-22h-587v22h10q33 0 51.5 15.5t18.5 40.5q0 14 -4 26t-14 27l-111 179l-128 -179q-26 -36 -26 -54q0 -25 16.5 -40t45.5 -15h10v-22h-240v22zM769.5 43q14.5 21 14.5 67v480q0 46 -14.5 67t-51.5 21h-54q-35 0 -61.5 -25.5t-71.5 -88.5l-124 -173l166 -258q30 -48 51 -71
t41.5 -31.5t52.5 -8.5q37 0 51.5 21z" />
    <glyph glyph-name="uni216B" unicode="&#x216b;" horiz-adv-x="1239" 
d="M10 22h10q38 0 71.5 28t77.5 89l144 200l-153 240q-36 56 -57 77.5t-48 21.5h-20v22h309v-22h-15q-28 0 -43 -14t-15 -36q0 -20 15 -45l101 -163l114 159q21 29 21 45q0 24 -15 39t-42 15h-10v22h768v-22h-10q-37 0 -51.5 -21t-14.5 -67v-480q0 -46 14.5 -67t51.5 -21h10
v-22h-842v22h10q33 0 51.5 15.5t18.5 40.5q0 14 -4 26t-14 27l-111 179l-128 -179q-26 -36 -26 -54q0 -25 16.5 -40t45.5 -15h10v-22h-240v22zM769.5 43q14.5 21 14.5 67v480q0 46 -14.5 67t-51.5 21h-54q-35 0 -61.5 -25.5t-71.5 -88.5l-124 -173l166 -258q30 -48 51 -71
t41.5 -31.5t52.5 -8.5q37 0 51.5 21zM973 22q37 0 51.5 21t14.5 67v480q0 46 -14.5 67t-51.5 21h-15q-37 0 -51.5 -21t-14.5 -67v-480q0 -46 14.5 -67t51.5 -21h15z" />
    <glyph glyph-name="uni216C" unicode="&#x216c;" horiz-adv-x="567" 
d="M216 48q14 -14 46 -14h71q58 0 93 16.5t57 54t37 104.5h23l-14 -209h-513v22h10q37 0 52.5 21t15.5 67v480q0 46 -15.5 67t-52.5 21h-10v22h264v-22h-10q-37 0 -52.5 -21t-15.5 -67v-486q0 -42 14 -56z" />
    <glyph glyph-name="uni216D" unicode="&#x216d;" horiz-adv-x="624" 
d="M197 28.5q-74 42.5 -120.5 125t-46.5 196.5q0 113 49.5 196t126.5 125.5t157 42.5q43 0 68.5 -8.5t47.5 -20.5t30 -16q18 -9 29 -9q13 0 19.5 9.5t6.5 23.5v7h23v-238h-23q-42 218 -199 218q-105 0 -156 -89t-51 -241q0 -153 55.5 -234.5t162.5 -81.5q79 0 131 51.5
t86 160.5l19 -7q-29 -125 -94 -189t-166 -64q-81 0 -155 42.5z" />
    <glyph glyph-name="uni216E" unicode="&#x216e;" horiz-adv-x="690" 
d="M26 22h10q37 0 52.5 21t15.5 67v480q0 46 -15.5 67t-52.5 21h-10v22h270q99 0 181.5 -37.5t132.5 -116t50 -196.5t-50 -196.5t-132.5 -116t-181.5 -37.5h-270v22zM298 34q116 0 176.5 85.5t60.5 230.5t-60.5 230.5t-176.5 85.5h-26q-32 0 -46 -14t-14 -56v-492
q0 -42 14 -56t46 -14h26z" />
    <glyph glyph-name="uni216F" unicode="&#x216f;" horiz-adv-x="833" 
d="M807 678q-37 0 -52.5 -21t-15.5 -67v-480q0 -46 15.5 -67t52.5 -21h10v-22h-264v22h10q37 0 52.5 21t15.5 67v501l-254 -611h-16l-233 611v-501q0 -46 15.5 -67t52.5 -21h10v-22h-190v22h10q37 0 52.5 21t15.5 67v480q0 46 -15.5 67t-52.5 21h-10v22h195l198 -522
l220 522h188v-22h-10z" />
    <glyph glyph-name="uni2170" unicode="&#x2170;" horiz-adv-x="248" 
d="M78 669q19 19 46 19t46 -19t19 -46t-19 -46t-46 -19t-46 19t-19 46t19 46zM180.5 37q9.5 -15 40.5 -15h10v-22h-214v22h10q31 0 40.5 15t9.5 59v291q0 42 -11.5 56.5t-38.5 14.5h-10v22l154 14v-398q0 -44 9.5 -59z" />
    <glyph glyph-name="uni2171" unicode="&#x2171;" horiz-adv-x="460" 
d="M78 577q-19 19 -19 46t19 46t46 19t46 -19t19 -46t-19 -46t-46 -19t-46 19zM290 577q-19 19 -19 46t19 46t46 19t46 -19t19 -46t-19 -46t-46 -19t-46 19zM17 22h10q31 0 40.5 15t9.5 59v291q0 42 -11.5 56.5t-38.5 14.5h-10v22l154 14v-398q0 -44 9.5 -59t40.5 -15h18
q31 0 40.5 15t9.5 59v291q0 42 -11.5 56.5t-38.5 14.5h-10v22l154 14v-398q0 -44 9.5 -59t40.5 -15h10v-22h-426v22z" />
    <glyph glyph-name="uni2172" unicode="&#x2172;" horiz-adv-x="672" 
d="M78 577q-19 19 -19 46t19 46t46 19t46 -19t19 -46t-19 -46t-46 -19t-46 19zM290 577q-19 19 -19 46t19 46t46 19t46 -19t19 -46t-19 -46t-46 -19t-46 19zM502 577q-19 19 -19 46t19 46t46 19t46 -19t19 -46t-19 -46t-46 -19t-46 19zM17 22h10q31 0 40.5 15t9.5 59v291
q0 42 -11.5 56.5t-38.5 14.5h-10v22l154 14v-398q0 -44 9.5 -59t40.5 -15h18q31 0 40.5 15t9.5 59v291q0 42 -11.5 56.5t-38.5 14.5h-10v22l154 14v-398q0 -44 9.5 -59t40.5 -15h18q31 0 40.5 15t9.5 59v291q0 42 -11.5 56.5t-38.5 14.5h-10v22l154 14v-398q0 -44 9.5 -59
t40.5 -15h10v-22h-638v22z" />
    <glyph glyph-name="uni2173" unicode="&#x2173;" horiz-adv-x="764" 
d="M78 577q-19 19 -19 46t19 46t46 19t46 -19t19 -46t-19 -46t-46 -19t-46 19zM17 22h10q31 0 40.5 15t9.5 59v291q0 42 -11.5 56.5t-38.5 14.5h-10v22l154 14v-398q0 -44 9.5 -59t40.5 -15h10v-22h-214v22zM315 391q-14 31 -32 49t-42 18h-10v22h269v-22h-20
q-25 0 -38 -11.5t-13 -31.5q0 -12 11 -38l94 -228l87 231q12 31 12 45q0 16 -10 24.5t-32 8.5h-10v22h168v-22h-10q-29 0 -50.5 -20t-38.5 -65l-141 -373h-17z" />
    <glyph glyph-name="uni2174" unicode="&#x2174;" horiz-adv-x="546" 
d="M97 391q-14 31 -32 49t-42 18h-10v22h269v-22h-20q-25 0 -38 -11.5t-13 -31.5q0 -12 11 -38l94 -228l87 231q12 31 12 45q0 16 -10 24.5t-32 8.5h-10v22h168v-22h-10q-29 0 -50.5 -20t-38.5 -65l-141 -373h-17z" />
    <glyph glyph-name="uni2175" unicode="&#x2175;" horiz-adv-x="761" 
d="M591 577q-19 19 -19 46t19 46t46 19t46 -19t19 -46t-19 -46t-46 -19t-46 19zM97 391q-14 31 -32 49t-42 18h-10v22h269v-22h-20q-25 0 -38 -11.5t-13 -31.5q0 -12 11 -38l94 -228l87 231q12 31 12 45q0 16 -10 24.5t-32 8.5h-10v22h167l154 14v-398q0 -44 9.5 -59
t40.5 -15h10v-22h-214v22h10q31 0 40.5 15t9.5 59v291q0 42 -11.5 56.5t-38.5 14.5h-19q-29 0 -50.5 -20t-38.5 -65l-141 -373h-17z" />
    <glyph glyph-name="uni2176" unicode="&#x2176;" horiz-adv-x="974" 
d="M591 577q-19 19 -19 46t19 46t46 19t46 -19t19 -46t-19 -46t-46 -19t-46 19zM804 577q-19 19 -19 46t19 46t46 19t46 -19t19 -46t-19 -46t-46 -19t-46 19zM97 391q-14 31 -32 49t-42 18h-10v22h269v-22h-20q-25 0 -38 -11.5t-13 -31.5q0 -12 11 -38l94 -228l87 231
q12 31 12 45q0 16 -10 24.5t-32 8.5h-10v22h167l154 14v-398q0 -44 9.5 -59t40.5 -15h19q31 0 40.5 15t9.5 59v291q0 42 -11.5 56.5t-38.5 14.5h-10v22l154 14v-398q0 -44 9.5 -59t40.5 -15h10v-22h-427v22h10q31 0 40.5 15t9.5 59v291q0 42 -11.5 56.5t-38.5 14.5h-19
q-29 0 -50.5 -20t-38.5 -65l-141 -373h-17z" />
    <glyph glyph-name="uni2177" unicode="&#x2177;" horiz-adv-x="1185" 
d="M591 577q-19 19 -19 46t19 46t46 19t46 -19t19 -46t-19 -46t-46 -19t-46 19zM803 577q-19 19 -19 46t19 46t46 19t46 -19t19 -46t-19 -46t-46 -19t-46 19zM1015 577q-19 19 -19 46t19 46t46 19t46 -19t19 -46t-19 -46t-46 -19t-46 19zM97 391q-14 31 -32 49t-42 18h-10
v22h269v-22h-20q-25 0 -38 -11.5t-13 -31.5q0 -12 11 -38l94 -228l87 231q12 31 12 45q0 16 -10 24.5t-32 8.5h-10v22h167l154 14v-398q0 -44 9.5 -59t40.5 -15h18q31 0 40.5 15t9.5 59v291q0 42 -11.5 56.5t-38.5 14.5h-10v22l154 14v-398q0 -44 9.5 -59t40.5 -15h18
q31 0 40.5 15t9.5 59v291q0 42 -11.5 56.5t-38.5 14.5h-10v22l154 14v-398q0 -44 9.5 -59t40.5 -15h10v-22h-638v22h10q31 0 40.5 15t9.5 59v291q0 42 -11.5 56.5t-38.5 14.5h-19q-29 0 -50.5 -20t-38.5 -65l-141 -373h-17z" />
    <glyph glyph-name="uni2178" unicode="&#x2178;" horiz-adv-x="817" 
d="M91 577q-19 19 -19 46t19 46t46 19t46 -19t19 -46t-19 -46t-46 -19t-46 19zM17 22h10q31 0 40.5 15t9.5 59v291q0 42 -11.5 56.5t-38.5 14.5h-10v22l154 14v-398q0 -44 9.5 -59t40.5 -15h26q37 0 62 19t63 64l98 114l-132 180q-26 35 -42 47t-38 12v22h241v-22h-13
q-15 0 -24 -9t-9 -23q0 -15 11 -29l73 -102l90 105q13 16 13 30q0 13 -9.5 20.5t-26.5 7.5h-10v22h180v-22h-10q-29 0 -54 -19t-60 -59l-94 -110l124 -165q32 -43 56.5 -63t50.5 -20h10v-22h-279v22h10q20 0 31.5 10.5t11.5 28.5t-15 39l-67 95l-78 -90q-14 -15 -14 -37
q0 -19 12.5 -32.5t31.5 -13.5h10v-22h-434v22z" />
    <glyph glyph-name="uni2179" unicode="&#x2179;" horiz-adv-x="597" 
d="M21 22h6q33 0 61 20.5t64 62.5l98 114l-132 180q-26 35 -42 47t-38 12v22h241v-22h-13q-15 0 -24 -9t-9 -23q0 -15 11 -29l73 -102l90 105q13 16 13 30q0 13 -9.5 20.5t-26.5 7.5h-10v22h180v-22h-10q-29 0 -54 -19t-60 -59l-94 -110l124 -165q32 -43 56.5 -63t50.5 -20
h10v-22h-279v22h10q20 0 31.5 10.5t11.5 28.5t-15 39l-67 95l-78 -90q-14 -15 -14 -37q0 -19 12.5 -32.5t31.5 -13.5h10v-22h-210v22z" />
    <glyph glyph-name="uni217A" unicode="&#x217a;" horiz-adv-x="807" 
d="M635 577q-19 19 -19 46t19 46t46 19t46 -19t19 -46t-19 -46t-46 -19t-46 19zM21 22h6q33 0 61 20.5t64 62.5l98 114l-132 180q-26 35 -42 47t-38 12v22h241v-22h-13q-15 0 -24 -9t-9 -23q0 -15 11 -29l73 -102l90 105q13 16 13 30q0 13 -9.5 20.5t-26.5 7.5h-10v22h202
l154 14v-398q0 -44 9.5 -59t40.5 -15h10v-22h-492v22h10q20 0 31.5 10.5t11.5 28.5t-15 39l-67 95l-78 -90q-14 -15 -14 -37q0 -19 12.5 -32.5t31.5 -13.5h10v-22h-210v22zM586 22q31 0 40.5 15t9.5 59v291q0 42 -11.5 56.5t-38.5 14.5h-42q-29 0 -54 -19t-60 -59l-94 -110
l124 -165q32 -43 56.5 -63t50.5 -20h19z" />
    <glyph glyph-name="uni217B" unicode="&#x217b;" horiz-adv-x="1019" 
d="M635 577q-19 19 -19 46t19 46t46 19t46 -19t19 -46t-19 -46t-46 -19t-46 19zM849 577q-19 19 -19 46t19 46t46 19t46 -19t19 -46t-19 -46t-46 -19t-46 19zM21 22h6q33 0 61 20.5t64 62.5l98 114l-132 180q-26 35 -42 47t-38 12v22h241v-22h-13q-15 0 -24 -9t-9 -23
q0 -15 11 -29l73 -102l90 105q13 16 13 30q0 13 -9.5 20.5t-26.5 7.5h-10v22h202l154 14v-398q0 -44 9.5 -59t40.5 -15h18q31 0 40.5 15t9.5 59v291q0 42 -11.5 56.5t-38.5 14.5h-10v22l154 14v-398q0 -44 9.5 -59t40.5 -15h10v-22h-704v22h10q20 0 31.5 10.5t11.5 28.5
t-15 39l-67 95l-78 -90q-14 -15 -14 -37q0 -19 12.5 -32.5t31.5 -13.5h10v-22h-210v22zM586 22q31 0 40.5 15t9.5 59v291q0 42 -11.5 56.5t-38.5 14.5h-42q-29 0 -54 -19t-60 -59l-94 -110l124 -165q32 -43 56.5 -63t50.5 -20h19z" />
    <glyph glyph-name="uni217C" unicode="&#x217c;" horiz-adv-x="248" 
d="M180.5 37q9.5 -15 40.5 -15h10v-22h-214v22h10q31 0 40.5 15t9.5 59v511q0 31 -3.5 45.5t-14 20t-32.5 5.5h-10v22l154 14v-618q0 -44 9.5 -59z" />
    <glyph glyph-name="uni217D" unicode="&#x217d;" horiz-adv-x="458" 
d="M411 338.5q-17 -16.5 -39 -16.5q-25 0 -38.5 16t-13.5 41q0 7 2.5 21t2.5 20q0 14 -9 25q-16 22 -53 22q-31 0 -62 -24t-51 -67t-20 -97q0 -97 44.5 -161t123.5 -64q87 0 124 106l16 -6q-17 -78 -62 -123t-118 -45q-65 0 -118 30.5t-83.5 86.5t-30.5 129q0 78 35 137.5
t91 92t117 32.5q49 0 85 -16t55 -42.5t19 -55.5q0 -25 -17 -41.5z" />
    <glyph glyph-name="uni217E" unicode="&#x217e;" horiz-adv-x="522" 
d="M121 16q-44 30 -69.5 83.5t-25.5 122.5q0 78 28 140t77 97t110 35q69 0 110 -35v148q0 42 -11.5 56.5t-38.5 14.5h-10v22l154 14v-618q0 -44 9.5 -59t40.5 -15h10v-22h-154v57q-21 -33 -55 -52t-78 -19q-53 0 -97 30zM351 89v259q0 114 -100 114q-29 0 -58 -25t-48 -72.5
t-19 -110.5q0 -65 17 -112.5t47 -73t68 -25.5q61 0 93 46z" />
    <glyph glyph-name="uni217F" unicode="&#x217f;" horiz-adv-x="834" 
d="M47 22h10q31 0 40.5 15t9.5 59v288q0 44 -9.5 59t-40.5 15h-10v22l154 14v-108q34 53 74 80.5t91 27.5q52 0 83.5 -28.5t36.5 -81.5q31 51 73 80.5t90 29.5q126 0 126 -136v-262q0 -45 8 -59.5t39 -14.5h10v-22h-211v22h10q31 0 40.5 15t9.5 59v231q0 51 -18.5 75.5
t-59.5 24.5q-33 0 -63 -22t-52 -58v-251q0 -44 9.5 -59t40.5 -15h10v-22h-214v22h10q31 0 40.5 15t9.5 59v231q0 52 -19 76t-62 24q-31 0 -60.5 -22t-51.5 -58v-251q0 -44 9.5 -59t40.5 -15h10v-22h-214v22z" />
    <glyph glyph-name="uni2181" unicode="&#x2181;" horiz-adv-x="680" 
d="M467.5 662.5q82.5 -37.5 132.5 -116t50 -196.5t-50 -196.5t-132.5 -116t-181.5 -37.5h-270v22h10q37 0 52.5 21t15.5 67v480q0 46 -15.5 67t-52.5 21h-10v22h270q99 0 181.5 -37.5zM464.5 119.5q60.5 85.5 60.5 230.5t-60.5 230.5t-176.5 85.5h-26q-32 0 -46 -14t-14 -56
v-9q96 -7 159 -67t63 -170t-63 -170t-159 -67v-9q0 -42 14 -56t46 -14h26q116 0 176.5 85.5zM202 137q67 9 101.5 66t34.5 147t-34.5 147t-101.5 66v-426z" />
    <glyph glyph-name="uni2182" unicode="&#x2182;" horiz-adv-x="1064" 
d="M851.5 662.5q82.5 -37.5 132.5 -116t50 -196.5t-50 -196.5t-132.5 -116t-181.5 -37.5h-276q-99 0 -181.5 37.5t-132.5 116t-50 196.5t50 196.5t132.5 116t181.5 37.5h276q99 0 181.5 -37.5zM464 48q14 14 14 56v9q-96 7 -159 67t-63 170t63 170t159 67v9q0 42 -14 56
t-46 14h-26q-116 0 -176.5 -85.5t-60.5 -230.5t60.5 -230.5t176.5 -85.5h26q32 0 46 14zM848.5 119.5q60.5 85.5 60.5 230.5t-60.5 230.5t-176.5 85.5h-26q-32 0 -46 -14t-14 -56v-9q96 -7 159 -67t63 -170t-63 -170t-159 -67v-9q0 -42 14 -56t46 -14h26q116 0 176.5 85.5z
M478 563q-67 -9 -101.5 -66t-34.5 -147t34.5 -147t101.5 -66v426zM586 137q67 9 101.5 66t34.5 147t-34.5 147t-101.5 66v-426z" />
    <glyph glyph-name="arrowleft" unicode="&#x2190;" horiz-adv-x="548" 
d="M136 333l93 -153l-15 -12l-192 172v20l192 172l15 -12l-93 -153h388v-34h-388z" />
    <glyph glyph-name="arrowup" unicode="&#x2191;" horiz-adv-x="444" 
d="M205 487l-153 -93l-12 15l172 192h20l172 -192l-12 -15l-153 93v-388h-34v388z" />
    <glyph glyph-name="arrowright" unicode="&#x2192;" horiz-adv-x="548" 
d="M412 367l-93 153l15 12l192 -172v-20l-192 -172l-15 12l93 153h-388v34h388z" />
    <glyph glyph-name="arrowdown" unicode="&#x2193;" horiz-adv-x="444" 
d="M239 213l153 93l12 -15l-172 -192h-20l-172 192l12 15l153 -93v388h34v-388z" />
    <glyph glyph-name="arrowboth" unicode="&#x2194;" horiz-adv-x="744" 
d="M214 168l-192 172v20l192 172l15 -12l-93 -153h472l-93 153l15 12l192 -172v-20l-192 -172l-15 12l93 153h-472l93 -153z" />
    <glyph glyph-name="arrowupdn" unicode="&#x2195;" horiz-adv-x="444" 
d="M40 508l172 192h20l172 -192l-12 -15l-153 93v-472l153 93l12 -15l-172 -192h-20l-172 192l12 15l153 -93v472l-153 -93z" />
    <glyph glyph-name="uni2196" unicode="&#x2196;" horiz-adv-x="468" 
d="M121 435l-42 -174l-19 2l-15 257l15 15l257 -15l2 -19l-174 -42l275 -274l-25 -25z" />
    <glyph glyph-name="uni2197" unicode="&#x2197;" horiz-adv-x="468" 
d="M323 459l-174 42l2 19l257 15l15 -15l-15 -257l-19 -2l-42 174l-274 -275l-25 25z" />
    <glyph glyph-name="uni2198" unicode="&#x2198;" horiz-adv-x="468" 
d="M347 260l42 174l19 -2l15 -257l-15 -15l-257 15l-2 19l174 42l-275 274l25 25z" />
    <glyph glyph-name="uni2199" unicode="&#x2199;" horiz-adv-x="468" 
d="M145 236l174 -42l-2 -19l-257 -15l-15 15l15 257l19 2l42 -174l274 275l25 -25z" />
    <glyph glyph-name="partialdiff" unicode="&#x2202;" horiz-adv-x="571" 
d="M430 452q0 66 -20 118.5t-54 82t-73 29.5q-22 0 -34 -9t-20 -25q-12 -25 -22 -35.5t-28 -10.5q-19 0 -31.5 11t-12.5 28q0 16 12.5 33t40.5 28.5t72 11.5q135 0 202.5 -97.5t67.5 -260.5q0 -87 -35 -173t-99 -141.5t-145 -55.5q-67 0 -116.5 30t-75.5 84t-26 125
q0 64 29.5 126.5t85.5 102.5t131 40q105 0 148 -90q3 24 3 48zM214.5 423.5q-35.5 -40.5 -54.5 -104t-19 -128.5q0 -82 28.5 -128.5t79.5 -46.5q49 0 87.5 37.5t59.5 99t21 130.5q0 89 -34 135t-85 46q-48 0 -83.5 -40.5z" />
    <glyph glyph-name="uni2206" unicode="&#x2206;" horiz-adv-x="665" 
d="M303 714h5l347 -714h-645zM517 34l-248 508l-207 -508h455z" />
    <glyph glyph-name="product" unicode="&#x220f;" horiz-adv-x="730" 
d="M16 -108h10q78 0 78 88v610q0 88 -78 88h-10v22h698v-22h-10q-78 0 -78 -88v-610q0 -88 78 -88h10v-22h-284v22h10q78 0 78 88v631q0 31 -11.5 43t-39.5 12h-204q-28 0 -39.5 -12t-11.5 -43v-631q0 -88 78 -88h10v-22h-284v22z" />
    <glyph glyph-name="summation" unicode="&#x2211;" horiz-adv-x="600" 
d="M76 34h248q75 0 119.5 16.5t68.5 53t34 101.5h22v-205h-544v22l247 298l-237 358v22h518v-179h-17q-13 77 -51 111t-108 34h-206l192 -290z" />
    <glyph glyph-name="minus" unicode="&#x2212;" horiz-adv-x="432" 
d="M417 352v-34h-402v34h402z" />
    <glyph glyph-name="uni2215" unicode="&#x2215;" horiz-adv-x="481" 
d="M474 700l-420 -700h-47l420 700h47z" />
    <glyph glyph-name="uni2219" unicode="&#x2219;" horiz-adv-x="206" 
d="M44.5 261.5q-24.5 24.5 -24.5 58.5t24.5 58.5t58.5 24.5t58.5 -24.5t24.5 -58.5t-24.5 -58.5t-58.5 -24.5t-58.5 24.5z" />
    <glyph glyph-name="radical" unicode="&#x221a;" horiz-adv-x="566" 
d="M287 0h-34l-130 332h-108v34h142l113 -300l236 634h42z" />
    <glyph glyph-name="infinity" unicode="&#x221e;" horiz-adv-x="741" 
d="M92.5 193.5q-46.5 54.5 -46.5 142.5q0 45 18 88.5t51 70.5t75 27q101 0 146 -128q35 74 82.5 109t103.5 35q79 0 126 -53t47 -141q0 -53 -18 -100t-53 -76t-84 -29q-52 0 -90.5 27t-71.5 85q-36 -62 -76 -87t-87 -25q-76 0 -122.5 54.5zM256.5 251q31.5 33 66.5 113
q-59 94 -140 94q-45 0 -76.5 -36.5t-31.5 -86.5q0 -48 28.5 -82.5t73.5 -34.5q48 0 79.5 33zM631.5 249.5q34.5 33.5 34.5 94.5q0 51 -28.5 81t-71.5 30q-45 0 -84.5 -43t-89.5 -137q61 -59 140 -59q65 0 99.5 33.5z" />
    <glyph glyph-name="integral" unicode="&#x222b;" horiz-adv-x="429" 
d="M4 -140.5q-32 24.5 -32 56.5q0 23 12.5 36.5t33.5 13.5q20 0 34 -13t14 -32q0 -6 -2.5 -15.5t-2.5 -13.5q0 -27 36 -27q26 0 42.5 23t16.5 68q0 69 -7 169q-5 80 -8 146.5t-3 166.5q0 276 167 276q48 0 83 -27.5t35 -65.5q0 -24 -16 -39.5t-39 -15.5q-22 0 -35.5 13.5
t-13.5 32.5q0 11 3 21q2 12 2 20q0 13 -10 21t-30 8q-27 0 -46 -21.5t-19 -62.5q0 -58 7 -154q10 -140 10 -256q0 -147 -21.5 -225t-55.5 -103t-80 -25q-43 0 -75 24.5z" />
    <glyph glyph-name="approxequal" unicode="&#x2248;" horiz-adv-x="385" 
d="M48 264.5q27 31.5 77 31.5q24 0 42 -6.5t46 -20.5q21 -11 37 -17t34 -6q24 0 40 14t21 36h20q-1 -50 -27.5 -80t-77.5 -30q-24 0 -42 6.5t-46 20.5q-21 11 -37 17t-34 6q-24 0 -40 -14t-21 -36h-20q1 47 28 78.5zM48 424.5q27 31.5 77 31.5q24 0 42 -6.5t46 -20.5
q21 -11 37 -17t34 -6q24 0 40 14t21 36h20q-1 -50 -27.5 -80t-77.5 -30q-24 0 -42 6.5t-46 20.5q-21 11 -37 17t-34 6q-24 0 -40 -14t-21 -36h-20q1 47 28 78.5z" />
    <glyph glyph-name="notequal" unicode="&#x2260;" horiz-adv-x="432" 
d="M273 418l-72 -156h216v-34h-232l-53 -114h-42l53 114h-128v34h144l72 156h-216v34h232l53 114h42l-53 -114h128v-34h-144z" />
    <glyph glyph-name="lessequal" unicode="&#x2264;" horiz-adv-x="432" 
d="M355 588v-50l-240 -189l240 -189v-50l-277 213v52zM417 34v-34h-402v34h402z" />
    <glyph glyph-name="greaterequal" unicode="&#x2265;" horiz-adv-x="432" 
d="M78 110v50l240 189l-240 189v50l277 -213v-52zM417 34v-34h-402v34h402z" />
    <glyph glyph-name="lozenge" unicode="&#x25ca;" horiz-adv-x="511" 
d="M232 700h47l220 -350l-220 -350h-47l-220 350zM452 350l-197 314l-196 -314l196 -314z" />
    <glyph glyph-name="uni270B" unicode="&#x270b;" horiz-adv-x="758" 
d="M232 27.5q-70 41.5 -119.5 105t-72.5 130.5q-10 28 -10 46q0 32 19 50.5t49 18.5q33 0 52 -19t39 -55q3 -5 6 -10.5t8 -12.5h18q-16 87 -48 205q-21 79 -28 109q-2 11 -2 21q0 30 19.5 48t48.5 18q20 0 36 -11t22 -33q20 -64 39 -146.5t20 -86.5q-1 32 -4 111t-7 149
q-2 34 16.5 52.5t47.5 18.5q28 0 47 -15t20 -46q3 -79 3 -161l-1 -110q20 137 36 233q4 29 22 43.5t42 14.5q27 0 45.5 -16.5t18.5 -46.5q0 -9 -1 -14q-7 -54 -48 -256q19 35 31 66.5t26 76.5q14 44 54 44q22 0 37.5 -15t15.5 -40l-1 -10q-30 -228 -115.5 -363t-230.5 -135
q-80 0 -150 41.5zM589 157q73 133 101 327l1 7q0 10 -4.5 15.5t-11.5 5.5q-12 0 -19 -20l-12 -33q-15 -44 -25 -67t-26 -50q-14 -23 -34 -23q-13 0 -21.5 8.5t-8.5 23.5q0 8 1 12q5 29 31 182q13 79 13 80q2 14 -6 22.5t-19 8.5q-8 0 -14.5 -5t-8.5 -15q-6 -29 -24 -140
q-12 -80 -17 -102q-8 -33 -38 -33q-14 0 -24 10t-10 28q0 143 -4 272q-1 14 -9.5 21t-19.5 7t-18 -8t-8 -24q5 -117 5 -271q0 -17 -9.5 -27t-22.5 -10q-12 0 -21 7t-12 21l-6 30q-31 139 -51 204q-7 24 -30 24q-11 0 -19 -7.5t-8 -20.5q0 -3 2 -13q4 -16 19 -68
q21 -79 35 -137t23 -122q31 -7 56.5 -24t42.5 -41q7 -10 7 -15t-3.5 -8.5t-8.5 -3.5q-7 0 -15 9q-22 23 -49 33.5t-62 10.5q-4 0 -7.5 -0.5t-9.5 -0.5q-15 0 -31 10q-9 7 -16 17t-16 27q-10 19 -17 29.5t-18 15.5q-6 3 -14 3q-12 0 -20.5 -8t-8.5 -22q0 -12 7 -31
q42 -107 120 -180.5t188 -73.5q132 0 205 133zM521 213q-19 31 -68 53t-96 22q-16 0 -21 -1q-17 0 -17 12q0 11 14 15q16 5 45 5q53 0 98 -24.5t65 -68.5q2 -5 2 -8q0 -5 -3 -8.5t-8 -3.5q-7 0 -11 7z" />
    <glyph glyph-name="uni270C" unicode="&#x270c;" horiz-adv-x="523" 
d="M134 24q-51 38 -76.5 97t-25.5 122q0 69 27 117t75 73q-1 9 -5 22q-12 59 -18.5 102t-9.5 96q1 42 20.5 63t51.5 21q28 0 47.5 -18t21.5 -51l4 -80q3 -63 7 -99l12 29q22 54 36 84.5t37 72.5q11 20 28 29.5t34 9.5q29 0 49 -17.5t20 -43.5q0 -21 -11 -43
q-22 -48 -55.5 -113t-51.5 -100l-1 -13q22 10 41 10q28 0 44 -15.5t16 -42.5q0 -39 -29 -70h7q26 0 42.5 -17.5t16.5 -48.5q0 -58 -30 -107t-82.5 -78t-117.5 -29q-73 0 -124 38zM221 457l-15 166l-3 38q-3 39 -33 39q-14 0 -22 -12t-7 -35q3 -50 11 -110.5t15 -95.5
q26 9 54 10zM371.5 520.5q28.5 56.5 49.5 106.5q6 14 6 25q0 10 -7.5 17t-18.5 7q-17 0 -28 -20q-28 -47 -54 -105t-41 -99q26 -5 48 -19q17 31 45.5 87.5zM362.5 46q44.5 25 68 65t23.5 82q0 45 -38 45q-17 0 -36.5 -14.5t-33.5 -36t-14 -40.5q0 -11 7 -18t18 -7
q32 0 56 49q3 5 6 5q7 0 5 -9q-8 -36 -28 -56t-47 -20q-22 0 -37.5 14.5t-15.5 36.5q0 26 11 41q-7 -2 -20 -2q-18 0 -31 8q-6 -49 -38 -107q-4 -7 -10 -7q-4 0 -6.5 4t-1.5 10q13 39 18.5 64.5t5.5 51.5q0 41 -17 66.5t-59 45.5q-10 5 -10 13q0 5 3.5 8.5t8.5 3.5q4 0 9 -2
q31 -13 68 -13q36 0 60 13t24 40q0 20 -20.5 31.5t-54.5 11.5q-71 0 -118 -47.5t-47 -144.5q0 -45 21 -94t63.5 -82.5t103.5 -33.5q59 0 103.5 25zM342 233q30 19 51.5 46t21.5 50q0 16 -8 24.5t-21 8.5q-15 0 -29 -5.5t-39 -26.5q-57 -48 -57 -82q0 -16 8.5 -25t21.5 -9
q21 0 51 19zM251 301l-12 -1q-6 0 -18 2q11 -8 18 -20q4 9 12 19z" />
    <glyph glyph-name="uni2B1F" unicode="&#x2b1f;" horiz-adv-x="776" 
d="M20 433l368 267l368 -267l-141 -433h-455z" />
    <glyph glyph-name="uni2B20" unicode="&#x2b20;" horiz-adv-x="776" 
d="M20 433l368 267l368 -267l-141 -433h-455zM557 80l107 329l-276 198l-277 -199l107 -328h339z" />
    <glyph glyph-name="uniF8FF" unicode="&#xf8ff;" horiz-adv-x="680" 
d="M629.5 6.5q-6.5 -6.5 -15.5 -6.5l-7 1l-267 77l-267 -77l-7 -1q-9 0 -15.5 6.5t-6.5 15.5v595q0 7 4.5 13.5t11.5 8.5l270 78l10 2l10 -2l270 -78q7 -2 11.5 -8.5t4.5 -13.5v-595q0 -9 -6.5 -15.5zM88 602q4 -62 35 -114t82.5 -84.5t112.5 -37.5v303zM474.5 403.5
q51.5 32.5 82.5 84.5t35 114l-230 67v-303q61 5 112.5 37.5zM318 118v204q-73 6 -134 43.5t-97 97.5v-412zM495.5 365.5q-60.5 -37.5 -133.5 -43.5v-204l231 -67v412q-37 -60 -97.5 -97.5z" />
    <glyph glyph-name="fi" unicode="&#xfb01;" horiz-adv-x="578" 
d="M23 22h10q33 0 46.5 16.5t13.5 57.5v360h-76v24h76v19q0 68 26.5 121.5t76 83.5t115.5 30q54 0 93 -16.5t59 -42t20 -54.5q0 -30 -16.5 -48t-46.5 -18q-26 0 -41 16t-15 37q0 11 4 25q0 3 1.5 9.5t1.5 12.5q0 25 -17.5 40t-49.5 15q-65 0 -91 -57t-26 -173h140l164 14
v-398q0 -41 13.5 -57.5t46.5 -16.5h10v-22h-234v22h10q33 0 46.5 16.5t13.5 57.5v289q0 41 -16 56t-44 15h-150v-360q0 -41 13.5 -57.5t46.5 -16.5h10v-22h-234v22z" />
    <glyph glyph-name="fl" unicode="&#xfb02;" horiz-adv-x="578" 
d="M23 22h10q33 0 46.5 16.5t13.5 57.5v360h-76v24h76v19q0 66 24 119.5t71 84.5t112 31q29 0 51.5 -7t48.5 -21l91 8v-618q0 -41 13.5 -57.5t46.5 -16.5h10v-22h-234v22h10q33 0 46.5 16.5t13.5 57.5v500q0 55 -25.5 84.5t-74.5 29.5q-110 0 -110 -173v-57h72v-24h-72v-360
q0 -41 13.5 -57.5t46.5 -16.5h10v-22h-234v22z" />
    <glyph glyph-name="u1D364" unicode="&#x1d364;" horiz-adv-x="1022" 
d="M764 517v183h82v-142l120 60l34 -66l-154 -77v-475h-82v434l-114 -56v-378h-82v337l-114 -57v-280h-82v239l-114 -57v-182h-82v141l-120 -59l-34 66l154 76v476h82v-435l114 57v378h82v-337l114 57v280h82v-239z" />
    <glyph glyph-name="NULL" 
 />
    <glyph glyph-name="i.loclTRK" horiz-adv-x="268" 
d="M194.5 38.5q13.5 -16.5 46.5 -16.5h10v-22h-234v22h10q33 0 46.5 16.5t13.5 57.5v291q0 41 -16 56t-44 15h-10v22l164 14v-398q0 -41 13.5 -57.5zM78 669q19 19 46 19t46 -19t19 -46t-19 -46t-46 -19t-46 19t-19 46t19 46z" />
    <glyph glyph-name="f_b" horiz-adv-x="852" 
d="M371.5 680.5q-25.5 29.5 -74.5 29.5q-110 0 -110 -173v-57h72v-24h-72v-360q0 -41 13.5 -57.5t46.5 -16.5h10v-22h-234v22h10q33 0 46.5 16.5t13.5 57.5v360h-76v24h76v19q0 66 24 119.5t71 84.5t112 31q29 0 51.5 -7t48.5 -21l91 8v-279q59 59 140 59q55 0 99.5 -27
t70 -78.5t25.5 -123.5q0 -80 -31 -143.5t-85 -99.5t-120 -36q-42 0 -78.5 15.5t-63.5 41.5l-29 -43h-22v596q0 55 -25.5 84.5zM524.5 31q24.5 -13 54.5 -13q44 0 77.5 28.5t51.5 80.5t18 119q0 92 -32.5 146.5t-92.5 54.5q-33 0 -62 -13t-48 -36v-337q9 -17 33.5 -30z" />
    <glyph glyph-name="f_f_b" horiz-adv-x="1156" 
d="M815.5 1.5q-36.5 15.5 -63.5 41.5l-29 -43h-22v596q0 55 -25.5 84.5t-74.5 29.5q-110 0 -110 -173v-57h72v-24h-72v-360q0 -41 13.5 -57.5t46.5 -16.5h10v-22h-234v22h10q33 0 46.5 16.5t13.5 57.5v360h-210v-360q0 -41 13.5 -57.5t46.5 -16.5h10v-22h-234v22h10
q33 0 46.5 16.5t13.5 57.5v360h-76v24h76v19q0 93 52 154t151 61q42 0 81.5 -14t70.5 -37q27 34 66.5 52.5t89.5 18.5q29 0 51.5 -7t48.5 -21l91 8v-279q59 59 140 59q55 0 99.5 -27t70 -78.5t25.5 -123.5q0 -80 -31 -143.5t-85 -99.5t-120 -36q-42 0 -78.5 15.5zM397 480
v19q0 53 15 96q-16 45 -48.5 70t-71.5 25q-58 0 -81.5 -37.5t-23.5 -115.5v-57h210zM960.5 46.5q33.5 28.5 51.5 80.5t18 119q0 92 -32.5 146.5t-92.5 54.5q-33 0 -62 -13t-48 -36v-337q9 -17 33.5 -30t54.5 -13q44 0 77.5 28.5z" />
    <glyph glyph-name="f_f_h" horiz-adv-x="1202" 
d="M23 22h10q33 0 46.5 16.5t13.5 57.5v360h-76v24h76v19q0 93 52 154t151 61q42 0 81.5 -14t70.5 -37q27 34 66.5 52.5t89.5 18.5q29 0 51.5 -7t48.5 -21l91 8v-330q35 49 83 79.5t103 30.5q64 0 99 -35t35 -101v-262q0 -41 13.5 -57.5t46.5 -16.5h10v-22h-234v22h10
q33 0 46.5 16.5t13.5 57.5v231q0 49 -26 74.5t-68 25.5q-32 0 -68 -21t-64 -58v-252q0 -41 13.5 -57.5t46.5 -16.5h10v-22h-234v22h10q33 0 46.5 16.5t13.5 57.5v500q0 55 -25.5 84.5t-74.5 29.5q-110 0 -110 -173v-57h72v-24h-72v-360q0 -41 13.5 -57.5t46.5 -16.5h10v-22
h-234v22h10q33 0 46.5 16.5t13.5 57.5v360h-210v-360q0 -41 13.5 -57.5t46.5 -16.5h10v-22h-234v22zM397 480v19q0 53 15 96q-16 45 -48.5 70t-71.5 25q-58 0 -81.5 -37.5t-23.5 -115.5v-57h210z" />
    <glyph glyph-name="f_f_k" horiz-adv-x="1167" 
d="M795 714v-618q0 -41 13.5 -57.5t46.5 -16.5h10v-22h-234v22h10q33 0 46.5 16.5t13.5 57.5v500q0 55 -25.5 84.5t-74.5 29.5q-110 0 -110 -173v-57h72v-24h-72v-360q0 -41 13.5 -57.5t46.5 -16.5h10v-22h-234v22h10q33 0 46.5 16.5t13.5 57.5v360h-210v-360
q0 -41 13.5 -57.5t46.5 -16.5h10v-22h-234v22h10q33 0 46.5 16.5t13.5 57.5v360h-76v24h76v19q0 93 52 154t151 61q42 0 81.5 -14t70.5 -37q27 34 66.5 52.5t89.5 18.5q29 0 51.5 -7t48.5 -21zM412 595q-16 45 -48.5 70t-71.5 25q-58 0 -81.5 -37.5t-23.5 -115.5v-57h210v19
q0 53 15 96zM1110.5 39q16.5 -13 42.5 -17v-22h-210v22q11 0 16.5 6t5.5 15t-6 18l-164 211l146 129q19 18 19 33q0 11 -9.5 17.5t-25.5 6.5h-10v22h189v-22h-8q-30 0 -55.5 -16t-55.5 -42l-95 -83l182 -236q22 -29 38.5 -42z" />
    <glyph glyph-name="f_h" horiz-adv-x="898" 
d="M23 22h10q33 0 46.5 16.5t13.5 57.5v360h-76v24h76v19q0 66 24 119.5t71 84.5t112 31q29 0 51.5 -7t48.5 -21l91 8v-330q35 49 83 79.5t103 30.5q64 0 99 -35t35 -101v-262q0 -41 13.5 -57.5t46.5 -16.5h10v-22h-234v22h10q33 0 46.5 16.5t13.5 57.5v231q0 49 -26 74.5
t-68 25.5q-32 0 -68 -21t-64 -58v-252q0 -41 13.5 -57.5t46.5 -16.5h10v-22h-234v22h10q33 0 46.5 16.5t13.5 57.5v500q0 55 -25.5 84.5t-74.5 29.5q-110 0 -110 -173v-57h72v-24h-72v-360q0 -41 13.5 -57.5t46.5 -16.5h10v-22h-234v22z" />
    </font>
</defs>
</svg>
